<svg width="11" height="7" viewBox="0 0 11 7" fill="none" xmlns="http://www.w3.org/2000/svg">
<path d="M7.2831 6.16918C7.08268 6.42125 6.7911 6.63105 6.4383 6.77705C6.08549 6.92305 5.68415 7 5.27545 7C4.86675 7 4.46541 6.92305 4.1126 6.77705C3.7598 6.63105 3.46822 6.42125 3.2678 6.16918L0.29606 2.42974C0.0988636 2.18168 -0.00313854 1.90142 0.000197411 1.61681C0.00353241 1.3322 0.11209 1.05317 0.315073 0.807466C0.518056 0.561761 0.808393 0.357944 1.15721 0.216284C1.50602 0.0746241 1.90116 5.76973e-05 2.30333 0L8.2468 0C8.64904 -3.71933e-05 9.04427 0.07446 9.39319 0.216081C9.74211 0.357702 10.0326 0.561511 10.2356 0.807231C10.4387 1.05295 10.5473 1.33202 10.5507 1.61667C10.5541 1.90133 10.4521 2.18164 10.2548 2.42974L7.2831 6.16918Z" fill="#ABABAB"/>
</svg>
