<svg width="8" height="9" viewBox="0 0 8 9" fill="none" xmlns="http://www.w3.org/2000/svg">
<path d="M7.05049 3.04787C7.33857 3.19872 7.57834 3.41818 7.7452 3.68373C7.91206 3.94927 8 4.25135 8 4.55897C8 4.86658 7.91206 5.16866 7.7452 5.43421C7.57834 5.69976 7.33857 5.91921 7.05049 6.07007L2.77684 8.30681C2.49335 8.45523 2.17305 8.53201 1.84778 8.5295C1.52252 8.52698 1.20362 8.44528 0.922818 8.2925C0.642012 8.13972 0.409079 7.92119 0.247181 7.65865C0.0852842 7.39611 6.53267e-05 7.0987 0 6.796V2.32252C-4.29153e-05 2.01977 0.0850964 1.72228 0.246949 1.45966C0.408802 1.19704 0.641726 0.97843 0.92255 0.825583C1.20337 0.672735 1.52231 0.590976 1.84763 0.58844C2.17295 0.585903 2.49331 0.662678 2.77684 0.811126L7.05049 3.04787Z" fill="#408BC5"/>
</svg>
