<svg width="8" height="9" viewBox="0 0 8 9" fill="none" xmlns="http://www.w3.org/2000/svg">
<path d="M0.949514 6.06981C0.661431 5.91896 0.42166 5.6995 0.254801 5.43395C0.087941 5.1684 0 4.86632 0 4.55871C0 4.25109 0.087941 3.94902 0.254801 3.68347C0.42166 3.41792 0.661431 3.19846 0.949514 3.04761L5.22316 0.810867C5.50665 0.662444 5.82695 0.58567 6.15222 0.58818C6.47748 0.590691 6.79638 0.672399 7.07718 0.825179C7.35799 0.977958 7.59092 1.19649 7.75282 1.45903C7.91472 1.72157 7.99993 2.01898 8 2.32168V6.79516C8.00004 7.09791 7.9149 7.39539 7.75305 7.65801C7.5912 7.92064 7.35827 8.13925 7.07745 8.29209C6.79663 8.44494 6.47769 8.5267 6.15237 8.52924C5.82705 8.53177 5.50669 8.455 5.22316 8.30655L0.949514 6.06981Z" fill="#408BC5"/>
</svg>
