<svg width="30" height="30" viewBox="0 0 30 30" fill="none" xmlns="http://www.w3.org/2000/svg">
<path d="M6.51992 6.47939L6.4751 11.5615L11.3959 11.6032L11.4407 6.52103L6.51992 6.47939Z" fill="#408BC5"/>
<path d="M6.51992 12.4384L6.4751 17.5205L11.3959 17.5622L11.4407 12.48L6.51992 12.4384Z" fill="#408BC5"/>
<path d="M6.51992 18.3964L6.4751 23.4785L11.3959 23.5202L11.4407 18.438L6.51992 18.3964Z" fill="#408BC5"/>
<path d="M12.5224 6.47939L12.4775 11.5615L17.3983 11.6032L17.4431 6.52103L12.5224 6.47939Z" fill="#408BC5"/>
<path d="M18.6044 6.47939L18.5596 11.5615L23.4803 11.6032L23.5252 6.52103L18.6044 6.47939Z" fill="#408BC5"/>
<path d="M12.5224 12.4384L12.4775 17.5205L17.3983 17.5622L17.4431 12.48L12.5224 12.4384Z" fill="#408BC5"/>
<path d="M18.6044 12.4384L18.5596 17.5205L23.4803 17.5622L23.5252 12.48L18.6044 12.4384Z" fill="#408BC5"/>
<path d="M12.5224 18.3964L12.4775 23.4785L17.3983 23.5202L17.4431 18.438L12.5224 18.3964Z" fill="#408BC5"/>
<path d="M18.6044 18.3964L18.5596 23.4785L23.4803 23.5202L23.5252 18.438L18.6044 18.3964Z" fill="#408BC5"/>
</svg>
