<svg width="31" height="30" viewBox="0 0 31 30" fill="none" xmlns="http://www.w3.org/2000/svg">
<path d="M10.5 9.01894V6.02817C10.5 5.76377 10.6054 5.5102 10.7929 5.32324C10.9804 5.13628 11.2348 5.03125 11.5 5.03125H23.5C23.7652 5.03125 24.0196 5.13628 24.2071 5.32324C24.3946 5.5102 24.5 5.76377 24.5 6.02817V19.9851C24.5 20.2495 24.3946 20.5031 24.2071 20.69C24.0196 20.877 23.7652 20.982 23.5 20.982H20.5V23.9728C20.5 24.5231 20.05 24.9697 19.493 24.9697H7.507C7.37513 24.9705 7.2444 24.9453 7.12232 24.8956C7.00025 24.8458 6.88923 24.7725 6.79566 24.6799C6.70208 24.5873 6.62779 24.4771 6.57705 24.3558C6.52632 24.2344 6.50013 24.1043 6.5 23.9728L6.503 10.0159C6.503 9.46556 6.953 9.01894 7.509 9.01894H10.5ZM8.502 11.0128L8.5 22.9759H18.5V11.0128H8.502ZM12.5 9.01894H20.5V18.9882H22.5V7.0251H12.5V9.01894ZM10.5 14.0036H16.5V15.9974H10.5V14.0036ZM10.5 17.9913H16.5V19.9851H10.5V17.9913Z" fill="#408BC5"/>
</svg>
