<svg width="46" height="46" viewBox="0 0 46 46" fill="none" xmlns="http://www.w3.org/2000/svg">
<path d="M23.0001 2.55566C18.9566 2.55566 15.0039 3.75471 11.6418 6.00117C8.27972 8.24764 5.65931 11.4406 4.11191 15.1764C2.56452 18.9121 2.15965 23.0228 2.94851 26.9886C3.73736 30.9545 5.68451 34.5973 8.54371 37.4565C11.4029 40.3157 15.0458 42.2629 19.0116 43.0517C22.9774 43.8406 27.0881 43.4357 30.8239 41.8883C34.5596 40.3409 37.7526 37.7205 39.9991 34.3584C42.2455 30.9964 43.4446 27.0436 43.4446 23.0001C43.4446 17.5779 41.2906 12.3778 37.4565 8.5437C33.6224 4.70963 28.4223 2.55566 23.0001 2.55566ZM36.3529 16.1384L19.5629 32.9157L9.64734 23.0001C9.30845 22.6612 9.11807 22.2016 9.11807 21.7223C9.11807 21.2431 9.30845 20.7834 9.64734 20.4446C9.98623 20.1057 10.4459 19.9153 10.9251 19.9153C11.4044 19.9153 11.864 20.1057 12.2029 20.4446L19.5884 27.8301L33.8229 13.6084C33.9907 13.4406 34.1899 13.3075 34.4091 13.2167C34.6284 13.1259 34.8634 13.0792 35.1007 13.0792C35.338 13.0792 35.573 13.1259 35.7922 13.2167C36.0114 13.3075 36.2106 13.4406 36.3784 13.6084C36.5462 13.7762 36.6794 13.9754 36.7702 14.1947C36.861 14.4139 36.9077 14.6489 36.9077 14.8862C36.9077 15.1235 36.861 15.3585 36.7702 15.5777C36.6794 15.797 36.5462 15.9962 36.3784 16.164L36.3529 16.1384Z" fill="#46AA58"/>
</svg>
