<svg width="39" height="35" viewBox="0 0 39 35" fill="none" xmlns="http://www.w3.org/2000/svg">
<path d="M37.8746 12.0474C37.597 11.3997 37.2886 10.8753 36.8876 10.5052L31.2124 4.7991C30.8423 4.42898 30.3179 4.0897 29.6702 3.8121C28.9916 3.53451 28.4056 3.41113 27.8504 3.41113H8.94316C8.41881 3.41113 7.95616 3.5962 7.55519 3.96632C7.18506 4.36729 7 4.82995 7 5.35429V32.7436C7 33.2988 7.18506 33.7614 7.55519 34.1316C7.92531 34.5017 8.38797 34.6867 8.94316 34.6867H36.3324C36.8876 34.6867 37.3503 34.5017 37.7204 34.1316C38.0905 33.7614 38.2756 33.2988 38.2756 32.7436V13.8363C38.3065 13.312 38.1522 12.6951 37.8746 12.0474ZM20.0469 6.68058C20.0469 6.49551 20.1086 6.34129 20.232 6.21792C20.3554 6.09454 20.5096 6.03286 20.6946 6.03286H24.6118C24.7969 6.03286 24.9511 6.09454 25.0745 6.21792C25.1978 6.34129 25.2595 6.49551 25.2595 6.68058V13.1886C25.2595 13.3737 25.1978 13.5279 25.0745 13.6513C24.9511 13.7746 24.7969 13.8363 24.6118 13.8363H20.6946C20.5096 13.8363 20.3554 13.7746 20.232 13.6513C20.1086 13.5279 20.0469 13.3737 20.0469 13.1886V6.68058ZM30.4721 32.0959H14.8343V24.2615H30.4721V32.0959ZM35.6847 32.0959H33.063V23.6138C33.063 23.0586 32.8779 22.596 32.5078 22.2258C32.1377 21.8557 31.675 21.6707 31.1198 21.6707H14.1558C13.6006 21.6707 13.1379 21.8557 12.7678 22.2258C12.3977 22.596 12.2126 23.0586 12.2126 23.6138V32.0959H9.62172V6.03286H12.2434V14.5149C12.2434 15.0701 12.4285 15.5327 12.7986 15.9029C13.1688 16.273 13.6314 16.4581 14.1866 16.4581H25.9381C26.4933 16.4581 26.9559 16.273 27.3261 15.9029C27.6962 15.5327 27.8812 15.0701 27.8812 14.5149V6.03286C28.0972 6.03286 28.3439 6.09454 28.6832 6.24876C29.0225 6.37214 29.2384 6.52636 29.3618 6.64973L35.0679 12.3558C35.1912 12.4792 35.3454 12.726 35.4688 13.0652C35.5922 13.4045 35.6847 13.6513 35.6847 13.8363V32.0959Z" fill="#BEBEBE"/>
<path fill-rule="evenodd" clip-rule="evenodd" d="M11.5 19.7143C16.0366 19.7143 19.7143 16.0366 19.7143 11.5C19.7143 6.96338 16.0366 3.28571 11.5 3.28571C6.96338 3.28571 3.28571 6.96338 3.28571 11.5C3.28571 16.0366 6.96338 19.7143 11.5 19.7143ZM11.5 23C17.8513 23 23 17.8513 23 11.5C23 5.14873 17.8513 0 11.5 0C5.14873 0 0 5.14873 0 11.5C0 17.8513 5.14873 23 11.5 23Z" fill="#EB5757"/>
<path fill-rule="evenodd" clip-rule="evenodd" d="M2.29968 5.83278L18.3634 19.1816L20.4634 16.6545L4.39965 3.30572L2.29968 5.83278Z" fill="#EB5757"/>
</svg>
