<svg width="46" height="45" viewBox="0 0 46 45" fill="none" xmlns="http://www.w3.org/2000/svg">
<path d="M22.9838 35.3215C30.0855 35.3215 35.8425 29.5644 35.8425 22.4627C35.8425 15.361 30.0855 9.60394 22.9838 9.60394C15.8821 9.60394 10.125 15.361 10.125 22.4627C10.125 29.5644 15.8821 35.3215 22.9838 35.3215Z" fill="white"/>
<g opacity="0.07">
<g opacity="0.07">
<g opacity="0.07">
<path opacity="0.07" d="M30.3128 15.038C31.999 17.0306 32.8585 19.593 32.7149 22.1993C32.5713 24.8057 31.4355 27.2582 29.5407 29.0535C27.6459 30.8489 25.1357 31.8508 22.5254 31.8537C19.9151 31.8567 17.4027 30.8603 15.5039 29.0692C16.4019 30.1298 17.5068 30.9959 18.751 31.6148C19.9953 32.2337 21.3527 32.5922 22.7402 32.6684C24.1278 32.7447 25.5163 32.537 26.8208 32.0582C28.1254 31.5794 29.3185 30.8395 30.3273 29.8837C31.3361 28.928 32.1393 27.7765 32.6877 26.4996C33.2362 25.2228 33.5184 23.8475 33.5171 22.4578C33.5158 21.0682 33.231 19.6934 32.6801 18.4176C32.1292 17.1418 31.3239 15.9918 30.3133 15.038H30.3128Z" fill="#408BC5"/>
</g>
</g>
</g>
<path d="M23.0257 14.6593L27.1143 21.7408H18.9372L23.0257 14.6593Z" fill="#FF6F6F"/>
<path d="M23.029 29.6319L18.9404 21.6905L27.1175 21.6905L23.029 29.6319Z" fill="#D3D3D3"/>
<circle cx="22.8685" cy="22.1312" r="11.7787" stroke="#62ACE7" stroke-width="3"/>
</svg>
