<svg width="13" height="9" viewBox="0 0 13 9" fill="none" xmlns="http://www.w3.org/2000/svg">
<mask id="path-1-inside-1" fill="white">
<path fill-rule="evenodd" clip-rule="evenodd" d="M10.5 1H1.5L1.5 8H11.5V2C11.5 1.44772 11.0523 1 10.5 1ZM1.5 0C0.947715 0 0.5 0.447715 0.5 1V8C0.5 8.55229 0.947715 9 1.5 9H11.5C12.0523 9 12.5 8.55229 12.5 8V2C12.5 0.895431 11.6046 0 10.5 0H1.5Z"/>
</mask>
<path fill-rule="evenodd" clip-rule="evenodd" d="M10.5 1H1.5L1.5 8H11.5V2C11.5 1.44772 11.0523 1 10.5 1ZM1.5 0C0.947715 0 0.5 0.447715 0.5 1V8C0.5 8.55229 0.947715 9 1.5 9H11.5C12.0523 9 12.5 8.55229 12.5 8V2C12.5 0.895431 11.6046 0 10.5 0H1.5Z" fill="#707070"/>
<path d="M1.5 1V0H0.5L0.5 1L1.5 1ZM1.5 8H0.5L0.5 9H1.5V8ZM11.5 8V9H12.5V8H11.5ZM1.5 2H10.5V0H1.5V2ZM2.5 8L2.5 1L0.5 1L0.5 8H2.5ZM11.5 7H1.5V9H11.5V7ZM10.5 2V8H12.5V2H10.5ZM10.5 2H12.5C12.5 0.89543 11.6046 0 10.5 0V2ZM1.5 1V1V-1C0.395431 -1 -0.5 -0.10457 -0.5 1H1.5ZM1.5 8V1H-0.5V8H1.5ZM1.5 8H1.5H-0.5C-0.5 9.10457 0.39543 10 1.5 10V8ZM11.5 8H1.5V10H11.5V8ZM11.5 8V10C12.6046 10 13.5 9.10457 13.5 8H11.5ZM11.5 2V8H13.5V2H11.5ZM10.5 1C11.0523 1 11.5 1.44772 11.5 2H13.5C13.5 0.343146 12.1569 -1 10.5 -1V1ZM1.5 1H10.5V-1H1.5V1Z" fill="#707070" mask="url(#path-1-inside-1)"/>
<path d="M3 3.5H4V6.5H3V3.5Z" fill="#707070" stroke="#707070"/>
<mask id="path-4-inside-2" fill="white">
<path d="M6.5 3H9.5V4H6.5V3Z"/>
</mask>
<path d="M6.5 3H9.5V4H6.5V3Z" fill="#707070"/>
<path d="M6.5 3V2H5.5V3H6.5ZM9.5 3H10.5V2H9.5V3ZM9.5 4V5H10.5V4H9.5ZM6.5 4H5.5V5H6.5V4ZM6.5 4H9.5V2H6.5V4ZM8.5 3V4H10.5V3H8.5ZM9.5 3H6.5V5H9.5V3ZM7.5 4V3H5.5V4H7.5Z" fill="#707070" mask="url(#path-4-inside-2)"/>
<mask id="path-6-inside-3" fill="white">
<path d="M6.5 5H9.5V6H6.5V5Z"/>
</mask>
<path d="M6.5 5H9.5V6H6.5V5Z" fill="#707070"/>
<path d="M6.5 5V4H5.5V5H6.5ZM9.5 5H10.5V4H9.5V5ZM9.5 6V7H10.5V6H9.5ZM6.5 6H5.5V7H6.5V6ZM6.5 6H9.5V4H6.5V6ZM8.5 5V6H10.5V5H8.5ZM9.5 5H6.5V7H9.5V5ZM7.5 6V5H5.5V6H7.5Z" fill="#707070" mask="url(#path-6-inside-3)"/>
</svg>
