<svg width="45" height="45" viewBox="0 0 45 45" fill="none" xmlns="http://www.w3.org/2000/svg">
<path d="M10.0649 30.6726L34.5621 15.0522" stroke="white" stroke-width="3" stroke-linecap="round"/>
<circle cx="22.1353" cy="22.8629" r="14.8306" stroke="white" stroke-width="3"/>
<path d="M21.949 13.7691C21.0406 13.7691 20.141 13.948 19.3017 14.2956C18.4624 14.6433 17.6998 15.1529 17.0574 15.7952C16.415 16.4376 15.9055 17.2002 15.5578 18.0395C15.2102 18.8788 15.0312 19.7784 15.0312 20.6868C15.0312 24.7717 21.949 32.6611 21.949 32.6611C21.949 32.6611 28.8668 25.0752 28.8668 20.6868C28.8668 19.7784 28.6879 18.8788 28.3402 18.0395C27.9926 17.2002 27.483 16.4376 26.8406 15.7952C26.1983 15.1529 25.4357 14.6433 24.5963 14.2956C23.757 13.948 22.8575 13.7691 21.949 13.7691ZM21.949 23.3974C21.3569 23.3974 20.7781 23.2219 20.2857 22.893C19.7933 22.5641 19.4096 22.0966 19.1829 21.5495C18.9563 21.0025 18.897 20.4006 19.0124 19.8198C19.1279 19.2391 19.413 18.7056 19.8317 18.2869C20.2503 17.8682 20.7838 17.583 21.3645 17.4675C21.9452 17.3519 22.5472 17.4112 23.0943 17.6378C23.6413 17.8644 24.1089 18.2481 24.4379 18.7404C24.7668 19.2327 24.9424 19.8115 24.9424 20.4037C24.9424 21.1975 24.627 21.9589 24.0657 22.5203C23.5043 23.0817 22.7429 23.397 21.949 23.397V23.3974Z" fill="white"/>
</svg>
