<svg width="45" height="45" viewBox="0 0 45 45" fill="none" xmlns="http://www.w3.org/2000/svg">
<path d="M14.9025 22.0366C14.0851 22.0366 13.3499 22.5341 13.0459 23.2929L10.2619 30.243C9.73557 31.5568 10.7031 32.9867 12.1185 32.9867H32.8378C34.2757 32.9867 35.2437 31.5147 34.6742 30.1944L31.676 23.2444C31.3597 22.5114 30.6379 22.0366 29.8396 22.0366H14.9025Z" stroke="#408BC5" stroke-width="2"/>
<path d="M14.9853 26.3588L15.7436 24.6738C15.8243 24.4943 16.0028 24.3789 16.1995 24.3789H18.9501C19.2754 24.3789 19.5141 24.6846 19.4352 25.0002L19.0139 26.6852C18.9583 26.9078 18.7583 27.064 18.5289 27.064H15.4413C15.0784 27.064 14.8364 26.6896 14.9853 26.3588Z" fill="#9BC8E1"/>
<path d="M29.6622 25.6536L29.354 24.9686C29.1925 24.6097 28.8355 24.3789 28.442 24.3789H26.6551C26.0046 24.3789 25.5272 24.9903 25.685 25.6215L25.8562 26.3065C25.9675 26.7517 26.3675 27.064 26.8264 27.064H28.7503C29.4759 27.064 29.96 26.3153 29.6622 25.6536Z" fill="#C8E6F7"/>
<path d="M13.675 29.9266L14.4894 28.2416C14.5728 28.0689 14.7477 27.9592 14.9396 27.9592H18.0044C18.3457 27.9592 18.5867 28.2935 18.4788 28.6173L17.9171 30.3023C17.8491 30.5065 17.658 30.6442 17.4428 30.6442H14.1251C13.7564 30.6442 13.5145 30.2586 13.675 29.9266Z" fill="#9BC8E1"/>
<path d="M30.0074 26.3558L29.2351 24.6708C29.1536 24.4931 28.9761 24.3792 28.7806 24.3792H26.0851C25.7491 24.3792 25.5087 24.7039 25.6069 25.0253L26.1218 26.7103C26.186 26.9205 26.3801 27.0642 26.6 27.0642H29.5528C29.9172 27.0642 30.1592 26.687 30.0074 26.3558Z" fill="#9BC8E1"/>
<path d="M31.7902 29.9332L31.0059 28.2482C30.9239 28.0719 30.7471 27.9592 30.5526 27.9592H26.9382C26.6147 27.9592 26.3764 28.2617 26.4521 28.5762L26.8578 30.2612C26.9118 30.4859 27.1128 30.6442 27.3439 30.6442H31.3369C31.7025 30.6442 31.9444 30.2646 31.7902 29.9332Z" fill="#9BC8E1"/>
<path d="M20.6406 24.7525C20.6982 24.5325 20.8969 24.3792 21.1243 24.3792H23.8686C24.0959 24.3792 24.2946 24.5325 24.3522 24.7525L24.7936 26.4375C24.8766 26.7544 24.6375 27.0642 24.3099 27.0642H20.683C20.3554 27.0642 20.1163 26.7544 20.1993 26.4375L20.6406 24.7525Z" fill="#408BC5"/>
<path d="M19.985 28.291C20.056 28.092 20.2445 27.9592 20.4558 27.9592H24.5458C24.7571 27.9592 24.9456 28.092 25.0166 28.291L25.6184 29.976C25.7347 30.3016 25.4933 30.6442 25.1476 30.6442H19.854C19.5083 30.6442 19.2669 30.3016 19.3832 29.976L19.985 28.291Z" fill="#9BC8E1"/>
<path d="M22.6743 9.93869C21.9461 9.93869 21.225 10.0821 20.5522 10.3608C19.8794 10.6395 19.2681 11.048 18.7531 11.5629C18.2382 12.0779 17.8297 12.6892 17.551 13.362C17.2723 14.0348 17.1289 14.7559 17.1289 15.4841C17.1289 18.7586 22.6743 25.0829 22.6743 25.0829C22.6743 25.0829 28.2198 19.0019 28.2198 15.4841C28.2198 14.7559 28.0763 14.0348 27.7976 13.362C27.5189 12.6892 27.1105 12.0779 26.5955 11.5629C26.0806 11.048 25.4693 10.6395 24.7965 10.3608C24.1237 10.0821 23.4026 9.93869 22.6743 9.93869ZM22.6743 17.6569C22.1997 17.657 21.7357 17.5163 21.341 17.2526C20.9463 16.989 20.6387 16.6142 20.457 16.1757C20.2753 15.7372 20.2277 15.2546 20.3203 14.7891C20.4129 14.3235 20.6414 13.8959 20.977 13.5603C21.3126 13.2246 21.7402 12.996 22.2058 12.9034C22.6713 12.8108 23.1538 12.8583 23.5924 13.0399C24.0309 13.2216 24.4057 13.5291 24.6694 13.9238C24.9331 14.3185 25.0739 14.7825 25.0739 15.2571C25.0739 15.8935 24.8211 16.5038 24.3711 16.9538C23.9211 17.4039 23.3107 17.6569 22.6743 17.6569Z" fill="#F08300"/>
<circle cx="22.4593" cy="15.0136" r="2.53743" fill="white"/>
<path d="M15.6899 12.524H14.0233V10.9331C14.0233 10.788 13.9657 10.6489 13.8631 10.5464C13.7606 10.4438 13.6215 10.3862 13.4764 10.3862C13.3314 10.3862 13.1923 10.4438 13.0898 10.5464C12.9872 10.6489 12.9296 10.788 12.9296 10.9331V12.524H11.4145C11.2693 12.524 11.1301 12.5817 11.0275 12.6843C10.9249 12.7869 10.8672 12.9262 10.8672 13.0713C10.8672 13.2165 10.9249 13.3557 11.0275 13.4583C11.1301 13.5609 11.2693 13.6186 11.4145 13.6186H12.9296V15.2094C12.9296 15.3544 12.9872 15.4935 13.0898 15.5961C13.1923 15.6986 13.3314 15.7562 13.4764 15.7562C13.6215 15.7562 13.7606 15.6986 13.8631 15.5961C13.9657 15.4935 14.0233 15.3544 14.0233 15.2094V13.6186H15.6899C15.8351 13.6186 15.9743 13.5609 16.0769 13.4583C16.1796 13.3557 16.2372 13.2165 16.2372 13.0713C16.2372 12.9262 16.1796 12.7869 16.0769 12.6843C15.9743 12.5817 15.8351 12.524 15.6899 12.524Z" fill="#408BC5"/>
</svg>
