<svg width="20" height="21" viewBox="0 0 20 21" fill="none" xmlns="http://www.w3.org/2000/svg">
<path d="M10 7.0214V4.3675C9.99966 4.16254 9.93717 3.96228 9.82042 3.79193C9.70366 3.62158 9.53786 3.48878 9.34391 3.41026C9.14995 3.33174 8.93653 3.31102 8.73053 3.3507C8.52453 3.39038 8.33517 3.48869 8.18631 3.63324L1.5 10.0715L8.18631 16.5086C8.28476 16.6053 8.4018 16.682 8.53072 16.7343C8.65964 16.7866 8.79788 16.8136 8.9375 16.8136C9.07712 16.8136 9.21536 16.7866 9.34428 16.7343C9.4732 16.682 9.59024 16.6053 9.68869 16.5086C9.7874 16.4124 9.86571 16.2981 9.91913 16.1723C9.97255 16.0465 10 15.9116 10 15.7754V13.1941C12.9219 13.2646 16.1147 13.7811 18.5 17.3311V16.294C18.5 11.4892 14.7812 7.53786 10 7.0214Z" fill="#707070"/>
</svg>
