<svg width="45" height="45" viewBox="0 0 45 45" fill="none" xmlns="http://www.w3.org/2000/svg">
<path d="M30.9365 9.84285C30.6757 9.58201 30.3219 9.43547 29.953 9.43547C29.5841 9.43547 29.2303 9.58201 28.9695 9.84285L27.7445 11.0678L29.8973 13.2207C29.9385 13.2604 29.9713 13.3079 29.9938 13.3604C30.0164 13.413 30.0283 13.4695 30.0288 13.5266C30.0293 13.5838 30.0184 13.6405 29.9967 13.6934C29.9751 13.7463 29.9431 13.7944 29.9027 13.8348C29.8623 13.8753 29.8142 13.9072 29.7613 13.9289C29.7084 13.9505 29.6517 13.9614 29.5945 13.9609C29.5373 13.9604 29.4808 13.9486 29.4283 13.926C29.3757 13.9034 29.3282 13.8706 29.2885 13.8295L27.1357 11.6767L23.3897 15.4226L26.3278 18.3608C26.369 18.4005 26.4018 18.448 26.4243 18.5005C26.4469 18.5531 26.4588 18.6096 26.4593 18.6667C26.4598 18.7239 26.4489 18.7806 26.4272 18.8335C26.4056 18.8864 26.3736 18.9345 26.3332 18.9749C26.2927 19.0154 26.2447 19.0473 26.1918 19.069C26.1388 19.0906 26.0821 19.1015 26.025 19.101C25.9678 19.1005 25.9113 19.0886 25.8588 19.0661C25.8062 19.0435 25.7587 19.0107 25.719 18.9696L22.7808 16.0314L19.0348 19.7774L21.1877 21.9303C21.2286 21.97 21.2611 22.0175 21.2835 22.07C21.3058 22.1225 21.3176 22.1789 21.318 22.2359C21.3183 22.2929 21.3074 22.3495 21.2858 22.4022C21.2641 22.455 21.2322 22.503 21.1919 22.5433C21.1515 22.5836 21.1036 22.6155 21.0508 22.6372C20.9981 22.6588 20.9415 22.6698 20.8845 22.6694C20.8275 22.669 20.7711 22.6573 20.7186 22.635C20.6661 22.6126 20.6186 22.58 20.5788 22.5392L18.426 20.3863L14.68 24.1323L17.6182 27.0704C17.6979 27.1514 17.7423 27.2606 17.7419 27.3741C17.7414 27.4877 17.6961 27.5965 17.6158 27.6769C17.5355 27.7572 17.4267 27.8025 17.3131 27.803C17.1995 27.8034 17.0903 27.759 17.0093 27.6793L14.0712 24.7411L9.84097 28.9712C9.58013 29.2321 9.43359 29.5859 9.43359 29.9548C9.43359 30.3237 9.58013 30.6775 9.84097 30.9383L14.339 35.4364C14.4682 35.5656 14.6215 35.668 14.7902 35.7379C14.959 35.8078 15.1399 35.8438 15.3225 35.8438C15.5052 35.8438 15.686 35.8078 15.8548 35.7379C16.0235 35.668 16.1769 35.5656 16.306 35.4364L35.4346 16.308C35.6954 16.0472 35.8419 15.6934 35.8419 15.3245C35.8419 14.9556 35.6954 14.6018 35.4346 14.341L30.9365 9.84285ZM14.7684 32.1814C14.6876 32.2622 14.5781 32.3075 14.4639 32.3075C14.3497 32.3075 14.2402 32.2622 14.1595 32.1814L13.0959 31.1179C13.0163 31.037 12.9718 30.9278 12.9723 30.8142C12.9728 30.7006 13.0181 30.5918 13.0984 30.5115C13.1787 30.4312 13.2875 30.3859 13.4011 30.3854C13.5147 30.3849 13.6239 30.4294 13.7048 30.509L14.7684 31.5725C14.8491 31.6533 14.8945 31.7628 14.8945 31.877C14.8945 31.9912 14.8491 32.1007 14.7684 32.1814Z" fill="#408BC5"/>
</svg>
