<svg width="19" height="15" viewBox="0 0 19 15" fill="none" xmlns="http://www.w3.org/2000/svg">
<path d="M1 2.70862H17.6731" stroke="white" stroke-width="2" stroke-linecap="round"/>
<path d="M1 7.19232H17.6731" stroke="white" stroke-width="2" stroke-linecap="round"/>
<path d="M1 11.676H17.6731" stroke="white" stroke-width="2" stroke-linecap="round"/>
<path d="M4.92398 5.23077C6.36842 5.23077 7.53936 4.05982 7.53936 2.61538C7.53936 1.17095 6.36842 0 4.92398 0C3.47954 0 2.30859 1.17095 2.30859 2.61538C2.30859 4.05982 3.47954 5.23077 4.92398 5.23077Z" fill="white"/>
<path d="M15.3849 9.8077C16.8294 9.8077 18.0003 8.63676 18.0003 7.19232C18.0003 5.74788 16.8294 4.57693 15.3849 4.57693C13.9405 4.57693 12.7695 5.74788 12.7695 7.19232C12.7695 8.63676 13.9405 9.8077 15.3849 9.8077Z" fill="white"/>
<path d="M4.92398 14.3846C6.36842 14.3846 7.53936 13.2137 7.53936 11.7692C7.53936 10.3248 6.36842 9.15384 4.92398 9.15384C3.47954 9.15384 2.30859 10.3248 2.30859 11.7692C2.30859 13.2137 3.47954 14.3846 4.92398 14.3846Z" fill="white"/>
</svg>
