<svg width="35" height="36" viewBox="0 0 35 36" fill="none" xmlns="http://www.w3.org/2000/svg">
<mask id="mask0" mask-type="alpha" maskUnits="userSpaceOnUse" x="0" y="0" width="35" height="36">
<rect x="0.5" y="1.22058" width="34" height="34" fill="#C4C4C4" stroke="#165F88"/>
</mask>
<g mask="url(#mask0)">
<path d="M30.6191 17.6073C30.6191 25.0631 24.575 31.1073 17.1191 31.1073C9.6633 31.1073 3.61914 25.0631 3.61914 17.6073C3.61914 10.1515 9.6633 4.1073 17.1191 4.1073C24.575 4.1073 30.6191 10.1515 30.6191 17.6073Z" stroke="#165F88"/>
<path d="M17.1191 30.6073C24.2988 30.6073 30.1191 24.787 30.1191 17.6073C30.1191 10.4276 24.2988 4.6073 17.1191 4.6073C9.93944 4.6073 4.11914 10.4276 4.11914 17.6073C4.11914 24.787 9.93944 30.6073 17.1191 30.6073Z" stroke="#165F88" stroke-width="2"/>
<path d="M16.1675 21.5697C18.0431 22.0373 19.9426 20.8959 20.4103 19.0204C20.8779 17.1448 19.7365 15.2452 17.8609 14.7776C15.9854 14.31 14.0858 15.4513 13.6182 17.3269C13.1506 19.2025 14.2919 21.102 16.1675 21.5697Z" stroke="#165F88"/>
<path d="M16.2884 21.0845C17.896 21.4853 19.5242 20.507 19.925 18.8993C20.3258 17.2917 19.3475 15.6635 17.7399 15.2627C16.1322 14.8619 14.5041 15.8402 14.1032 17.4478C13.7024 19.0555 14.6807 20.6836 16.2884 21.0845Z" stroke="#165F88" stroke-width="2"/>
<path d="M28.1675 25.5697C30.0431 26.0373 31.9426 24.8959 32.4103 23.0204C32.8779 21.1448 31.7365 19.2452 29.8609 18.7776C27.9854 18.31 26.0858 19.4513 25.6182 21.3269C25.1506 23.2025 26.2919 25.102 28.1675 25.5697Z" fill="white" stroke="#165F88"/>
<path d="M28.2884 25.0845C29.896 25.4853 31.5242 24.507 31.925 22.8993C32.3258 21.2917 31.3475 19.6635 29.7399 19.2627C28.1322 18.8619 26.5041 19.8402 26.1032 21.4478C25.7024 23.0555 26.6807 24.6836 28.2884 25.0845Z" fill="white" stroke="#165F88" stroke-width="2"/>
</g>
<mask id="mask1" mask-type="alpha" maskUnits="userSpaceOnUse" x="0" y="-1" width="35" height="36">
<rect x="0.5" y="0.499878" width="34" height="34" fill="#C4C4C4" stroke="#165F88"/>
</mask>
<g mask="url(#mask1)">
<path d="M30.6191 16.8866C30.6191 24.3424 24.575 30.3866 17.1191 30.3866C9.6633 30.3866 3.61914 24.3424 3.61914 16.8866C3.61914 9.43075 9.6633 3.3866 17.1191 3.3866C24.575 3.3866 30.6191 9.43075 30.6191 16.8866Z" fill="white" stroke="#165F88"/>
<path d="M17.1191 29.8866C24.2988 29.8866 30.1191 24.0663 30.1191 16.8866C30.1191 9.70689 24.2988 3.8866 17.1191 3.8866C9.93944 3.8866 4.11914 9.70689 4.11914 16.8866C4.11914 24.0663 9.93944 29.8866 17.1191 29.8866Z" fill="white" stroke="#165F88" stroke-width="2"/>
<path d="M16.1675 20.849C18.0431 21.3166 19.9426 20.1752 20.4103 18.2997C20.8779 16.4241 19.7365 14.5245 17.8609 14.0569C15.9854 13.5893 14.0858 14.7306 13.6182 16.6062C13.1506 18.4818 14.2919 20.3813 16.1675 20.849Z" fill="white" stroke="#165F88"/>
<path d="M16.2884 20.3638C17.896 20.7646 19.5242 19.7863 19.925 18.1786C20.3258 16.571 19.3475 14.9428 17.7399 14.542C16.1322 14.1412 14.5041 15.1195 14.1032 16.7271C13.7024 18.3348 14.6807 19.9629 16.2884 20.3638Z" fill="white" stroke="#165F88" stroke-width="2"/>
<path d="M28.1675 24.849C30.0431 25.3166 31.9426 24.1752 32.4103 22.2997C32.8779 20.4241 31.7365 18.5245 29.8609 18.0569C27.9854 17.5893 26.0858 18.7306 25.6182 20.6062C25.1506 22.4818 26.2919 24.3813 28.1675 24.849Z" fill="white" stroke="#165F88"/>
<path d="M28.2884 24.3638C29.896 24.7646 31.5242 23.7863 31.925 22.1786C32.3258 20.571 31.3475 18.9428 29.7399 18.542C28.1322 18.1412 26.5041 19.1195 26.1032 20.7271C25.7024 22.3348 26.6807 23.9629 28.2884 24.3638Z" fill="white" stroke="#165F88" stroke-width="2"/>
</g>
</svg>
