<svg width="16" height="16" viewBox="0 0 16 16" fill="none" xmlns="http://www.w3.org/2000/svg">
<path d="M8 16C12.4183 16 16 12.4183 16 8C16 3.58172 12.4183 0 8 0C3.58172 0 0 3.58172 0 8C0 12.4183 3.58172 16 8 16Z" fill="white"/>
<path fill-rule="evenodd" clip-rule="evenodd" d="M9.08794 4.38351C9.08794 3.91012 8.70418 3.52637 8.23079 3.52637C7.75741 3.52637 7.37365 3.91012 7.37365 4.38351V7.23721H4.1296C3.65622 7.23721 3.27246 7.62097 3.27246 8.09435C3.27246 8.56774 3.65622 8.9515 4.1296 8.9515H7.37365V12.0001C7.37365 12.4735 7.75741 12.8572 8.23079 12.8572C8.70418 12.8572 9.08794 12.4735 9.08794 12.0001V8.9515H12.3319C12.8053 8.9515 13.189 8.56774 13.189 8.09435C13.189 7.62097 12.8053 7.23721 12.3319 7.23721H9.08794V4.38351Z" fill="url(#paint0_linear)"/>
<defs>
<linearGradient id="paint0_linear" x1="-2.85812" y1="2.06459" x2="15.1419" y2="13.7789" gradientUnits="userSpaceOnUse">
<stop stop-color="#4B74C8"/>
<stop offset="0.307292" stop-color="#4C7CCB"/>
<stop offset="1" stop-color="#5BD1EB"/>
</linearGradient>
</defs>
</svg>
