<svg width="35" height="35" viewBox="0 0 35 35" fill="none" xmlns="http://www.w3.org/2000/svg">
<mask id="mask0" mask-type="alpha" maskUnits="userSpaceOnUse" x="0" y="0" width="35" height="35">
<rect x="0.5" y="0.5" width="34" height="34" fill="#C4C4C4" stroke="#165F88"/>
</mask>
<g mask="url(#mask0)">
<path d="M9.23842 4.85632L6.96973 20.2617L17.164 28.6436L30.5302 17.0899L9.23842 4.85632Z" fill="white" stroke="#165F88" stroke-width="2"/>
<path d="M5.98154 23.0322C7.65227 23.4487 9.34435 22.432 9.76091 20.7613C10.1775 19.0906 9.16077 17.3985 7.49004 16.9819C5.81931 16.5654 4.12723 17.5821 3.71067 19.2528C3.29411 20.9235 4.31081 22.6156 5.98154 23.0322Z" fill="white" stroke="#165F88"/>
<path d="M6.07234 22.6707C7.54342 23.0375 9.03329 22.1423 9.40007 20.6712C9.76685 19.2001 8.87164 17.7103 7.40057 17.3435C5.9295 16.9767 4.43962 17.8719 4.07285 19.343C3.70607 20.8141 4.60127 22.3039 6.07234 22.6707Z" fill="white" stroke="#165F88" stroke-width="2"/>
<path d="M16.4525 31.758C18.1232 32.1745 19.8153 31.1578 20.2319 29.4871C20.6484 27.8164 19.6317 26.1243 17.961 25.7077C16.2903 25.2911 14.5982 26.3079 14.1816 27.9786C13.7651 29.6493 14.7818 31.3414 16.4525 31.758Z" fill="white" stroke="#165F88"/>
<path d="M16.5435 31.3964C18.0146 31.7632 19.5045 30.868 19.8713 29.3969C20.238 27.9259 19.3428 26.436 17.8718 26.0692C16.4007 25.7024 14.9108 26.5976 14.544 28.0687C14.1773 29.5398 15.0725 31.0297 16.5435 31.3964Z" fill="white" stroke="#165F88" stroke-width="2"/>
<path d="M29.5411 20.4144C31.2118 20.831 32.9039 19.8143 33.3205 18.1436C33.737 16.4728 32.7203 14.7808 31.0496 14.3642C29.3789 13.9476 27.6868 14.9643 27.2702 16.6351C26.8537 18.3058 27.8704 19.9979 29.5411 20.4144Z" fill="white" stroke="#165F88"/>
<path d="M29.6309 20.0529C31.102 20.4197 32.5919 19.5245 32.9587 18.0534C33.3254 16.5824 32.4302 15.0925 30.9592 14.7257C29.4881 14.3589 27.9982 15.2541 27.6314 16.7252C27.2647 18.1963 28.1599 19.6861 29.6309 20.0529Z" fill="white" stroke="#165F88" stroke-width="2"/>
<path d="M8.59922 8.19838C10.2699 8.61494 11.962 7.59824 12.3786 5.92751C12.7951 4.25678 11.7784 2.5647 10.1077 2.14814C8.43698 1.73158 6.7449 2.74828 6.32834 4.41901C5.91178 6.08974 6.92849 7.78182 8.59922 8.19838Z" fill="white" stroke="#165F88"/>
<path d="M8.6888 7.8368C10.1599 8.20358 11.6497 7.30837 12.0165 5.8373C12.3833 4.36623 11.4881 2.87635 10.017 2.50957C8.54595 2.14279 7.05608 3.038 6.6893 4.50907C6.32252 5.98015 7.21773 7.47002 8.6888 7.8368Z" fill="white" stroke="#165F88" stroke-width="2"/>
</g>
</svg>
