<svg width="11" height="11" viewBox="0 0 11 11" fill="none" xmlns="http://www.w3.org/2000/svg">
<path d="M5.97147 0.81615L0.93439 0.0507336C0.70064 0.014067 0.462306 0.0782336 0.283556 0.229484C0.104806 0.385317 -0.000610352 0.6099 -0.000610352 0.84365V10.5007C-0.000610352 10.7528 0.20564 10.9591 0.457723 10.9591H1.94731V8.55281C1.94731 8.10823 2.30481 7.75073 2.74939 7.75073H3.89522C4.33981 7.75073 4.69731 8.10823 4.69731 8.55281V10.9591H6.64522V1.60907C6.64522 1.2149 6.36106 0.880316 5.97147 0.81615ZM2.52022 6.71948H1.83272C1.64297 6.71948 1.48897 6.56548 1.48897 6.37573C1.48897 6.18598 1.64297 6.03198 1.83272 6.03198H2.52022C2.70997 6.03198 2.86397 6.18598 2.86397 6.37573C2.86397 6.56548 2.70997 6.71948 2.52022 6.71948ZM2.52022 5.34448H1.83272C1.64297 5.34448 1.48897 5.19048 1.48897 5.00073C1.48897 4.81098 1.64297 4.65698 1.83272 4.65698H2.52022C2.70997 4.65698 2.86397 4.81098 2.86397 5.00073C2.86397 5.19048 2.70997 5.34448 2.52022 5.34448ZM2.52022 3.96948H1.83272C1.64297 3.96948 1.48897 3.81548 1.48897 3.62573C1.48897 3.43598 1.64297 3.28198 1.83272 3.28198H2.52022C2.70997 3.28198 2.86397 3.43598 2.86397 3.62573C2.86397 3.81548 2.70997 3.96948 2.52022 3.96948ZM2.52022 2.59448H1.83272C1.64297 2.59448 1.48897 2.44048 1.48897 2.25073C1.48897 2.06098 1.64297 1.90698 1.83272 1.90698H2.52022C2.70997 1.90698 2.86397 2.06098 2.86397 2.25073C2.86397 2.44048 2.70997 2.59448 2.52022 2.59448ZM4.81189 6.71948H4.12439C3.93464 6.71948 3.78064 6.56548 3.78064 6.37573C3.78064 6.18598 3.93464 6.03198 4.12439 6.03198H4.81189C5.00164 6.03198 5.15564 6.18598 5.15564 6.37573C5.15564 6.56548 5.00164 6.71948 4.81189 6.71948ZM4.81189 5.34448H4.12439C3.93464 5.34448 3.78064 5.19048 3.78064 5.00073C3.78064 4.81098 3.93464 4.65698 4.12439 4.65698H4.81189C5.00164 4.65698 5.15564 4.81098 5.15564 5.00073C5.15564 5.19048 5.00164 5.34448 4.81189 5.34448ZM4.81189 3.96948H4.12439C3.93464 3.96948 3.78064 3.81548 3.78064 3.62573C3.78064 3.43598 3.93464 3.28198 4.12439 3.28198H4.81189C5.00164 3.28198 5.15564 3.43598 5.15564 3.62573C5.15564 3.81548 5.00164 3.96948 4.81189 3.96948ZM4.81189 2.59448H4.12439C3.93464 2.59448 3.78064 2.44048 3.78064 2.25073C3.78064 2.06098 3.93464 1.90698 4.12439 1.90698H4.81189C5.00164 1.90698 5.15564 2.06098 5.15564 2.25073C5.15564 2.44048 5.00164 2.59448 4.81189 2.59448Z" fill="#707070"/>
<path d="M10.3682 4.92861L7.10486 4.24524V10.9594H10.1986C10.6409 10.9594 11.0007 10.5996 11.0007 10.1573V5.71236C11.0007 5.33378 10.7426 5.01157 10.3682 4.92861ZM9.28194 9.58437H8.59444C8.40469 9.58437 8.25069 9.43037 8.25069 9.24062C8.25069 9.05087 8.40469 8.89687 8.59444 8.89687H9.28194C9.47169 8.89687 9.62569 9.05087 9.62569 9.24062C9.62569 9.43037 9.47169 9.58437 9.28194 9.58437ZM9.28194 8.20937H8.59444C8.40469 8.20937 8.25069 8.05537 8.25069 7.86562C8.25069 7.67587 8.40469 7.52187 8.59444 7.52187H9.28194C9.47169 7.52187 9.62569 7.67587 9.62569 7.86562C9.62569 8.05537 9.47169 8.20937 9.28194 8.20937ZM9.28194 6.83436H8.59444C8.40469 6.83436 8.25069 6.68036 8.25069 6.49061C8.25069 6.30086 8.40469 6.14686 8.59444 6.14686H9.28194C9.47169 6.14686 9.62569 6.30086 9.62569 6.49061C9.62569 6.68036 9.47169 6.83436 9.28194 6.83436Z" fill="#707070"/>
</svg>
