<svg width="45" height="45" viewBox="0 0 45 45" fill="none" xmlns="http://www.w3.org/2000/svg">
<path d="M14.9025 22.5154C14.0851 22.5154 13.3499 23.0129 13.0459 23.7717L10.2619 30.7217C9.73557 32.0356 10.7031 33.4655 12.1185 33.4655H32.8378C34.2756 33.4655 35.2437 31.9935 34.6742 30.6732L31.676 23.7232C31.3597 22.9902 30.6379 22.5154 29.8396 22.5154H14.9025Z" stroke="white" stroke-width="2"/>
<path d="M14.9853 26.8378L15.7436 25.1528C15.8243 24.9733 16.0028 24.8579 16.1995 24.8579H18.9501C19.2754 24.8579 19.5141 25.1636 19.4352 25.4792L19.0139 27.1642C18.9583 27.3868 18.7583 27.543 18.5289 27.543H15.4413C15.0784 27.543 14.8364 27.1686 14.9853 26.8378Z" fill="white" fill-opacity="0.61"/>
<path d="M13.6711 30.4054L14.4855 28.7204C14.5689 28.5477 14.7438 28.438 14.9356 28.438H18.0005C18.3418 28.438 18.5828 28.7723 18.4749 29.0961L17.9132 30.7811C17.8451 30.9853 17.6541 31.123 17.4389 31.123H14.1212C13.7525 31.123 13.5106 30.7374 13.6711 30.4054Z" fill="white" fill-opacity="0.61"/>
<path d="M30.0035 26.8346L29.2312 25.1496C29.1497 24.9719 28.9721 24.8579 28.7766 24.8579H26.0812C25.7452 24.8579 25.5048 25.1827 25.603 25.5041L26.1179 27.1891C26.1821 27.3993 26.3762 27.543 26.5961 27.543H29.5489C29.9133 27.543 30.1553 27.1658 30.0035 26.8346Z" fill="white" fill-opacity="0.61"/>
<path d="M31.7902 30.412L31.0059 28.727C30.9239 28.5507 30.7471 28.438 30.5526 28.438H26.9382C26.6147 28.438 26.3764 28.7405 26.4521 29.055L26.8578 30.74C26.9118 30.9646 27.1128 31.123 27.3439 31.123H31.3369C31.7025 31.123 31.9444 30.7434 31.7902 30.412Z" fill="white" fill-opacity="0.61"/>
<path d="M20.6445 25.2313C20.7021 25.0113 20.9008 24.8579 21.1282 24.8579H23.8725C24.0998 24.8579 24.2985 25.0113 24.3561 25.2313L24.7975 26.9163C24.8805 27.2332 24.6414 27.543 24.3138 27.543H20.6869C20.3593 27.543 20.1202 27.2332 20.2032 26.9163L20.6445 25.2313Z" fill="white"/>
<path d="M19.985 28.7698C20.056 28.5708 20.2445 28.438 20.4558 28.438H24.5458C24.7571 28.438 24.9456 28.5708 25.0166 28.7698L25.6184 30.4548C25.7347 30.7804 25.4933 31.123 25.1476 31.123H19.854C19.5083 31.123 19.2669 30.7804 19.3832 30.4548L19.985 28.7698Z" fill="white" fill-opacity="0.61"/>
<path d="M22.6743 10.4174C21.9461 10.4174 21.225 10.5609 20.5522 10.8396C19.8794 11.1183 19.2681 11.5267 18.7531 12.0417C18.2382 12.5566 17.8297 13.1679 17.551 13.8407C17.2723 14.5135 17.1289 15.2346 17.1289 15.9629C17.1289 19.2374 22.6743 25.5616 22.6743 25.5616C22.6743 25.5616 28.2198 19.4807 28.2198 15.9629C28.2198 15.2346 28.0763 14.5135 27.7976 13.8407C27.5189 13.1679 27.1105 12.5566 26.5955 12.0417C26.0806 11.5267 25.4693 11.1183 24.7965 10.8396C24.1237 10.5609 23.4026 10.4174 22.6743 10.4174ZM22.6743 18.1357C22.1997 18.1357 21.7357 17.995 21.341 17.7314C20.9463 17.4677 20.6387 17.0929 20.457 16.6544C20.2753 16.2159 20.2277 15.7334 20.3203 15.2678C20.4129 14.8023 20.6414 14.3747 20.977 14.039C21.3126 13.7034 21.7402 13.4748 22.2058 13.3822C22.6713 13.2895 23.1538 13.3371 23.5924 13.5187C24.0309 13.7003 24.4057 14.0079 24.6694 14.4026C24.9331 14.7972 25.0739 15.2612 25.0739 15.7359C25.0739 16.3723 24.8211 16.9826 24.3711 17.4326C23.9211 17.8826 23.3107 18.1357 22.6743 18.1357Z" fill="#F08300"/>
<circle cx="22.4593" cy="15.4923" r="2.53743" fill="white"/>
<path d="M15.686 13.0028H14.0194V11.4118C14.0194 11.2668 13.9618 11.1277 13.8592 11.0251C13.7567 10.9226 13.6176 10.865 13.4725 10.865C13.3275 10.865 13.1884 10.9226 13.0859 11.0251C12.9833 11.1277 12.9257 11.2668 12.9257 11.4118V13.0028H11.4106C11.2654 13.0028 11.1262 13.0604 11.0236 13.1631C10.9209 13.2657 10.8633 13.4049 10.8633 13.5501C10.8633 13.6952 10.9209 13.8344 11.0236 13.9371C11.1262 14.0397 11.2654 14.0974 11.4106 14.0974H12.9257V15.6881C12.9257 15.8332 12.9833 15.9723 13.0859 16.0748C13.1884 16.1774 13.3275 16.235 13.4725 16.235C13.6176 16.235 13.7567 16.1774 13.8592 16.0748C13.9618 15.9723 14.0194 15.8332 14.0194 15.6881V14.0974H15.686C15.8312 14.0974 15.9704 14.0397 16.073 13.9371C16.1756 13.8344 16.2333 13.6952 16.2333 13.5501C16.2333 13.4049 16.1756 13.2657 16.073 13.1631C15.9704 13.0604 15.8312 13.0028 15.686 13.0028Z" fill="white"/>
</svg>
