<svg width="35" height="35" viewBox="0 0 35 35" fill="none" xmlns="http://www.w3.org/2000/svg">
<mask id="mask0" mask-type="alpha" maskUnits="userSpaceOnUse" x="0" y="0" width="35" height="35">
<rect width="35" height="35" fill="#C4C4C4"/>
</mask>
<g mask="url(#mask0)">
<path d="M17.1191 30.8867C24.8511 30.8867 31.1191 24.6187 31.1191 16.8867C31.1191 9.15473 24.8511 2.88672 17.1191 2.88672C9.38715 2.88672 3.11914 9.15473 3.11914 16.8867C3.11914 24.6187 9.38715 30.8867 17.1191 30.8867Z" fill="#408BC5"/>
<path d="M17.1191 29.8867C24.2988 29.8867 30.1191 24.0664 30.1191 16.8867C30.1191 9.70702 24.2988 3.88672 17.1191 3.88672C9.93944 3.88672 4.11914 9.70702 4.11914 16.8867C4.11914 24.0664 9.93944 29.8867 17.1191 29.8867Z" fill="#408BC5" stroke="white" stroke-width="2"/>
<path d="M16.2885 20.3639C17.8961 20.7648 19.5243 19.7865 19.9251 18.1788C20.3259 16.5712 19.3476 14.943 17.74 14.5422C16.1324 14.1413 14.5042 15.1197 14.1033 16.7273C13.7025 18.3349 14.6808 19.9631 16.2885 20.3639Z" fill="#408BC5"/>
<path d="M16.2886 20.3639C17.8962 20.7647 19.5244 19.7864 19.9253 18.1788C20.3261 16.5711 19.3478 14.9429 17.7401 14.5421C16.1325 14.1413 14.5043 15.1196 14.1035 16.7272C13.7026 18.3349 14.681 19.9631 16.2886 20.3639Z" fill="#408BC5" stroke="white" stroke-width="2"/>
<path d="M28.2885 24.3639C29.8961 24.7648 31.5243 23.7865 31.9251 22.1788C32.3259 20.5712 31.3476 18.943 29.74 18.5422C28.1324 18.1413 26.5042 19.1197 26.1033 20.7273C25.7025 22.3349 26.6808 23.9631 28.2885 24.3639Z" fill="#408BC5"/>
<path d="M28.2886 24.3639C29.8962 24.7647 31.5244 23.7864 31.9253 22.1788C32.3261 20.5711 31.3478 18.9429 29.7401 18.5421C28.1325 18.1413 26.5043 19.1196 26.1035 20.7272C25.7026 22.3349 26.681 23.9631 28.2886 24.3639Z" fill="#408BC5" stroke="white" stroke-width="2"/>
</g>
</svg>
