<svg width="35" height="35" viewBox="0 0 35 35" fill="none" xmlns="http://www.w3.org/2000/svg">
<path fill-rule="evenodd" clip-rule="evenodd" d="M13.6111 9.33339C13.6111 12.1255 11.3477 14.3889 8.55556 14.3889C5.76345 14.3889 3.5 12.1255 3.5 9.33339C3.5 6.54128 5.76345 4.27783 8.55556 4.27783C11.3477 4.27783 13.6111 6.54128 13.6111 9.33339ZM10.5 9.33382C10.5 10.4077 9.62944 11.2783 8.55556 11.2783C7.48167 11.2783 6.61111 10.4077 6.61111 9.33382C6.61111 8.25993 7.48167 7.38938 8.55556 7.38938C9.62944 7.38938 10.5 8.25993 10.5 9.33382Z" fill="white"/>
<path fill-rule="evenodd" clip-rule="evenodd" d="M31.5 25.6666C31.5 28.4587 29.2366 30.7222 26.4445 30.7222C23.6524 30.7222 21.3889 28.4587 21.3889 25.6666C21.3889 22.8745 23.6524 20.6111 26.4445 20.6111C29.2366 20.6111 31.5 22.8745 31.5 25.6666ZM28.3891 25.6664C28.3891 26.7403 27.5186 27.6109 26.4447 27.6109C25.3708 27.6109 24.5002 26.7403 24.5002 25.6664C24.5002 24.5925 25.3708 23.722 26.4447 23.722C27.5186 23.722 28.3891 24.5925 28.3891 25.6664Z" fill="white"/>
<path d="M10.8889 11.6667L23.3334 22.5556" stroke="white" stroke-width="6"/>
</svg>
