<svg width="18" height="17" viewBox="0 0 18 17" fill="none" xmlns="http://www.w3.org/2000/svg">
<path d="M1.16474 8.93115H2.61034C2.99023 11.8103 5.24689 14.0759 8.11484 14.4572V15.9085C8.11533 16.0625 8.23958 16.1871 8.39286 16.1876H9.50496C9.65824 16.1871 9.78249 16.0625 9.78298 15.9085V14.4572C12.6509 14.0759 14.9076 11.8103 15.2875 8.93115H16.7331C16.8865 8.93066 17.0106 8.80592 17.0111 8.65204V7.53558C17.0106 7.3817 16.8865 7.25696 16.7331 7.25647H15.2875C14.9076 4.37727 12.6509 2.11176 9.78298 1.73038V0.279114C9.78249 0.125107 9.65824 0.000494007 9.50496 0H8.39286C8.23958 0.000494007 8.11533 0.125107 8.11484 0.279114V1.73038C5.24689 2.11176 2.99023 4.37727 2.61034 7.25647H1.16474C1.01134 7.25696 0.887211 7.3817 0.886719 7.53558V8.65204C0.887211 8.80592 1.01134 8.93066 1.16474 8.93115ZM8.94891 3.34912C11.559 3.34912 13.6751 5.47347 13.6751 8.09381C13.6751 10.7141 11.559 12.8385 8.94891 12.8385C6.33881 12.8385 4.22276 10.7141 4.22276 8.09381C4.22645 5.47496 6.34029 3.35283 8.94891 3.34912Z" fill="#333333"/>
<path d="M11.1747 8.09412C11.1747 9.32728 10.179 10.3269 8.95063 10.3269C7.72228 10.3269 6.72656 9.32728 6.72656 8.09412C6.72656 6.86095 7.72228 5.86133 8.95063 5.86133C10.179 5.86133 11.1747 6.86095 11.1747 8.09412Z" fill="#333333"/>
</svg>
