<svg width="46" height="45" viewBox="0 0 46 45" fill="none" xmlns="http://www.w3.org/2000/svg">
<path d="M35.1759 26.4209L34.0529 25.829L23.7723 31.2479C23.4869 31.3984 23.1842 31.4746 22.8725 31.4746C22.5608 31.4746 22.258 31.3984 21.9728 31.2482L11.6914 25.829L10.5682 26.4209C10.2966 26.5641 10.1211 26.8871 10.1211 27.2437C10.1211 27.6005 10.2966 27.9233 10.5682 28.0665L22.5724 34.3939C22.6682 34.4442 22.7703 34.4694 22.8725 34.4694C22.9746 34.4694 23.0769 34.4442 23.1725 34.3939L35.1759 28.0665C35.4476 27.9233 35.6231 27.6005 35.6231 27.2437C35.6231 26.8871 35.4476 26.5641 35.1759 26.4209Z" fill="white"/>
<path d="M35.1759 21.6296L34.0529 21.0377L23.7723 26.4567C23.4869 26.6073 23.1842 26.6836 22.8725 26.6836C22.5608 26.6836 22.258 26.6073 21.9728 26.4569L11.6914 21.0377L10.5682 21.6298C10.2966 21.773 10.1211 22.0959 10.1211 22.4526C10.1211 22.8092 10.2966 23.132 10.5682 23.2754L22.5724 29.6026C22.6682 29.6531 22.7703 29.6782 22.8725 29.6782C22.9746 29.6782 23.0769 29.6531 23.1725 29.6026L35.1759 23.2754C35.4476 23.132 35.6231 22.8092 35.6231 22.4526C35.6231 22.0959 35.4476 21.773 35.1759 21.6296Z" fill="white"/>
<path d="M10.5682 18.4837L22.5724 24.8111C22.6682 24.8614 22.7703 24.8867 22.8725 24.8867C22.9746 24.8867 23.0769 24.8614 23.1725 24.8111L35.1759 18.4837C35.4476 18.3406 35.6231 18.0175 35.6231 17.6609C35.6231 17.3042 35.4476 16.9813 35.1759 16.8381L23.1717 10.5108C22.9804 10.4099 22.7629 10.4102 22.5717 10.5108L10.5682 16.8381C10.2966 16.9813 10.1211 17.3042 10.1211 17.6609C10.1211 18.0177 10.2966 18.3406 10.5682 18.4837Z" fill="white"/>
</svg>
