<svg width="15" height="13" viewBox="0 0 15 13" fill="none" xmlns="http://www.w3.org/2000/svg">
<path d="M12.5203 7.12225C12.4843 7.10409 12.4482 7.09502 12.4119 7.09502C12.3336 7.09502 12.2646 7.12507 12.2045 7.18528L11.6272 7.76251C11.5732 7.81669 11.5461 7.88275 11.5461 7.961V10.2519C11.5461 10.6488 11.4051 10.9884 11.1223 11.2712C10.8397 11.5538 10.4999 11.6951 10.103 11.6951H2.59846C2.20153 11.6951 1.86176 11.5538 1.57916 11.2712C1.2965 10.9885 1.15525 10.6489 1.15525 10.2519V2.74747C1.15525 2.35061 1.2965 2.01086 1.57916 1.72817C1.86176 1.44554 2.20153 1.30426 2.59846 1.30426H10.1031C10.2354 1.30426 10.3707 1.3223 10.509 1.35841C10.5451 1.37035 10.5721 1.37645 10.5899 1.37645C10.6682 1.37645 10.7374 1.34647 10.7975 1.28635L11.2395 0.84437C11.3116 0.772307 11.3387 0.685049 11.3205 0.58291C11.3025 0.486679 11.2483 0.417491 11.1581 0.375442C10.8336 0.225314 10.4817 0.149902 10.1028 0.149902H2.59846C1.88289 0.149902 1.27101 0.40397 0.762871 0.912104C0.2548 1.4203 0.000732422 2.03209 0.000732422 2.7477V10.2523C0.000732422 10.9678 0.2548 11.5796 0.762903 12.0878C1.27104 12.596 1.88292 12.8501 2.59849 12.8501H10.103C10.8185 12.8501 11.4304 12.596 11.9386 12.0878C12.4467 11.5796 12.701 10.9678 12.701 10.2523V7.38378C12.701 7.2576 12.6405 7.17046 12.5203 7.12225Z" fill="#46AA58"/>
<path d="M14.7828 1.94488L13.7905 0.952586C13.6462 0.808302 13.4747 0.736145 13.2762 0.736145C13.078 0.736145 12.9064 0.808302 12.7622 0.952586L6.92621 6.78852L4.55411 4.41627C4.40977 4.27189 4.23835 4.19983 4.03998 4.19983C3.84157 4.19983 3.67022 4.27189 3.52584 4.41627L2.53367 5.40843C2.38936 5.55275 2.31714 5.72417 2.31714 5.92266C2.31714 6.12107 2.38936 6.29242 2.53367 6.4368L6.4122 10.3153C6.55654 10.4597 6.72796 10.5318 6.92633 10.5318C7.1247 10.5318 7.29609 10.4598 7.44047 10.3153L14.7827 2.97312C14.9269 2.82884 14.9992 2.65738 14.9992 2.45898C14.9992 2.26058 14.9271 2.08916 14.7828 1.94488Z" fill="#46AA58"/>
</svg>
