<svg width="24" height="20" viewBox="0 0 24 20" fill="none" xmlns="http://www.w3.org/2000/svg">
<path d="M12 5.44106V1.78535C11.9995 1.50303 11.9155 1.22717 11.7585 0.992517C11.6015 0.757868 11.3786 0.574937 11.1178 0.466776C10.8571 0.358615 10.5701 0.330065 10.2931 0.384723C10.0162 0.439382 9.76155 0.574803 9.56141 0.773921L0.571411 9.64249L9.56141 18.5096C9.69377 18.6428 9.85115 18.7484 10.0245 18.8205C10.1978 18.8926 10.3837 18.9297 10.5714 18.9297C10.7591 18.9297 10.945 18.8926 11.1183 18.8205C11.2917 18.7484 11.449 18.6428 11.5814 18.5096C11.7141 18.3771 11.8194 18.2196 11.8912 18.0463C11.9631 17.873 12 17.6872 12 17.4996V13.9439C15.9286 14.0411 20.2214 14.7525 23.4286 19.6425V18.2139C23.4286 11.5954 18.4286 6.15249 12 5.44106Z" fill="#408BC5"/>
</svg>
