<svg width="17" height="15" viewBox="0 0 17 15" fill="none" xmlns="http://www.w3.org/2000/svg">
<path d="M15.9467 11.2386L10.0454 1.86068C9.87967 1.59712 9.65006 1.37995 9.37798 1.22944C9.10591 1.07894 8.80024 1 8.48951 1C8.17877 1 7.8731 1.07894 7.60103 1.22944C7.32896 1.37995 7.09935 1.59712 6.93363 1.86068L1.0681 11.2386V11.2566C0.90478 11.5335 0.818652 11.8493 0.818726 12.1711C0.820754 12.6555 1.01359 13.1195 1.35523 13.4621C1.69687 13.8046 2.15965 13.998 2.64279 14H14.3559C14.8391 13.998 15.3019 13.8046 15.6435 13.4621C15.9852 13.1195 16.178 12.6555 16.18 12.1711C16.1923 11.8443 16.1113 11.5209 15.9467 11.2386ZM14.3729 12.9241H2.64189C2.44306 12.9229 2.25271 12.8432 2.11211 12.7022C1.97151 12.5613 1.892 12.3704 1.89081 12.1711C1.8928 12.0462 1.92336 11.9235 1.98013 11.8124L7.86358 2.45259C7.93166 2.34289 8.0265 2.25239 8.13916 2.18965C8.25181 2.1269 8.37855 2.09397 8.50742 2.09397C8.63628 2.09397 8.76302 2.1269 8.87567 2.18965C8.98832 2.25239 9.08317 2.34289 9.15126 2.45259L15.0347 11.7951C15.1017 11.9087 15.1328 12.04 15.124 12.1717C15.1226 12.371 15.0431 12.5617 14.9025 12.7025C14.7619 12.8433 14.5717 12.9229 14.3729 12.9241Z" fill="#FF3737"/>
<path d="M8.5082 10.5034C8.41152 10.5007 8.31535 10.5184 8.22598 10.5555C8.1366 10.5926 8.05602 10.6481 7.9895 10.7185C7.92066 10.7862 7.86618 10.8672 7.82933 10.9566C7.79248 11.046 7.77401 11.1419 7.77503 11.2386C7.76782 11.3403 7.78517 11.4424 7.82562 11.536C7.86607 11.6296 7.92842 11.7121 8.00741 11.7764C8.1504 11.9035 8.33488 11.9737 8.52599 11.9737C8.7171 11.9737 8.90159 11.9035 9.04458 11.7764C9.11785 11.7083 9.17512 11.6247 9.21225 11.5317C9.24937 11.4387 9.26544 11.3386 9.25927 11.2386C9.26025 11.1419 9.24174 11.0459 9.20485 10.9566C9.16796 10.8672 9.11344 10.7862 9.04458 10.7185C8.89938 10.5813 8.70769 10.5045 8.5082 10.5034Z" fill="#FF3737"/>
<path d="M8.54299 4.49658C8.43637 4.49114 8.32986 4.5092 8.23096 4.54949C8.13206 4.58979 8.04317 4.65134 7.97056 4.7298C7.81811 4.90878 7.74119 5.14025 7.7561 5.37514C7.7561 5.57245 7.77401 5.91319 7.79192 6.36144L7.95288 8.72821C7.96586 8.96147 8.0141 9.1914 8.09593 9.41014C8.12857 9.4818 8.18164 9.54218 8.24845 9.58364C8.31526 9.62511 8.39282 9.64581 8.47135 9.64313C8.55056 9.64952 8.62973 9.63036 8.69731 9.58845C8.76489 9.54653 8.81733 9.48406 8.847 9.41014C8.93336 9.19916 8.9818 8.97452 8.99005 8.74662L9.22242 6.30803C9.24033 6.07503 9.25824 5.85977 9.25824 5.64473C9.27048 5.3568 9.22172 5.06953 9.11519 4.80186C9.06303 4.69788 8.97998 4.61267 8.8775 4.558C8.77502 4.50332 8.65815 4.48186 8.54299 4.49658Z" fill="#FF3737"/>
</svg>
