<svg width="14" height="14" viewBox="0 0 14 14" fill="none" xmlns="http://www.w3.org/2000/svg">
<path d="M0.219324 7.00002H2.40682C2.40682 5.73105 2.92089 4.58261 3.75214 3.75136L2.20557 2.20502C0.978387 3.43199 0.219324 5.1273 0.219324 7.00002Z" fill="#F6BB42"/>
<path d="M2.40682 7H0.219324C0.219324 8.87031 0.976199 10.5656 2.20557 11.7926L3.75214 10.2482C2.92089 9.41719 2.40682 8.26875 2.40682 7Z" fill="#8CC152"/>
<path d="M2.205 11.7926V11.795C3.43219 13.022 5.12531 13.7813 7 13.7813V11.5938C5.73125 11.5938 4.58281 11.0795 3.75156 10.2484L2.205 11.7926Z" fill="#37BC9B"/>
<path d="M2.205 2.205L3.75156 3.75134C4.58281 2.92031 5.73125 2.40625 7 2.40625V0.21875C5.12531 0.21875 3.43219 0.977812 2.205 2.205Z" fill="#E9573F"/>
<path d="M2.40543 7H4.59074H4.59293C4.59293 6.335 4.86199 5.73343 5.2973 5.29812L3.75096 3.75156C2.91949 4.58259 2.40543 5.73103 2.40543 7Z" fill="#FFCE54"/>
<path d="M5.29813 8.70166L3.75178 10.2482C4.58281 11.0795 5.73125 11.5938 7 11.5938V9.40625C6.335 9.40625 5.73344 9.13719 5.29813 8.70166Z" fill="#48CFAD"/>
<path d="M6.99943 11.5938V13.7813C8.87193 13.7813 10.5672 13.022 11.7944 11.795L10.2479 10.2484C9.41662 11.0795 8.26599 11.5938 6.99943 11.5938Z" fill="#4A89DC"/>
<path d="M6.99943 9.40625V11.5937C8.26599 11.5937 9.41661 11.0795 10.2479 10.2484L8.70152 8.70187C8.26599 9.13719 7.66224 9.40625 6.99943 9.40625Z" fill="#5D9CEC"/>
<path d="M7.00159 2.40625V4.59375C7.66441 4.59375 8.26597 4.86259 8.70128 5.29812H8.70347L10.2498 3.75156C9.41878 2.92031 8.26816 2.40625 7.00159 2.40625Z" fill="#ED5565"/>
<path d="M10.2484 10.2484L11.795 11.795C13.0222 10.5678 13.7812 8.8725 13.7812 7H11.5938C11.5938 8.26875 11.0797 9.41719 10.2484 10.2484Z" fill="#967ADC"/>
<path d="M4.59139 7H2.40608C2.40608 8.26875 2.92014 9.41719 3.75139 10.2484L5.29773 8.70187C4.86264 8.26656 4.59357 7.66259 4.59357 7H4.59139Z" fill="#A0D468"/>
<path d="M10.2484 3.75134L8.70209 5.29791C9.13719 5.73344 9.40625 6.335 9.40625 7H11.5938C11.5938 5.73103 11.0797 4.58259 10.2484 3.75134Z" fill="#EC87C0"/>
<path d="M8.70188 8.70166L10.2482 10.2482C11.0797 9.41719 11.5938 8.26875 11.5938 7H9.40625C9.40625 7.66259 9.13719 8.26656 8.70188 8.70166Z" fill="#AC92EC"/>
<path d="M11.795 2.20502L10.2484 3.75136C11.0797 4.58261 11.5938 5.73105 11.5938 7.00002H13.7812C13.7812 5.1273 13.0222 3.43199 11.795 2.20502Z" fill="#D770AD"/>
<path d="M3.75156 3.75134L5.29791 5.29791C5.73344 4.86259 6.335 4.59375 7 4.59375V2.40625C5.73125 2.40625 4.58281 2.92031 3.75156 3.75134Z" fill="#FC6E51"/>
<path d="M6.99943 0.21875V2.40625C8.26599 2.40625 9.41662 2.92031 10.2479 3.75134L11.7944 2.205C10.5672 0.977812 8.87193 0.21875 6.99943 0.21875Z" fill="#DA4453"/>
</svg>
