<svg width="35" height="35" viewBox="0 0 35 35" fill="none" xmlns="http://www.w3.org/2000/svg">
<mask id="mask0" mask-type="alpha" maskUnits="userSpaceOnUse" x="0" y="0" width="35" height="35">
<rect x="0.5" y="0.5" width="34" height="34" fill="#C4C4C4" stroke="#F08300"/>
</mask>
<g mask="url(#mask0)">
<path d="M30.2273 10.7235L9.85107 5.64319L5.01264 25.0491L25.3888 30.1295L30.2273 10.7235Z" fill="white" stroke="#F08300"/>
<path d="M29.0152 11.4519L10.5796 6.85541L6.225 24.3207L24.6606 28.9172L29.0152 11.4519Z" stroke="#F08300" stroke-width="2"/>
<path d="M9.73293 10.2514C11.6085 10.7191 13.5081 9.57771 13.9757 7.70213C14.4433 5.82655 13.302 3.927 11.4264 3.45937C9.5508 2.99173 7.65125 4.1331 7.18362 6.00868C6.71598 7.88425 7.85735 9.7838 9.73293 10.2514Z" fill="white" stroke="#F08300"/>
<path d="M9.85403 9.76629C11.4617 10.1671 13.0899 9.18881 13.4907 7.58117C13.8915 5.97353 12.9132 4.34535 11.3056 3.94452C9.69792 3.54369 8.06974 4.522 7.66891 6.12964C7.26808 7.73728 8.24639 9.36546 9.85403 9.76629Z" stroke="#F08300" stroke-width="2"/>
<path d="M23.814 32.3133C25.6896 32.7809 27.5891 31.6395 28.0567 29.764C28.5244 27.8884 27.383 25.9888 25.5074 25.5212C23.6319 25.0536 21.7323 26.1949 21.2647 28.0705C20.797 29.9461 21.9384 31.8456 23.814 32.3133Z" fill="white" stroke="#F08300"/>
<path d="M23.9351 31.8281C25.5427 32.2289 27.1709 31.2506 27.5717 29.643C27.9726 28.0354 26.9943 26.4072 25.3866 26.0063C23.779 25.6055 22.1508 26.5838 21.75 28.1915C21.3491 29.7991 22.3274 31.4273 23.9351 31.8281Z" stroke="#F08300" stroke-width="2"/>
<path d="M5.37843 27.7168C7.25401 28.1844 9.15356 27.043 9.6212 25.1675C10.0888 23.2919 8.94747 21.3923 7.07189 20.9247C5.19631 20.4571 3.29676 21.5984 2.82913 23.474C2.36149 25.3496 3.50286 27.2491 5.37843 27.7168Z" fill="white" stroke="#F08300"/>
<path d="M5.49954 27.2316C7.10718 27.6325 8.73536 26.6541 9.13619 25.0465C9.53702 23.4389 8.55871 21.8107 6.95107 21.4098C5.34343 21.009 3.71524 21.9873 3.31442 23.595C2.91359 25.2026 3.8919 26.8308 5.49954 27.2316Z" stroke="#F08300" stroke-width="2"/>
<path d="M28.1685 14.8479C30.0441 15.3156 31.9436 14.1742 32.4112 12.2986C32.8789 10.423 31.7375 8.5235 29.8619 8.05586C27.9863 7.58823 26.0868 8.72959 25.6192 10.6052C25.1515 12.4808 26.2929 14.3803 28.1685 14.8479Z" fill="white" stroke="#F08300"/>
<path d="M28.2896 14.3628C29.8972 14.7636 31.5254 13.7853 31.9262 12.1777C32.3271 10.57 31.3487 8.94184 29.7411 8.54101C28.1335 8.14018 26.5053 9.1185 26.1045 10.7261C25.7036 12.3338 26.6819 13.962 28.2896 14.3628Z" stroke="#F08300" stroke-width="2"/>
</g>
</svg>
