<svg width="45" height="45" viewBox="0 0 45 45" fill="none" xmlns="http://www.w3.org/2000/svg">
<path d="M38.9552 27.3687V36.3252C38.8583 36.6242 38.7321 36.9128 38.5785 37.187C38.3974 37.4467 38.1526 37.6555 37.8676 37.7934C37.5827 37.9313 37.267 37.9936 36.951 37.9745C32.0218 37.9713 27.0927 37.9713 22.1638 37.9745C22.1028 37.9745 22.0418 37.9745 21.9808 37.9713C21.7112 37.9602 21.4472 37.8916 21.2064 37.7701C20.9656 37.6486 20.7536 37.4769 20.5847 37.2666C20.3706 36.9915 20.2251 36.6693 20.1602 36.3268V27.3687C20.1697 27.3538 20.1856 27.34 20.1883 27.3241C20.2721 26.8697 20.5166 26.4606 20.877 26.1715C21.2375 25.8823 21.6899 25.7325 22.1516 25.7492C22.8234 25.7725 23.4968 25.7539 24.168 25.7534C24.3712 25.7696 24.5735 25.7133 24.7392 25.5947C24.9049 25.476 25.0232 25.3025 25.0733 25.105C25.2452 24.5899 25.4172 24.0747 25.5891 23.5592C25.6407 23.372 25.7546 23.2078 25.9118 23.0937C26.0691 22.9797 26.2605 22.9225 26.4545 22.9315C28.5215 22.9315 30.5884 22.9315 32.655 22.9315C32.8491 22.9224 33.0406 22.9796 33.198 23.0937C33.3553 23.2078 33.4692 23.3719 33.521 23.5592C33.6951 24.0798 33.8675 24.6014 34.0421 25.122C34.0939 25.3126 34.2098 25.4795 34.3704 25.5945C34.531 25.7096 34.7263 25.7657 34.9235 25.7534C35.651 25.7534 36.379 25.747 37.1065 25.7566C37.3733 25.7598 37.6362 25.8213 37.8769 25.9366C38.1176 26.0518 38.3302 26.2182 38.4999 26.4241C38.7227 26.6995 38.8786 27.0228 38.9552 27.3687ZM29.5582 36.0907C30.4875 36.0904 31.3959 35.8144 32.1683 35.2977C32.9407 34.781 33.5425 34.0468 33.8975 33.188C34.2525 32.3292 34.3448 31.3843 34.1627 30.473C33.9806 29.5618 33.5323 28.725 32.8745 28.0686C32.2166 27.4121 31.3789 26.9656 30.4672 26.7855C29.5555 26.6053 28.6109 26.6996 27.7528 27.0565C26.8948 27.4134 26.1619 28.0167 25.6468 28.7903C25.1318 29.5638 24.8578 30.4727 24.8595 31.402C24.8652 32.6455 25.3624 33.8363 26.2426 34.7146C27.1229 35.593 28.3147 36.0876 29.5582 36.0907ZM35.7619 28.2851C35.7594 28.3729 35.7745 28.4604 35.8064 28.5423C35.8383 28.6243 35.8863 28.699 35.9476 28.762C36.0089 28.825 36.0822 28.8751 36.1632 28.9094C36.2441 28.9436 36.3312 28.9612 36.4191 28.9612C36.507 28.9612 36.594 28.9436 36.675 28.9094C36.7559 28.8751 36.8292 28.825 36.8905 28.762C36.9518 28.699 36.9998 28.6243 37.0317 28.5423C37.0636 28.4604 37.0787 28.3729 37.0763 28.2851C37.0714 28.114 37 27.9516 36.8773 27.8323C36.7546 27.713 36.5902 27.6463 36.4191 27.6463C36.2479 27.6463 36.0835 27.713 35.9608 27.8323C35.8381 27.9516 35.7667 28.114 35.7619 28.2851ZM32.3785 31.3999C32.3815 30.8412 32.2185 30.2942 31.9102 29.8283C31.602 29.3623 31.1623 28.9984 30.6469 28.7826C30.1316 28.5668 29.5638 28.5089 29.0155 28.6162C28.4672 28.7234 27.9631 28.9911 27.5671 29.3851C27.1711 29.7792 26.901 30.282 26.791 30.8298C26.681 31.3775 26.7362 31.9456 26.9495 32.462C27.1627 32.9784 27.5245 33.4198 27.9889 33.7304C28.4534 34.0409 28.9995 34.2066 29.5582 34.2064C30.3036 34.2057 31.0185 33.9103 31.5469 33.3845C32.0752 32.8587 32.3742 32.1453 32.3785 31.3999Z" fill="#408BC5"/>
<path d="M11.174 15.5551V13.1948C11.1781 12.8061 11.2856 12.4254 11.4854 12.0919C11.6853 11.7585 11.9703 11.4842 12.3111 11.2973H14.7314C15.0944 11.2973 15.4425 11.1531 15.6992 10.8964C15.9559 10.6397 16.1001 10.2915 16.1001 9.92849C16.1001 9.56547 15.9559 9.21732 15.6992 8.96063C15.4425 8.70394 15.0944 8.55972 14.7314 8.55972H12.3111C10.5563 8.55972 8.4375 10.6292 8.4375 13.1948V15.5556C8.44456 15.914 8.59187 16.2553 8.84779 16.5062C9.10372 16.7571 9.44785 16.8977 9.80627 16.8977C10.1647 16.8977 10.5088 16.7571 10.7648 16.5062C11.0207 16.2553 11.168 15.914 11.175 15.5556L11.174 15.5551Z" fill="#408BC5"/>
<path d="M11.1753 22.9307V20.4977C11.1683 20.1394 11.0209 19.7981 10.765 19.5472C10.5091 19.2962 10.165 19.1557 9.80654 19.1557C9.44811 19.1557 9.10398 19.2962 8.84806 19.5472C8.59213 19.7981 8.44482 20.1394 8.43777 20.4977V22.9307C8.43418 23.1127 8.46694 23.2936 8.53411 23.4628C8.60129 23.632 8.70154 23.7861 8.829 23.9161C8.95646 24.0461 9.10856 24.1494 9.27641 24.2199C9.44426 24.2904 9.62449 24.3267 9.80654 24.3267C9.98859 24.3267 10.1688 24.2904 10.3367 24.2199C10.5045 24.1494 10.6566 24.0461 10.7841 23.9161C10.9115 23.7861 11.0118 23.632 11.079 23.4628C11.1461 23.2936 11.1789 23.1127 11.1753 22.9307Z" fill="#408BC5"/>
<path d="M17.622 33.8754C17.622 33.5123 17.4777 33.1641 17.221 32.9074C16.9643 32.6506 16.616 32.5064 16.2529 32.5064H13.0734C12.5702 32.506 12.0877 32.3059 11.7319 31.9502C11.376 31.5944 11.1759 31.112 11.1753 30.6088V28.0257C11.1789 27.8437 11.1461 27.6628 11.079 27.4936C11.0118 27.3244 10.9115 27.1703 10.7841 27.0403C10.6566 26.9103 10.5045 26.807 10.3367 26.7365C10.1688 26.666 9.98859 26.6297 9.80654 26.6297C9.62449 26.6297 9.44426 26.666 9.27641 26.7365C9.10856 26.807 8.95646 26.9103 8.829 27.0403C8.70154 27.1703 8.60129 27.3244 8.53411 27.4936C8.46694 27.6628 8.43418 27.8437 8.43777 28.0257V30.6088C8.43931 31.8378 8.92822 33.0159 9.79725 33.8848C10.6663 34.7538 11.8445 35.2425 13.0734 35.2439H16.2529C16.4327 35.244 16.6107 35.2087 16.7768 35.1399C16.9429 35.0712 17.0938 34.9704 17.221 34.8433C17.3481 34.7162 17.449 34.5653 17.5178 34.3993C17.5866 34.2332 17.622 34.0552 17.622 33.8754Z" fill="#408BC5"/>
<path d="M35.9133 21.1323V20.0403C35.9063 19.6819 35.759 19.3407 35.503 19.0897C35.2471 18.8388 34.903 18.6982 34.5446 18.6982C34.1861 18.6982 33.842 18.8388 33.5861 19.0897C33.3302 19.3407 33.1828 19.6819 33.1758 20.0403V21.1313C33.1828 21.4896 33.3302 21.8309 33.5861 22.0819C33.842 22.3328 34.1861 22.4734 34.5446 22.4734C34.903 22.4734 35.2471 22.3328 35.503 22.0819C35.759 21.8309 35.9063 21.4896 35.9133 21.1313V21.1323Z" fill="#408BC5"/>
<path d="M35.9108 15.2511V13.1948C35.9093 11.9659 35.4204 10.7878 34.5513 9.91885C33.6823 9.04992 32.5041 8.56115 31.2752 8.55975H29.5602C29.1972 8.55975 28.849 8.70396 28.5923 8.96065C28.3356 9.21735 28.1914 9.5655 28.1914 9.92852C28.1914 10.2915 28.3356 10.6397 28.5923 10.8964C28.849 11.1531 29.1972 11.2973 29.5602 11.2973H31.2752C31.7783 11.2978 32.2607 11.4979 32.6165 11.8537C32.9723 12.2094 33.1726 12.6917 33.1733 13.1948V15.2516C33.1697 15.4336 33.2024 15.6145 33.2696 15.7837C33.3368 15.9529 33.437 16.107 33.5645 16.237C33.692 16.367 33.8441 16.4703 34.0119 16.5408C34.1798 16.6113 34.36 16.6476 34.542 16.6476C34.7241 16.6476 34.9043 16.6113 35.0722 16.5408C35.24 16.4703 35.3921 16.367 35.5196 16.237C35.647 16.107 35.7473 15.9529 35.8145 15.7837C35.8816 15.6145 35.9144 15.4336 35.9108 15.2516V15.2511Z" fill="#408BC5"/>
<path d="M25.6067 9.92848C25.6068 9.74872 25.5714 9.57071 25.5027 9.40461C25.4339 9.23852 25.3332 9.08759 25.2061 8.96045C25.079 8.83332 24.9281 8.73246 24.762 8.66366C24.596 8.59485 24.418 8.55943 24.2382 8.55943H20.0563C19.6932 8.55943 19.3451 8.70365 19.0884 8.96034C18.8317 9.21703 18.6875 9.56518 18.6875 9.9282C18.6875 10.2912 18.8317 10.6394 19.0884 10.8961C19.3451 11.1528 19.6932 11.297 20.0563 11.297H24.2382C24.4179 11.297 24.5959 11.2617 24.762 11.1929C24.9281 11.1242 25.0789 11.0234 25.206 10.8963C25.3331 10.7692 25.4339 10.6183 25.5027 10.4523C25.5714 10.2862 25.6068 10.1082 25.6067 9.92848Z" fill="#408BC5"/>
</svg>
