<svg width="35" height="35" viewBox="0 0 35 35" fill="none" xmlns="http://www.w3.org/2000/svg">
<mask id="mask0" mask-type="alpha" maskUnits="userSpaceOnUse" x="0" y="0" width="35" height="35">
<rect x="0.5" y="0.5" width="34" height="34" fill="#C4C4C4" stroke="#F08300"/>
</mask>
<g mask="url(#mask0)">
<path d="M30.6191 16.8867C30.6191 24.3426 24.575 30.3867 17.1191 30.3867C9.6633 30.3867 3.61914 24.3426 3.61914 16.8867C3.61914 9.43087 9.6633 3.38672 17.1191 3.38672C24.575 3.38672 30.6191 9.43087 30.6191 16.8867Z" fill="white" stroke="#F08300"/>
<path d="M17.1191 29.8867C24.2988 29.8867 30.1191 24.0664 30.1191 16.8867C30.1191 9.70702 24.2988 3.88672 17.1191 3.88672C9.93944 3.88672 4.11914 9.70702 4.11914 16.8867C4.11914 24.0664 9.93944 29.8867 17.1191 29.8867Z" fill="white" stroke="#F08300" stroke-width="2"/>
<path d="M16.1675 20.8491C18.0431 21.3167 19.9426 20.1754 20.4103 18.2998C20.8779 16.4242 19.7365 14.5247 17.8609 14.057C15.9854 13.5894 14.0858 14.7308 13.6182 16.6063C13.1506 18.4819 14.2919 20.3815 16.1675 20.8491Z" fill="white" stroke="#F08300"/>
<path d="M16.2886 20.3639C17.8962 20.7647 19.5244 19.7864 19.9253 18.1788C20.3261 16.5711 19.3478 14.9429 17.7401 14.5421C16.1325 14.1413 14.5043 15.1196 14.1035 16.7272C13.7026 18.3349 14.681 19.9631 16.2886 20.3639Z" fill="white" stroke="#F08300" stroke-width="2"/>
<path d="M28.1675 24.8491C30.0431 25.3167 31.9426 24.1754 32.4103 22.2998C32.8779 20.4242 31.7365 18.5247 29.8609 18.057C27.9854 17.5894 26.0858 18.7308 25.6182 20.6063C25.1506 22.4819 26.2919 24.3815 28.1675 24.8491Z" fill="white" stroke="#F08300"/>
<path d="M28.2886 24.3639C29.8962 24.7647 31.5244 23.7864 31.9253 22.1788C32.3261 20.5711 31.3478 18.9429 29.7401 18.5421C28.1325 18.1413 26.5043 19.1196 26.1035 20.7272C25.7026 22.3349 26.681 23.9631 28.2886 24.3639Z" fill="white" stroke="#F08300" stroke-width="2"/>
</g>
</svg>
