<svg width="45" height="45" viewBox="0 0 45 45" fill="none" xmlns="http://www.w3.org/2000/svg">
<path d="M10.2905 23.8649H12.6337C13.2495 28.5137 16.9074 32.1716 21.5562 32.7874V35.1306C21.557 35.3793 21.7584 35.5805 22.0068 35.5813H23.8095C24.0579 35.5805 24.2593 35.3793 24.2601 35.1306V32.7874C28.9089 32.1716 32.5668 28.5137 33.1826 23.8649H35.5258C35.7744 23.8642 35.9756 23.6627 35.9764 23.4143V21.6117C35.9756 21.3632 35.7744 21.1618 35.5258 21.161H33.1826C32.5668 16.5122 28.9089 12.8543 24.2601 12.2386V9.89533C24.2593 9.64667 24.0579 9.44547 23.8095 9.44467H22.0068C21.7584 9.44547 21.557 9.64667 21.5562 9.89533V12.2386C16.9074 12.8543 13.2495 16.5122 12.6337 21.161H10.2905C10.0418 21.1618 9.84064 21.3632 9.83984 21.6117V23.4143C9.84064 23.6627 10.0418 23.8642 10.2905 23.8649ZM22.9081 14.8522C27.139 14.8522 30.5689 18.2822 30.5689 22.513C30.5689 26.7438 27.139 30.1738 22.9081 30.1738C18.6773 30.1738 15.2473 26.7438 15.2473 22.513C15.2533 18.2846 18.6797 14.8582 22.9081 14.8522Z" fill="#408BC5"/>
<path d="M26.5148 22.513C26.5148 24.5041 24.9008 26.1181 22.9098 26.1181C20.9187 26.1181 19.3047 24.5041 19.3047 22.513C19.3047 20.522 20.9187 18.908 22.9098 18.908C24.9008 18.908 26.5148 20.522 26.5148 22.513Z" fill="#408BC5"/>
</svg>
