<svg width="16" height="16" viewBox="0 0 16 16" fill="none" xmlns="http://www.w3.org/2000/svg">
<path fill-rule="evenodd" clip-rule="evenodd" d="M0.875128 0.923544C1.10812 0.690429 1.42395 0.559491 1.75325 0.559491C2.08254 0.559491 2.39838 0.690429 2.63137 0.923544L7.96636 6.26799L13.3014 0.923544C13.4151 0.801241 13.5523 0.703145 13.7047 0.635108C13.8572 0.567071 14.0217 0.530487 14.1886 0.527537C14.3554 0.524588 14.5211 0.555335 14.6759 0.617943C14.8306 0.680551 14.9711 0.773738 15.0891 0.891944C15.2071 1.01015 15.3002 1.15096 15.3627 1.30596C15.4252 1.46096 15.4558 1.62699 15.4529 1.79413C15.45 1.96127 15.4134 2.12611 15.3455 2.27881C15.2776 2.4315 15.1797 2.56893 15.0576 2.6829L9.7226 8.02734L15.0576 13.3718C15.1797 13.4858 15.2776 13.6232 15.3455 13.7759C15.4134 13.9286 15.45 14.0934 15.4529 14.2606C15.4558 14.4277 15.4252 14.5937 15.3627 14.7487C15.3002 14.9037 15.2071 15.0445 15.0891 15.1627C14.9711 15.2809 14.8306 15.3741 14.6759 15.4367C14.5211 15.4994 14.3554 15.5301 14.1886 15.5271C14.0217 15.5242 13.8572 15.4876 13.7047 15.4196C13.5523 15.3515 13.4151 15.2534 13.3014 15.1311L7.96636 9.7867L2.63137 15.1311C2.39581 15.351 2.08425 15.4707 1.76232 15.465C1.4404 15.4594 1.13325 15.3287 0.905578 15.1006C0.677908 14.8726 0.547495 14.5649 0.541815 14.2424C0.536135 13.9199 0.655631 13.6078 0.875128 13.3718L6.21012 8.02734L0.875128 2.6829C0.642425 2.44949 0.511719 2.1331 0.511719 1.80322C0.511719 1.47334 0.642425 1.15695 0.875128 0.923544Z" fill="#0D3B55"/>
</svg>
