<svg width="45" height="45" viewBox="0 0 45 45" fill="none" xmlns="http://www.w3.org/2000/svg">
<path d="M22.4981 16.239L13.0868 23.9976C13.0868 24.0086 13.0841 24.0247 13.0786 24.0466C13.0732 24.0684 13.0703 24.0842 13.0703 24.0955V31.9519C13.0703 32.2356 13.174 32.4814 13.3814 32.6884C13.5887 32.8956 13.8342 32.9998 14.1179 32.9998H20.4029V26.7144H24.5935V33H30.8784C31.1621 33 31.4079 32.896 31.6149 32.6884C31.8223 32.4816 31.9263 32.2356 31.9263 31.9519V24.0955C31.9263 24.0519 31.9204 24.019 31.9098 23.9976L22.4981 16.239Z" fill="#408BC5"/>
<path d="M35.5111 22.23L31.9268 19.2511V12.573C31.9268 12.4203 31.8777 12.2947 31.7792 12.1965C31.6815 12.0983 31.556 12.0492 31.403 12.0492H28.2604C28.1076 12.0492 27.9821 12.0983 27.8838 12.1965C27.7857 12.2947 27.7367 12.4203 27.7367 12.573V15.7646L23.743 12.4255C23.3942 12.1418 22.9795 11.9999 22.4993 11.9999C22.0192 11.9999 21.6045 12.1418 21.2554 12.4255L9.48657 22.23C9.37747 22.3172 9.31768 22.4344 9.30655 22.5818C9.29549 22.729 9.33361 22.8576 9.42104 22.9666L10.4358 24.1779C10.5232 24.276 10.6377 24.3361 10.7796 24.358C10.9106 24.369 11.0416 24.3307 11.1726 24.2435L22.499 14.7989L33.8255 24.2434C33.913 24.3195 34.0273 24.3576 34.1692 24.3576H34.2184C34.3601 24.336 34.4743 24.2756 34.5621 24.1777L35.577 22.9666C35.6643 22.8573 35.7025 22.7289 35.6912 22.5816C35.68 22.4346 35.62 22.3173 35.5111 22.23Z" fill="#408BC5"/>
</svg>
