<svg width="16" height="17" viewBox="0 0 16 17" fill="none" xmlns="http://www.w3.org/2000/svg">
<path d="M15.2744 14.5706L12.534 11.7465C13.4181 10.5823 13.8979 9.14459 13.8961 7.66452C13.8961 6.3464 13.5179 5.05789 12.8094 3.96191C12.1009 2.86594 11.0938 2.01173 9.91561 1.50731C8.73739 1.00289 7.4409 0.870908 6.1901 1.12806C4.9393 1.38521 3.79037 2.01995 2.88859 2.952C1.98682 3.88404 1.3727 5.07155 1.1239 6.36434C0.875101 7.65713 1.00279 8.99714 1.49083 10.2149C1.97887 11.4327 2.80533 12.4736 3.86571 13.2059C4.92608 13.9382 6.17275 14.329 7.44805 14.329C8.88005 14.3309 10.2711 13.835 11.3975 12.9212L14.1298 15.7536C14.2048 15.8317 14.2939 15.8936 14.3921 15.9359C14.4904 15.9782 14.5957 16 14.7021 16C14.8085 16 14.9139 15.9782 15.0121 15.9359C15.1103 15.8936 15.1994 15.8317 15.2744 15.7536C15.3499 15.6761 15.4099 15.584 15.4508 15.4825C15.4917 15.381 15.5128 15.2721 15.5128 15.1621C15.5128 15.0521 15.4917 14.9432 15.4508 14.8417C15.4099 14.7402 15.3499 14.6481 15.2744 14.5706ZM2.61202 7.66452C2.61202 6.67593 2.89564 5.70955 3.42703 4.88757C3.95842 4.06558 4.71371 3.42493 5.59738 3.04661C6.48105 2.6683 7.45342 2.56931 8.39152 2.76218C9.32962 2.95504 10.1913 3.43109 10.8676 4.13013C11.544 4.82916 12.0046 5.71979 12.1912 6.68938C12.3778 7.65898 12.282 8.66399 11.916 9.57732C11.5499 10.4907 10.9301 11.2713 10.1348 11.8205C9.33953 12.3698 8.40453 12.6629 7.44805 12.6629C6.16546 12.6629 4.93539 12.1363 4.02846 11.1989C3.12152 10.2615 2.61202 8.99018 2.61202 7.66452Z" fill="#0D3B55" stroke="#0D3B55" stroke-width="0.75"/>
</svg>
