<svg width="29" height="17" viewBox="0 0 29 17" fill="none" xmlns="http://www.w3.org/2000/svg">
<path d="M28.3459 8.12701L28.0209 7.716C26.924 6.40823 25.6707 5.24015 24.2889 4.23801C21.4821 2.06065 18.0522 0.8384 14.5009 0.75C10.9497 0.838469 7.51984 2.06071 4.71294 4.23801C3.33135 5.23992 2.07797 6.40765 0.980942 7.715L0.655941 8.12601C0.571489 8.23218 0.525513 8.36384 0.525513 8.4995C0.525513 8.63517 0.571489 8.76683 0.655941 8.873L0.980942 9.284C2.07801 10.5916 3.33137 11.7597 4.71294 12.762C7.51981 14.9394 10.9497 16.1616 14.5009 16.25C18.0522 16.1617 21.4821 14.9394 24.2889 12.762C25.671 11.7587 26.9244 10.5893 28.0209 9.28001L28.3459 8.869C28.4292 8.76324 28.4744 8.63257 28.4744 8.498C28.4744 8.36343 28.4292 8.23277 28.3459 8.12701ZM14.5009 14.458C13.3226 14.458 12.1706 14.1086 11.1909 13.4539C10.2111 12.7992 9.44741 11.8687 8.99646 10.78C8.54552 9.69135 8.42753 8.49339 8.65742 7.33765C8.88731 6.18192 9.45476 5.12031 10.288 4.28706C11.1212 3.45382 12.1829 2.88638 13.3386 2.65649C14.4943 2.4266 15.6923 2.54458 16.781 2.99553C17.8697 3.44648 18.8002 4.21013 19.4548 5.18992C20.1095 6.16971 20.4589 7.32162 20.4589 8.5C20.4589 10.0802 19.8312 11.5956 18.7139 12.7129C17.5965 13.8303 16.0811 14.458 14.5009 14.458Z" fill="#408BC5"/>
<path d="M14.501 4.423C13.6946 4.423 12.9064 4.66211 12.2359 5.1101C11.5654 5.55809 11.0429 6.19483 10.7343 6.9398C10.4257 7.68478 10.345 8.50453 10.5023 9.29539C10.6596 10.0862 11.0479 10.8127 11.6181 11.3829C12.1883 11.9531 12.9147 12.3414 13.7056 12.4987C14.4964 12.656 15.3162 12.5752 16.0612 12.2667C16.8061 11.9581 17.4429 11.4355 17.8909 10.7651C18.3388 10.0946 18.5779 9.30635 18.5779 8.5C18.5779 7.41871 18.1484 6.38171 17.3838 5.61713C16.6192 4.85254 15.5822 4.423 14.501 4.423ZM17.615 8.5C17.6139 9.32556 17.2855 10.117 16.7017 10.7008C16.118 11.2845 15.3265 11.6129 14.501 11.614C14.3347 11.614 14.1752 11.5479 14.0576 11.4304C13.94 11.3128 13.874 11.1533 13.874 10.987C13.874 10.8207 13.94 10.6612 14.0576 10.5436C14.1752 10.4261 14.3347 10.36 14.501 10.36C14.9941 10.3595 15.4669 10.1633 15.8156 9.81464C16.1643 9.46593 16.3604 8.99314 16.361 8.5C16.361 8.33371 16.427 8.17423 16.5446 8.05665C16.6622 7.93906 16.8217 7.873 16.988 7.873C17.1542 7.873 17.3137 7.93906 17.4313 8.05665C17.5489 8.17423 17.615 8.33371 17.615 8.5Z" fill="#408BC5"/>
</svg>
