<svg width="13" height="13" viewBox="0 0 13 13" fill="none" xmlns="http://www.w3.org/2000/svg">
<path d="M9.1 3.25H10.4V12.35H2.6V3.25H3.9V2.6C3.9 2.25522 4.03696 1.92456 4.28076 1.68076C4.52456 1.43697 4.85522 1.3 5.2 1.3H7.8C8.14478 1.3 8.47544 1.43697 8.71924 1.68076C8.96304 1.92456 9.1 2.25522 9.1 2.6V3.25ZM11.05 3.25H11.7C12.0448 3.25 12.3754 3.38697 12.6192 3.63076C12.863 3.87456 13 4.20522 13 4.55V11.05C13 11.3948 12.863 11.7254 12.6192 11.9692C12.3754 12.213 12.0448 12.35 11.7 12.35H11.05V3.25ZM1.95 3.25V12.35H1.3C0.955218 12.35 0.624558 12.213 0.380761 11.9692C0.136964 11.7254 0 11.3948 0 11.05V4.55C0 3.835 0.585 3.25 1.3 3.25H1.95ZM5.2 2.6V3.25H7.8V2.6H5.2Z" fill="#707070"/>
</svg>
