<svg width="19" height="19" viewBox="0 0 19 19" fill="none" xmlns="http://www.w3.org/2000/svg">
<path d="M9.20301 0.144167C9.35435 -0.0480556 9.64565 -0.0480555 9.79699 0.144167L12.7009 3.83268C12.8961 4.08063 12.7195 4.44448 12.404 4.44448H6.59605C6.28048 4.44448 6.10385 4.08063 6.29906 3.83268L9.20301 0.144167Z" fill="#408BC5"/>
<path d="M9.79699 18.8558C9.64565 19.0481 9.35435 19.0481 9.20301 18.8558L6.29906 15.1673C6.10385 14.9194 6.28048 14.5555 6.59605 14.5555H12.404C12.7195 14.5555 12.8961 14.9194 12.7009 15.1673L9.79699 18.8558Z" fill="#408BC5"/>
<path d="M9.97248 2.03484C10.1812 2.03484 10.3505 2.20407 10.3505 2.41282L10.3505 15.6422C10.3505 15.851 10.1812 16.0202 9.97248 16.0202H9.02752C8.81877 16.0202 8.64954 15.851 8.64954 15.6422L8.64954 2.41282C8.64954 2.20407 8.81877 2.03484 9.02752 2.03484H9.97248Z" fill="#408BC5"/>
<path d="M0.144167 9.60799C-0.0480555 9.45666 -0.0480555 9.16536 0.144167 9.01402L3.83268 6.11007C4.08063 5.91486 4.44448 6.09148 4.44448 6.40706V12.215C4.44448 12.5305 4.08063 12.7072 3.83268 12.5119L0.144167 9.60799Z" fill="#408BC5"/>
<path d="M18.8558 9.01402C19.0481 9.16536 19.0481 9.45666 18.8558 9.60799L15.1673 12.5119C14.9194 12.7072 14.5555 12.5305 14.5555 12.215V6.40705C14.5555 6.09148 14.9194 5.91486 15.1673 6.11007L18.8558 9.01402Z" fill="#408BC5"/>
<path d="M2.03484 8.83853C2.03484 8.62978 2.20407 8.46055 2.41282 8.46055H15.6422C15.851 8.46055 16.0202 8.62978 16.0202 8.83853V9.78349C16.0202 9.99224 15.851 10.1615 15.6422 10.1615H2.41282C2.20407 10.1615 2.03484 9.99224 2.03484 9.78349V8.83853Z" fill="#408BC5"/>
</svg>
