<svg width="9" height="11" viewBox="0 0 9 11" fill="none" xmlns="http://www.w3.org/2000/svg">
<path d="M4.49991 5.50008C5.15368 5.50008 5.71169 5.26878 6.17409 4.80636C6.63653 4.34394 6.86779 3.78593 6.86779 3.13225C6.86779 2.47868 6.63653 1.92065 6.17409 1.45812C5.71154 0.995725 5.15351 0.764526 4.49991 0.764526C3.84632 0.764526 3.2882 0.995725 2.8258 1.45812C2.36332 1.92065 2.13208 2.47865 2.13208 3.13225C2.13208 3.78593 2.36332 4.34394 2.8258 4.80636C3.28833 5.26878 3.84629 5.50008 4.49991 5.50008Z" fill="#707070"/>
<path d="M8.81921 8.00032C8.80478 7.7928 8.77597 7.5687 8.73288 7.3282C8.68971 7.08769 8.63518 6.86479 8.56939 6.65916C8.50361 6.45368 8.41521 6.25326 8.30422 6.05798C8.19328 5.86272 8.06585 5.69627 7.92188 5.5585C7.77792 5.42077 7.60222 5.31089 7.39478 5.22869C7.18708 5.14651 6.95789 5.10535 6.70713 5.10535C6.67017 5.10535 6.58383 5.14953 6.44815 5.23793C6.31261 5.32633 6.15946 5.42501 5.98887 5.53399C5.81829 5.64277 5.59619 5.74151 5.32294 5.82976C5.04956 5.91816 4.77521 5.96237 4.4997 5.96237C4.22429 5.96237 3.94992 5.91816 3.67658 5.82976C3.40327 5.74151 3.18123 5.64277 3.01063 5.53399C2.84006 5.42501 2.68696 5.32635 2.55132 5.23793C2.41563 5.14953 2.32935 5.10535 2.29235 5.10535C2.04161 5.10535 1.81242 5.14651 1.60485 5.22869C1.39723 5.31089 1.22152 5.42086 1.07762 5.5585C0.933758 5.69627 0.806312 5.86272 0.695367 6.05798C0.584422 6.25326 0.496047 6.45377 0.430261 6.65916C0.364498 6.86479 0.310008 7.08769 0.266857 7.3282C0.223662 7.5687 0.194895 7.79265 0.18049 8.00032C0.166106 8.208 0.158936 8.42074 0.158936 8.63861C0.158936 9.1318 0.309015 9.5214 0.609065 9.80711C0.90918 10.0927 1.30795 10.2355 1.80534 10.2355H7.19455C7.6919 10.2355 8.09062 10.0927 8.39078 9.80711C8.691 9.5214 8.84098 9.13187 8.84098 8.63861C8.84093 8.42074 8.83376 8.208 8.81921 8.00032Z" fill="#707070"/>
</svg>
