<svg width="35" height="35" viewBox="0 0 35 35" fill="none" xmlns="http://www.w3.org/2000/svg">
<mask id="mask0" mask-type="alpha" maskUnits="userSpaceOnUse" x="0" y="0" width="35" height="35">
<rect width="35" height="35" fill="#C4C4C4"/>
</mask>
<g mask="url(#mask0)">
<path d="M9.23842 4.85645L6.96973 20.2618L17.164 28.6438L30.5302 17.09L9.23842 4.85645Z" fill="#408BC5" stroke="white" stroke-width="2"/>
<path d="M6.1025 22.547C7.50529 22.8967 8.92601 22.0431 9.27576 20.6403C9.62552 19.2375 8.77187 17.8168 7.36908 17.467C5.96629 17.1173 4.54557 17.9709 4.19581 19.3737C3.84606 20.7765 4.69971 22.1972 6.1025 22.547Z" fill="#408BC5"/>
<path d="M6.07283 22.6707C7.5439 23.0375 9.03378 22.1423 9.40056 20.6712C9.76734 19.2001 8.87213 17.7103 7.40106 17.3435C5.92999 16.9767 4.44011 17.8719 4.07333 19.343C3.70655 20.8141 4.60176 22.3039 6.07283 22.6707Z" fill="#408BC5" stroke="white" stroke-width="2"/>
<path d="M16.5732 31.2728C17.976 31.6226 19.3967 30.7689 19.7465 29.3661C20.0962 27.9633 19.2426 26.5426 17.8398 26.1929C16.437 25.8431 15.0163 26.6968 14.6665 28.0995C14.3168 29.5023 15.1704 30.9231 16.5732 31.2728Z" fill="#408BC5"/>
<path d="M16.5435 31.3963C18.0146 31.7631 19.5045 30.8679 19.8713 29.3968C20.238 27.9257 19.3428 26.4359 17.8718 26.0691C16.4007 25.7023 14.9108 26.5975 14.544 28.0686C14.1773 29.5397 15.0725 31.0295 16.5435 31.3963Z" fill="#408BC5" stroke="white" stroke-width="2"/>
<path d="M29.6621 19.9293C31.0649 20.2791 32.4856 19.4254 32.8353 18.0226C33.1851 16.6198 32.3314 15.1991 30.9286 14.8494C29.5259 14.4996 28.1051 15.3532 27.7554 16.756C27.4056 18.1588 28.2593 19.5795 29.6621 19.9293Z" fill="#408BC5"/>
<path d="M29.6314 20.0528C31.1025 20.4196 32.5924 19.5244 32.9592 18.0533C33.3259 16.5822 32.4307 15.0924 30.9597 14.7256C29.4886 14.3588 27.9987 15.254 27.6319 16.7251C27.2651 18.1961 28.1604 19.686 29.6314 20.0528Z" fill="#408BC5" stroke="white" stroke-width="2"/>
<path d="M8.72067 7.71324C10.1235 8.06299 11.5442 7.20934 11.8939 5.80655C12.2437 4.40376 11.39 2.98304 9.98724 2.63329C8.58445 2.28353 7.16373 3.13719 6.81398 4.53997C6.46422 5.94276 7.31788 7.36348 8.72067 7.71324Z" fill="#408BC5"/>
<path d="M8.68904 7.83674C10.1601 8.20352 11.65 7.30831 12.0168 5.83724C12.3835 4.36617 11.4883 2.87629 10.0173 2.50951C8.5462 2.14273 7.05632 3.03794 6.68954 4.50901C6.32276 5.98008 7.21797 7.46996 8.68904 7.83674Z" fill="#408BC5" stroke="white" stroke-width="2"/>
</g>
</svg>
