<svg width="35" height="35" viewBox="0 0 35 35" fill="none" xmlns="http://www.w3.org/2000/svg">
<mask id="mask0" mask-type="alpha" maskUnits="userSpaceOnUse" x="0" y="0" width="35" height="35">
<rect width="35" height="35" fill="#C4C4C4"/>
</mask>
<g mask="url(#mask0)">
<path d="M30.2278 10.7234L9.85156 5.64307L5.01312 25.049L25.3893 30.1293L30.2278 10.7234Z" fill="#408BC5"/>
<path d="M29.0157 11.4517L10.5801 6.85522L6.22548 24.3205L24.6611 28.9171L29.0157 11.4517Z" stroke="white" stroke-width="2"/>
<path d="M9.85389 9.76629C11.4615 10.1671 13.0897 9.18881 13.4905 7.58117C13.8914 5.97353 12.9131 4.34535 11.3054 3.94452C9.69778 3.54369 8.06959 4.522 7.66877 6.12964C7.26794 7.73728 8.24625 9.36546 9.85389 9.76629Z" fill="#408BC5"/>
<path d="M9.85403 9.76623C11.4617 10.1671 13.0899 9.18875 13.4907 7.58111C13.8915 5.97347 12.9132 4.34529 11.3056 3.94446C9.69792 3.54363 8.06974 4.52194 7.66891 6.12958C7.26808 7.73722 8.24639 9.3654 9.85403 9.76623Z" stroke="white" stroke-width="2"/>
<path d="M23.9349 31.8281C25.5426 32.2289 27.1708 31.2506 27.5716 29.6429C27.9724 28.0353 26.9941 26.4071 25.3865 26.0063C23.7788 25.6055 22.1506 26.5838 21.7498 28.1914C21.349 29.799 22.3273 31.4272 23.9349 31.8281Z" fill="#408BC5"/>
<path d="M23.9351 31.828C25.5427 32.2288 27.1709 31.2505 27.5717 29.6429C27.9726 28.0352 26.9943 26.4071 25.3866 26.0062C23.779 25.6054 22.1508 26.5837 21.75 28.1913C21.3491 29.799 22.3274 31.4272 23.9351 31.828Z" stroke="white" stroke-width="2"/>
<path d="M5.49939 27.2316C7.10703 27.6325 8.73522 26.6541 9.13605 25.0465C9.53688 23.4389 8.55856 21.8107 6.95093 21.4098C5.34329 21.009 3.7151 21.9873 3.31427 23.595C2.91344 25.2026 3.89176 26.8308 5.49939 27.2316Z" fill="#408BC5"/>
<path d="M5.49954 27.2316C7.10718 27.6324 8.73536 26.6541 9.13619 25.0464C9.53702 23.4388 8.55871 21.8106 6.95107 21.4098C5.34343 21.009 3.71524 21.9873 3.31442 23.5949C2.91359 25.2025 3.8919 26.8307 5.49954 27.2316Z" stroke="white" stroke-width="2"/>
<path d="M28.2894 14.3627C29.8971 14.7636 31.5253 13.7852 31.9261 12.1776C32.3269 10.57 31.3486 8.94178 29.741 8.54095C28.1333 8.14012 26.5051 9.11843 26.1043 10.7261C25.7035 12.3337 26.6818 13.9619 28.2894 14.3627Z" fill="#408BC5"/>
<path d="M28.2896 14.3627C29.8972 14.7635 31.5254 13.7852 31.9262 12.1775C32.3271 10.5699 31.3487 8.94172 29.7411 8.54089C28.1335 8.14006 26.5053 9.11837 26.1045 10.726C25.7036 12.3337 26.6819 13.9618 28.2896 14.3627Z" stroke="white" stroke-width="2"/>
</g>
</svg>
