<svg width="35" height="35" viewBox="0 0 35 35" fill="none" xmlns="http://www.w3.org/2000/svg">
<mask id="mask0" mask-type="alpha" maskUnits="userSpaceOnUse" x="0" y="0" width="35" height="35">
<rect width="35" height="35" fill="#C4C4C4"/>
</mask>
<g mask="url(#mask0)">
<path d="M9.23842 4.85632L6.96973 20.2617L17.164 28.6436L30.5302 17.0899L9.23842 4.85632Z" fill="white" stroke="#F08300" stroke-width="2"/>
<path d="M6.1025 22.5471C7.50529 22.8968 8.92601 22.0432 9.27576 20.6404C9.62552 19.2376 8.77187 17.8169 7.36908 17.4671C5.96629 17.1174 4.54557 17.971 4.19581 19.3738C3.84606 20.7766 4.69971 22.1973 6.1025 22.5471Z" fill="white"/>
<path d="M6.07234 22.6707C7.54342 23.0375 9.03329 22.1423 9.40007 20.6712C9.76685 19.2001 8.87164 17.7103 7.40057 17.3435C5.9295 16.9767 4.43962 17.8719 4.07285 19.343C3.70607 20.8141 4.60127 22.3039 6.07234 22.6707Z" fill="white" stroke="#F08300" stroke-width="2"/>
<path d="M16.5732 31.2728C17.976 31.6226 19.3967 30.7689 19.7465 29.3661C20.0962 27.9634 19.2426 26.5426 17.8398 26.1929C16.437 25.8431 15.0163 26.6968 14.6665 28.0996C14.3168 29.5024 15.1704 30.9231 16.5732 31.2728Z" fill="white"/>
<path d="M16.5435 31.3965C18.0146 31.7632 19.5045 30.868 19.8713 29.397C20.238 27.9259 19.3428 26.436 17.8718 26.0692C16.4007 25.7025 14.9108 26.5977 14.544 28.0687C14.1773 29.5398 15.0725 31.0297 16.5435 31.3965Z" fill="white" stroke="#F08300" stroke-width="2"/>
<path d="M29.6621 19.9293C31.0649 20.2791 32.4856 19.4254 32.8353 18.0226C33.1851 16.6199 32.3314 15.1991 30.9286 14.8494C29.5259 14.4996 28.1051 15.3533 27.7554 16.7561C27.4056 18.1589 28.2593 19.5796 29.6621 19.9293Z" fill="white"/>
<path d="M29.6309 20.0529C31.102 20.4197 32.5919 19.5245 32.9587 18.0534C33.3254 16.5824 32.4302 15.0925 30.9592 14.7257C29.4881 14.3589 27.9982 15.2541 27.6314 16.7252C27.2647 18.1963 28.1599 19.6861 29.6309 20.0529Z" fill="white" stroke="#F08300" stroke-width="2"/>
<path d="M8.72018 7.71324C10.123 8.06299 11.5437 7.20934 11.8934 5.80655C12.2432 4.40376 11.3895 2.98304 9.98675 2.63329C8.58396 2.28353 7.16325 3.13719 6.81349 4.53997C6.46374 5.94276 7.31739 7.36348 8.72018 7.71324Z" fill="white"/>
<path d="M8.68856 7.83683C10.1596 8.20361 11.6495 7.3084 12.0163 5.83733C12.3831 4.36626 11.4879 2.87638 10.0168 2.5096C8.54571 2.14282 7.05584 3.03803 6.68906 4.5091C6.32228 5.98018 7.21748 7.47005 8.68856 7.83683Z" fill="white" stroke="#F08300" stroke-width="2"/>
</g>
</svg>
