<svg width="45" height="45" viewBox="0 0 45 45" fill="none" xmlns="http://www.w3.org/2000/svg">
<path d="M30.9404 9.84286C30.6796 9.58202 30.3258 9.43549 29.9569 9.43549C29.588 9.43549 29.2342 9.58202 28.9734 9.84286L27.7484 11.0678L29.9013 13.2207C29.9424 13.2604 29.9752 13.3079 29.9977 13.3605C30.0203 13.413 30.0322 13.4695 30.0327 13.5267C30.0332 13.5838 30.0223 13.6405 30.0006 13.6934C29.979 13.7464 29.947 13.7944 29.9066 13.8349C29.8662 13.8753 29.8181 13.9073 29.7652 13.9289C29.7123 13.9506 29.6556 13.9614 29.5984 13.961C29.5412 13.9605 29.4847 13.9486 29.4322 13.926C29.3797 13.9034 29.3321 13.8706 29.2924 13.8295L27.1396 11.6767L23.3936 15.4226L26.3317 18.3608C26.3729 18.4005 26.4057 18.448 26.4282 18.5005C26.4508 18.5531 26.4627 18.6096 26.4632 18.6667C26.4637 18.7239 26.4528 18.7806 26.4311 18.8335C26.4095 18.8864 26.3775 18.9345 26.3371 18.9749C26.2967 19.0154 26.2486 19.0473 26.1957 19.069C26.1427 19.0906 26.0861 19.1015 26.0289 19.101C25.9717 19.1005 25.9152 19.0887 25.8627 19.0661C25.8101 19.0435 25.7626 19.0107 25.7229 18.9696L22.7847 16.0315L19.0387 19.7774L21.1916 21.9303C21.2325 21.9701 21.265 22.0176 21.2874 22.07C21.3098 22.1225 21.3215 22.1789 21.3219 22.2359C21.3223 22.293 21.3113 22.3495 21.2897 22.4023C21.268 22.455 21.2361 22.503 21.1958 22.5433C21.1555 22.5836 21.1075 22.6156 21.0547 22.6372C21.002 22.6589 20.9454 22.6698 20.8884 22.6694C20.8314 22.669 20.775 22.6573 20.7225 22.635C20.67 22.6126 20.6225 22.5801 20.5828 22.5392L18.4299 20.3863L14.6839 24.1323L17.6221 27.0704C17.7018 27.1514 17.7462 27.2606 17.7458 27.3742C17.7453 27.4877 17.7 27.5966 17.6197 27.6769C17.5394 27.7572 17.4306 27.8025 17.317 27.803C17.2034 27.8034 17.0942 27.759 17.0132 27.6793L14.0751 24.7411L9.84488 28.9713C9.58404 29.2321 9.4375 29.5859 9.4375 29.9548C9.4375 30.3237 9.58404 30.6775 9.84488 30.9383L14.3429 35.4364C14.4721 35.5656 14.6254 35.6681 14.7941 35.738C14.9629 35.8079 15.1438 35.8438 15.3264 35.8438C15.5091 35.8438 15.6899 35.8079 15.8587 35.738C16.0274 35.6681 16.1808 35.5656 16.3099 35.4364L35.4385 16.308C35.6993 16.0472 35.8458 15.6934 35.8458 15.3245C35.8458 14.9556 35.6993 14.6018 35.4385 14.341L30.9404 9.84286ZM14.7723 32.1815C14.6915 32.2622 14.582 32.3076 14.4678 32.3076C14.3536 32.3076 14.2441 32.2622 14.1634 32.1815L13.0999 31.1179C13.0202 31.037 12.9758 30.9278 12.9762 30.8142C12.9767 30.7006 13.022 30.5918 13.1023 30.5115C13.1826 30.4312 13.2914 30.3859 13.405 30.3854C13.5186 30.3849 13.6278 30.4294 13.7088 30.5091L14.7723 31.5726C14.853 31.6533 14.8984 31.7628 14.8984 31.877C14.8984 31.9912 14.853 32.1007 14.7723 32.1815Z" fill="white"/>
</svg>
