<svg width="45" height="45" viewBox="0 0 45 45" fill="none" xmlns="http://www.w3.org/2000/svg">
<path d="M14.8716 32.6409C20.4022 36.9809 28.3472 35.9421 32.6171 30.3208C36.8871 24.6995 35.8651 16.6243 30.3344 12.2844C24.8038 7.94445 16.8588 8.9832 12.5889 14.6045C8.31896 20.2258 9.34096 28.301 14.8716 32.6409Z" fill="white"/>
<g opacity="0.07">
<g opacity="0.07">
<g opacity="0.07">
<path opacity="0.07" d="M32.7789 21.0674C32.894 23.6751 32.0227 26.2286 30.3438 28.2039C28.6649 30.1792 26.3058 31.4264 23.7507 31.6895C21.1956 31.9526 18.6383 31.2117 16.6037 29.6189C14.5691 28.026 13.2116 25.702 12.8097 23.1238C12.8714 24.5121 13.2111 25.8729 13.808 27.1231C14.4049 28.3734 15.2464 29.4867 16.2812 30.395C17.3159 31.3033 18.5221 31.9875 19.8259 32.4057C21.1298 32.8239 22.5039 32.9674 23.8641 32.8273C25.2244 32.6873 26.5422 32.2666 27.7371 31.5911C28.9319 30.9156 29.9786 29.9995 30.8131 28.8987C31.6476 27.798 32.2524 26.5357 32.5905 25.1892C32.9285 23.8428 32.9928 22.4403 32.7793 21.0677L32.7789 21.0674Z" fill="#408BC5"/>
</g>
</g>
</g>
<path d="M27.3368 16.318L26.263 24.4219L19.8949 19.4248L27.3368 16.318Z" fill="#FF6F6F"/>
<path d="M18.3351 28.1698L19.9259 19.3852L26.294 24.3823L18.3351 28.1698Z" fill="#D3D3D3"/>
<path d="M34.0626 22.1311C34.0626 28.6594 28.8621 33.9098 22.4981 33.9098C16.1341 33.9098 10.9336 28.6594 10.9336 22.1311C10.9336 15.6029 16.1341 10.3524 22.4981 10.3524C28.8621 10.3524 34.0626 15.6029 34.0626 22.1311Z" stroke="#408BC5" stroke-width="3"/>
</svg>
