<svg width="13" height="13" viewBox="0 0 13 13" fill="none" xmlns="http://www.w3.org/2000/svg">
<path d="M11.9223 1.07264C11.2273 0.380922 10.3033 0 9.32041 0C8.33755 0 7.41353 0.380922 6.71857 1.07264C6.12368 1.6647 5.75923 2.41648 5.66458 3.2467C5.57654 4.01883 5.73945 4.80691 6.12399 5.4775L0 11.5726L1.3726 12.9388L2.08977 12.225L2.86846 13L4.1515 11.723L3.37281 10.948L4.33378 9.99154L5.11247 10.7666L6.3955 9.48957L5.61681 8.71454L7.49657 6.84364C8.17035 7.22634 8.96203 7.38843 9.73794 7.30088C10.5721 7.20665 11.3274 6.84392 11.9223 6.25186C12.6173 5.56014 13 4.64047 13 3.66226C13 2.68403 12.6173 1.76433 11.9223 1.07264ZM11.0023 3.81564C10.7492 4.06754 10.4167 4.19352 10.0843 4.19352C9.75182 4.19352 9.41937 4.06754 9.16626 3.81564C8.66005 3.31182 8.66005 2.49207 9.16626 1.98824C9.67246 1.48442 10.4961 1.48442 11.0023 1.98824C11.5085 2.49207 11.5085 3.31184 11.0023 3.81564Z" fill="#707070"/>
</svg>
