<svg width="45" height="45" viewBox="0 0 45 45" fill="none" xmlns="http://www.w3.org/2000/svg">
<path d="M34.6078 26.4209L33.5029 25.829L23.3881 31.2479C23.1073 31.3984 22.8094 31.4746 22.5027 31.4746C22.1961 31.4746 21.8982 31.3984 21.6176 31.2482L11.502 25.829L10.3969 26.4209C10.1297 26.564 9.95703 26.8871 9.95703 27.2437C9.95703 27.6004 10.1297 27.9233 10.3969 28.0665L22.2076 34.3938C22.3017 34.4441 22.4022 34.4694 22.5027 34.4694C22.6032 34.4694 22.7039 34.4441 22.7979 34.3938L34.6078 28.0665C34.875 27.9233 35.0477 27.6004 35.0477 27.2437C35.0477 26.8871 34.875 26.564 34.6078 26.4209Z" fill="#408BC5"/>
<path d="M34.6078 21.6296L33.5029 21.0377L23.3881 26.4567C23.1073 26.6073 22.8094 26.6836 22.5027 26.6836C22.1961 26.6836 21.8982 26.6073 21.6176 26.4569L11.502 21.0377L10.3969 21.6299C10.1297 21.773 9.95703 22.0959 9.95703 22.4527C9.95703 22.8092 10.1297 23.132 10.3969 23.2754L22.2076 29.6026C22.3017 29.6531 22.4022 29.6782 22.5027 29.6782C22.6032 29.6782 22.7039 29.6531 22.7979 29.6026L34.6078 23.2754C34.875 23.132 35.0477 22.8092 35.0477 22.4527C35.0477 22.0959 34.875 21.773 34.6078 21.6296Z" fill="#408BC5"/>
<path d="M10.3969 18.4837L22.2076 24.8111C22.3017 24.8614 22.4022 24.8867 22.5027 24.8867C22.6032 24.8867 22.7039 24.8614 22.7979 24.8111L34.6078 18.4837C34.875 18.3405 35.0477 18.0175 35.0477 17.6609C35.0477 17.3041 34.875 16.9813 34.6078 16.8381L22.7971 10.5107C22.609 10.4099 22.395 10.4101 22.2068 10.5107L10.3969 16.8381C10.1297 16.9813 9.95703 17.3041 9.95703 17.6609C9.95703 18.0177 10.1297 18.3405 10.3969 18.4837Z" fill="#408BC5"/>
</svg>
