<svg width="12" height="12" viewBox="0 0 12 12" fill="none" xmlns="http://www.w3.org/2000/svg">
<path d="M11.7896 7.64526L11.2612 7.36218L6.42361 9.95389C6.28931 10.0258 6.14685 10.0623 6.00018 10.0623C5.85352 10.0623 5.71106 10.0258 5.57684 9.954L0.738922 7.36218L0.210388 7.64526C0.0825806 7.71374 0 7.86826 0 8.03878C0 8.20941 0.0825806 8.36382 0.210388 8.4323L5.85901 11.4585C5.90405 11.4825 5.95212 11.4946 6.00018 11.4946C6.04825 11.4946 6.09641 11.4825 6.14136 11.4585L11.7896 8.4323C11.9174 8.36382 12 8.20941 12 8.03878C12 7.86826 11.9174 7.71374 11.7896 7.64526Z" fill="#333333"/>
<path d="M11.7896 5.35413L11.2612 5.07104L6.42361 7.66275C6.28931 7.73481 6.14685 7.77128 6.00018 7.77128C5.85352 7.77128 5.71106 7.73481 5.57684 7.66286L0.738922 5.07104L0.210388 5.35424C0.0825806 5.42271 0 5.57712 0 5.74775C0 5.91827 0.0825806 6.07268 0.210388 6.14127L5.85901 9.16733C5.90405 9.1915 5.95212 9.20347 6.00018 9.20347C6.04825 9.20347 6.09641 9.1915 6.14136 9.16733L11.7896 6.14127C11.9174 6.07268 12 5.91827 12 5.74775C12 5.57712 11.9174 5.42271 11.7896 5.35413Z" fill="#333333"/>
<path d="M0.210388 3.84933L5.85901 6.8755C5.90405 6.89956 5.95212 6.91164 6.00018 6.91164C6.04825 6.91164 6.09641 6.89956 6.14136 6.8755L11.7896 3.84933C11.9174 3.78086 12 3.62634 12 3.45582C12 3.28518 11.9174 3.13078 11.7896 3.0623L6.14099 0.0361264C6.05099 -0.0120981 5.94864 -0.0119862 5.85864 0.0361264L0.210388 3.0623C0.0825806 3.13078 0 3.28518 0 3.45582C0 3.62645 0.0825806 3.78086 0.210388 3.84933Z" fill="#333333"/>
</svg>
