<svg width="13" height="13" viewBox="0 0 13 13" fill="none" xmlns="http://www.w3.org/2000/svg">
<path d="M6.50147 6.19044C8.21091 6.19044 9.59669 4.80466 9.59669 3.09522C9.59669 1.38578 8.21091 0 6.50147 0C4.79203 0 3.40625 1.38578 3.40625 3.09522C3.40625 4.80466 4.79203 6.19044 6.50147 6.19044Z" fill="#707070"/>
<path d="M7.15617 6.80946H5.8438C5.07395 6.8119 4.31211 6.96594 3.60179 7.26281C2.89147 7.55967 2.24657 7.99353 1.70393 8.53963C1.16128 9.08572 0.731515 9.73335 0.439159 10.4455C0.146803 11.1577 -0.00241317 11.9205 2.95117e-05 12.6904C2.95117e-05 12.7725 0.0326398 12.8512 0.0906864 12.9092C0.148733 12.9673 0.227461 12.9999 0.309551 12.9999H12.6904C12.7763 12.9921 12.8561 12.9519 12.9135 12.8876C12.971 12.8232 13.0019 12.7395 12.9999 12.6532C12.9967 11.1044 12.3799 9.61989 11.2847 8.52468C10.1895 7.42947 8.70503 6.81273 7.15617 6.80946Z" fill="#707070"/>
</svg>
