<svg width="45" height="45" viewBox="0 0 45 45" fill="none" xmlns="http://www.w3.org/2000/svg">
<path d="M35.6199 32.6711C35.6145 32.4952 35.5735 32.3222 35.4992 32.1627C35.425 32.0032 35.3191 31.8604 35.1879 31.7431L27.7499 25.1114C27.0287 26.135 26.1368 27.0268 25.1133 27.748L31.7449 35.186C32.2144 35.7347 33.1237 35.7609 33.6241 35.2399L35.2417 33.6223C35.3659 33.4976 35.4635 33.349 35.5285 33.1855C35.5935 33.022 35.6246 32.847 35.6199 32.6711Z" fill="#408BC5"/>
<path d="M29.0732 18.8908C29.0732 13.2769 24.506 8.70969 18.8921 8.70969C13.2782 8.70969 8.71094 13.2769 8.71094 18.8908C8.71094 24.5047 13.2782 29.072 18.8921 29.072C24.506 29.072 29.0732 24.5047 29.0732 18.8908ZM18.8921 26.6479C14.6149 26.6479 11.135 23.168 11.135 18.8908C11.135 14.6137 14.6149 11.1338 18.8921 11.1338C23.1692 11.1338 26.6491 14.6137 26.6491 18.8908C26.6491 23.168 23.1692 26.6479 18.8921 26.6479Z" fill="#408BC5"/>
<path d="M18.8921 13.504C17.6925 13.5054 16.5424 13.9826 15.6941 14.8309C14.8458 15.6792 14.3686 16.8293 14.3672 18.0289C14.3672 19.2658 15.0754 20.68 16.4724 22.2321C17.0947 22.9215 17.7711 23.56 18.4953 24.1415C18.6088 24.2297 18.7484 24.2776 18.8921 24.2776C19.0359 24.2776 19.1755 24.2297 19.289 24.1415C20.0131 23.56 20.6896 22.9215 21.3119 22.2321C22.7088 20.68 23.4171 19.2658 23.4171 18.0289C23.4157 16.8293 22.9385 15.6792 22.0902 14.8309C21.2419 13.9826 20.0918 13.5054 18.8921 13.504ZM18.8921 20.1837C18.466 20.1837 18.0494 20.0573 17.695 19.8205C17.3407 19.5838 17.0645 19.2472 16.9014 18.8535C16.7383 18.4598 16.6957 18.0265 16.7788 17.6085C16.8619 17.1906 17.0672 16.8066 17.3685 16.5053C17.6699 16.2039 18.0538 15.9987 18.4718 15.9156C18.8897 15.8324 19.323 15.8751 19.7167 16.0382C20.1104 16.2013 20.447 16.4775 20.6837 16.8318C20.9205 17.1862 21.0469 17.6027 21.0469 18.0289C21.0462 18.6002 20.819 19.1479 20.4151 19.5518C20.0111 19.9558 19.4634 20.183 18.8921 20.1837Z" fill="#408BC5"/>
</svg>
