<svg width="35" height="35" viewBox="0 0 35 35" fill="none" xmlns="http://www.w3.org/2000/svg">
<mask id="mask0" mask-type="alpha" maskUnits="userSpaceOnUse" x="0" y="0" width="35" height="35">
<rect width="35" height="35" fill="#C4C4C4"/>
</mask>
<g mask="url(#mask0)">
<path d="M30.2275 10.7235L9.85132 5.64319L5.01288 25.0491L25.3891 30.1295L30.2275 10.7235Z" fill="white"/>
<path d="M29.0152 11.4519L10.5796 6.85541L6.225 24.3207L24.6606 28.9172L29.0152 11.4519Z" stroke="#165F88" stroke-width="2"/>
<path d="M9.85389 9.76629C11.4615 10.1671 13.0897 9.18881 13.4905 7.58117C13.8914 5.97353 12.9131 4.34535 11.3054 3.94452C9.69778 3.54369 8.06959 4.522 7.66877 6.12964C7.26794 7.73728 8.24625 9.36546 9.85389 9.76629Z" fill="white"/>
<path d="M9.85378 9.76629C11.4614 10.1671 13.0896 9.18881 13.4904 7.58117C13.8913 5.97353 12.913 4.34535 11.3053 3.94452C9.69768 3.54369 8.06949 4.522 7.66866 6.12964C7.26783 7.73728 8.24615 9.36546 9.85378 9.76629Z" stroke="#165F88" stroke-width="2"/>
<path d="M23.9349 31.8281C25.5426 32.2289 27.1708 31.2506 27.5716 29.643C27.9724 28.0354 26.9941 26.4072 25.3865 26.0063C23.7788 25.6055 22.1506 26.5838 21.7498 28.1915C21.349 29.7991 22.3273 31.4273 23.9349 31.8281Z" fill="white"/>
<path d="M23.9348 31.8281C25.5425 32.2289 27.1707 31.2506 27.5715 29.643C27.9723 28.0354 26.994 26.4072 25.3864 26.0063C23.7787 25.6055 22.1505 26.5838 21.7497 28.1915C21.3489 29.7991 22.3272 31.4273 23.9348 31.8281Z" stroke="#165F88" stroke-width="2"/>
<path d="M5.49939 27.2316C7.10703 27.6325 8.73522 26.6541 9.13605 25.0465C9.53688 23.4389 8.55856 21.8107 6.95093 21.4098C5.34329 21.009 3.7151 21.9873 3.31427 23.595C2.91344 25.2026 3.89176 26.8308 5.49939 27.2316Z" fill="white"/>
<path d="M5.49929 27.2316C7.10693 27.6325 8.73512 26.6541 9.13595 25.0465C9.53677 23.4389 8.55846 21.8107 6.95082 21.4098C5.34319 21.009 3.715 21.9873 3.31417 23.595C2.91334 25.2026 3.89165 26.8308 5.49929 27.2316Z" stroke="#165F88" stroke-width="2"/>
<path d="M28.2894 14.3628C29.8971 14.7636 31.5253 13.7853 31.9261 12.1777C32.3269 10.57 31.3486 8.94184 29.741 8.54101C28.1333 8.14018 26.5051 9.1185 26.1043 10.7261C25.7035 12.3338 26.6818 13.962 28.2894 14.3628Z" fill="white"/>
<path d="M28.2893 14.3628C29.897 14.7636 31.5252 13.7853 31.926 12.1777C32.3268 10.57 31.3485 8.94184 29.7409 8.54101C28.1332 8.14018 26.505 9.1185 26.1042 10.7261C25.7034 12.3338 26.6817 13.962 28.2893 14.3628Z" stroke="#165F88" stroke-width="2"/>
</g>
</svg>
