<svg width="45" height="45" viewBox="0 0 45 45" fill="none" xmlns="http://www.w3.org/2000/svg">
<path d="M10.2866 23.865H12.6298C13.2456 28.5137 16.9035 32.1717 21.5523 32.7874V35.1306C21.5531 35.3793 21.7545 35.5805 22.0029 35.5813H23.8056C24.054 35.5805 24.2554 35.3793 24.2562 35.1306V32.7874C28.905 32.1717 32.5629 28.5137 33.1787 23.865H35.5219C35.7705 23.8642 35.9717 23.6628 35.9725 23.4143V21.6117C35.9717 21.3632 35.7705 21.1618 35.5219 21.161H33.1787C32.5629 16.5123 28.905 12.8544 24.2562 12.2386V9.89536C24.2554 9.6467 24.054 9.4455 23.8056 9.4447H22.0029C21.7545 9.4455 21.5531 9.6467 21.5523 9.89536V12.2386C16.9035 12.8544 13.2456 16.5123 12.6298 21.161H10.2866C10.0379 21.1618 9.83674 21.3632 9.83594 21.6117V23.4143C9.83674 23.6628 10.0379 23.8642 10.2866 23.865ZM22.9042 14.8522C27.135 14.8522 30.565 18.2822 30.565 22.513C30.565 26.7438 27.135 30.1738 22.9042 30.1738C18.6734 30.1738 15.2434 26.7438 15.2434 22.513C15.2494 18.2846 18.6758 14.8582 22.9042 14.8522Z" fill="white"/>
<path d="M26.5109 22.513C26.5109 24.5041 24.8969 26.1181 22.9059 26.1181C20.9148 26.1181 19.3008 24.5041 19.3008 22.513C19.3008 20.522 20.9148 18.908 22.9059 18.908C24.8969 18.908 26.5109 20.522 26.5109 22.513Z" fill="white"/>
</svg>
