<svg width="20" height="20" viewBox="0 0 20 20" fill="none" xmlns="http://www.w3.org/2000/svg">
<path fill-rule="evenodd" clip-rule="evenodd" d="M2.35376 0.223877C1.24919 0.223877 0.35376 1.11931 0.35376 2.22388V12.4951C0.35376 13.5996 1.24919 14.4951 2.35376 14.4951H4.35376V6.22388C4.35376 5.11931 5.24919 4.22388 6.35376 4.22388H15.4178V2.22388C15.4178 1.11931 14.5224 0.223877 13.4178 0.223877H2.35376Z" fill="white"/>
<path fill-rule="evenodd" clip-rule="evenodd" d="M18.2719 6.03369H7.27783C6.51884 6.03369 5.90356 6.64897 5.90356 7.40795V18.402C5.90356 19.161 6.51884 19.7763 7.27783 19.7763H18.2719C19.0309 19.7763 19.6462 19.161 19.6462 18.402V7.40795C19.6462 6.64897 19.0309 6.03369 18.2719 6.03369ZM17.5312 11.5957H14.0428V8.09525H11.8763V11.5957H8.36952V13.5145H11.8763V17.257H14.0428V13.5145H17.5312V11.5957Z" fill="white"/>
</svg>
