<svg width="12" height="13" viewBox="0 0 12 13" fill="none" xmlns="http://www.w3.org/2000/svg">
<path d="M11.9979 10.9767C11.9956 10.8983 11.9773 10.8211 11.9441 10.75C11.911 10.6789 11.8638 10.6152 11.8053 10.5629L8.48829 7.60547C8.16668 8.06192 7.76895 8.45965 7.3125 8.78126L10.2699 12.0983C10.4793 12.3429 10.8848 12.3546 11.1079 12.1223L11.8293 11.4009C11.8847 11.3453 11.9282 11.279 11.9572 11.2061C11.9862 11.1332 12.0001 11.0551 11.9979 10.9767Z" fill="#333333"/>
<path d="M9.0806 4.83132C9.0806 2.32779 7.04383 0.291016 4.5403 0.291016C2.03677 0.291016 0 2.32779 0 4.83132C0 7.33485 2.03677 9.37162 4.5403 9.37162C7.04383 9.37162 9.0806 7.33485 9.0806 4.83132ZM4.5403 8.29059C2.63289 8.29059 1.08102 6.73872 1.08102 4.83132C1.08102 2.92391 2.63289 1.37204 4.5403 1.37204C6.44771 1.37204 7.99958 2.92391 7.99958 4.83132C7.99958 6.73872 6.44771 8.29059 4.5403 8.29059Z" fill="#333333"/>
<path d="M4.54135 2.42871C4.00636 2.42935 3.49347 2.64215 3.11517 3.02045C2.73688 3.39874 2.52407 3.91163 2.52344 4.44662C2.52344 4.99823 2.83929 5.62888 3.46227 6.32105C3.73978 6.62848 4.04144 6.91322 4.36437 7.17253C4.41497 7.21189 4.47725 7.23325 4.54135 7.23325C4.60545 7.23325 4.66772 7.21189 4.71832 7.17253C5.04126 6.91322 5.34292 6.62848 5.62043 6.32105C6.24341 5.62888 6.55926 4.99823 6.55926 4.44662C6.55862 3.91163 6.34582 3.39874 5.96753 3.02045C5.58923 2.64215 5.07634 2.42935 4.54135 2.42871ZM4.54135 5.40753C4.3513 5.40753 4.16552 5.35118 4.0075 5.24559C3.84947 5.14 3.72631 4.98993 3.65358 4.81435C3.58085 4.63876 3.56183 4.44556 3.5989 4.25916C3.63598 4.07276 3.7275 3.90154 3.86188 3.76716C3.99627 3.63277 4.16749 3.54125 4.35388 3.50418C4.54028 3.4671 4.73349 3.48613 4.90907 3.55886C5.08466 3.63159 5.23473 3.75475 5.34032 3.91277C5.4459 4.07079 5.50226 4.25657 5.50226 4.44662C5.50197 4.70138 5.40064 4.94563 5.2205 5.12577C5.04036 5.30592 4.79611 5.40725 4.54135 5.40753Z" fill="#333333"/>
</svg>
