<svg width="12" height="12" viewBox="0 0 12 12" fill="none" xmlns="http://www.w3.org/2000/svg">
<path d="M9.77097 0.185113C9.65244 0.066587 9.49168 0 9.32405 0C9.15643 0 8.99567 0.066587 8.87713 0.185113L8.3205 0.741744L9.29877 1.72C9.31745 1.73805 9.33236 1.75964 9.34261 1.78351C9.35287 1.80738 9.35826 1.83306 9.35849 1.85903C9.35871 1.88501 9.35376 1.91078 9.34393 1.93482C9.33409 1.95887 9.31956 1.98071 9.30119 1.99908C9.28282 2.01745 9.26097 2.03198 9.23693 2.04182C9.21288 2.05166 9.18712 2.05661 9.16114 2.05638C9.13516 2.05615 9.10949 2.05076 9.08562 2.0405C9.06175 2.03025 9.04016 2.01534 9.02211 1.99666L8.04385 1.0184L6.34167 2.72057L7.67677 4.05567C7.69546 4.07372 7.71037 4.09531 7.72062 4.11918C7.73087 4.14305 7.73627 4.16872 7.7365 4.1947C7.73672 4.22068 7.73177 4.24644 7.72194 4.27049C7.7121 4.29453 7.69757 4.31638 7.6792 4.33475C7.66083 4.35312 7.63898 4.36764 7.61494 4.37748C7.59089 4.38732 7.56513 4.39227 7.53915 4.39204C7.51317 4.39182 7.4875 4.38642 7.46363 4.37617C7.43976 4.36591 7.41817 4.35101 7.40012 4.33232L6.06499 2.99722L4.36281 4.6994L5.34108 5.67766C5.35965 5.69573 5.37445 5.71732 5.38461 5.74116C5.39477 5.765 5.4001 5.79062 5.40028 5.81654C5.40045 5.84245 5.39548 5.86815 5.38564 5.89213C5.37581 5.9161 5.36131 5.93789 5.34298 5.95622C5.32466 5.97454 5.30287 5.98905 5.2789 5.99889C5.25492 6.00872 5.22923 6.0137 5.20331 6.01353C5.17739 6.01335 5.15177 6.00803 5.12793 5.99787C5.10409 5.98771 5.0825 5.97291 5.06442 5.95434L4.08616 4.97608L2.38399 6.67826L3.71912 8.01335C3.75532 8.05015 3.77551 8.09975 3.7753 8.15137C3.77509 8.20298 3.75449 8.25242 3.718 8.28892C3.6815 8.32541 3.63206 8.34601 3.58044 8.34622C3.52883 8.34643 3.47922 8.32624 3.44243 8.29004L2.10733 6.95491L0.185113 8.87709C0.066587 8.99562 0 9.15639 0 9.32401C0 9.49164 0.066587 9.6524 0.185113 9.77093L2.22903 11.8149C2.28771 11.8736 2.35739 11.9201 2.43407 11.9519C2.51075 11.9837 2.59293 12 2.67593 12C2.75893 12 2.84112 11.9837 2.9178 11.9519C2.99448 11.9201 3.06415 11.8736 3.12283 11.8149L11.8149 3.1229C11.9334 3.00436 12 2.8436 12 2.67598C12 2.50835 11.9334 2.34759 11.8149 2.22906L9.77097 0.185113ZM2.42413 10.3358C2.38743 10.3725 2.33767 10.3931 2.28578 10.3931C2.2339 10.3931 2.18413 10.3725 2.14744 10.3358L1.66418 9.85255C1.62798 9.81576 1.60779 9.76615 1.608 9.71454C1.60821 9.66292 1.62881 9.61348 1.6653 9.57699C1.7018 9.54049 1.75124 9.51989 1.80285 9.51968C1.85447 9.51947 1.90407 9.53967 1.94087 9.57586L2.42413 10.0591C2.46082 10.0958 2.48143 10.1456 2.48143 10.1975C2.48143 10.2494 2.46082 10.2991 2.42413 10.3358Z" fill="#333333"/>
</svg>
