<svg width="11" height="11" viewBox="0 0 11 11" fill="none" xmlns="http://www.w3.org/2000/svg">
<path fill-rule="evenodd" clip-rule="evenodd" d="M0.649259 0.649144C0.808658 0.489793 1.02482 0.400275 1.25021 0.400275C1.4756 0.400275 1.69176 0.489793 1.85116 0.649144L5.50021 4.29819L9.14926 0.649144C9.22767 0.56796 9.32146 0.503205 9.42517 0.458657C9.52887 0.41411 9.64041 0.390661 9.75327 0.389681C9.86613 0.3887 9.97806 0.410206 10.0825 0.452945C10.187 0.495684 10.2819 0.558799 10.3617 0.638608C10.4415 0.718416 10.5046 0.813321 10.5474 0.917782C10.5901 1.02224 10.6116 1.13417 10.6106 1.24703C10.6096 1.3599 10.5862 1.47143 10.5416 1.57514C10.4971 1.67884 10.4323 1.77263 10.3512 1.85104L6.70211 5.50009L10.3512 9.14914C10.506 9.30946 10.5917 9.52417 10.5897 9.74704C10.5878 9.9699 10.4984 10.1831 10.3408 10.3407C10.1832 10.4983 9.97002 10.5877 9.74715 10.5896C9.52428 10.5916 9.30957 10.5059 9.14926 10.351L5.50021 6.70199L1.85116 10.351C1.69085 10.5059 1.47614 10.5916 1.25327 10.5896C1.0304 10.5877 0.81721 10.4983 0.659613 10.3407C0.502016 10.1831 0.412623 9.9699 0.410686 9.74704C0.408749 9.52417 0.494425 9.30946 0.649259 9.14914L4.29831 5.50009L0.649259 1.85104C0.489909 1.69164 0.400391 1.47548 0.400391 1.25009C0.400391 1.0247 0.489909 0.808542 0.649259 0.649144Z" fill="#818181" stroke="#818181" stroke-width="0.5"/>
</svg>
