<svg width="24" height="23" viewBox="0 0 24 23" fill="none" xmlns="http://www.w3.org/2000/svg">
<path d="M22.9075 6.64412C22.7054 6.18609 22.4809 5.8153 22.1891 5.55357L18.0583 1.51854C17.7889 1.25681 17.4072 1.01689 16.9358 0.820591C16.4419 0.624292 16.0154 0.537048 15.6113 0.537048H1.84952C1.46787 0.537048 1.13113 0.667914 0.839278 0.929646C0.56988 1.21319 0.435181 1.54035 0.435181 1.91114V21.2793C0.435181 21.6719 0.56988 21.999 0.839278 22.2608C1.10868 22.5225 1.44542 22.6534 1.84952 22.6534H21.785C22.1891 22.6534 22.5258 22.5225 22.7952 22.2608C23.0646 21.999 23.1993 21.6719 23.1993 21.2793V7.90916C23.2218 7.53837 23.1095 7.10215 22.9075 6.64412ZM9.93146 2.84901C9.93146 2.71815 9.97636 2.60909 10.0662 2.52185C10.156 2.4346 10.2682 2.39098 10.4029 2.39098H13.254C13.3887 2.39098 13.501 2.4346 13.5908 2.52185C13.6806 2.60909 13.7255 2.71815 13.7255 2.84901V7.45113C13.7255 7.58199 13.6806 7.69105 13.5908 7.77829C13.501 7.86553 13.3887 7.90916 13.254 7.90916H10.4029C10.2682 7.90916 10.156 7.86553 10.0662 7.77829C9.97636 7.69105 9.93146 7.58199 9.93146 7.45113V2.84901ZM17.5195 20.8213H6.13744V15.2813H17.5195V20.8213ZM21.3135 20.8213H19.4053V14.8232C19.4053 14.4306 19.2706 14.1035 19.0012 13.8417C18.7318 13.58 18.395 13.4491 17.9909 13.4491H5.64354C5.23944 13.4491 4.9027 13.58 4.6333 13.8417C4.3639 14.1035 4.2292 14.4306 4.2292 14.8232V20.8213H2.34342V2.39098H4.25165V8.389C4.25165 8.7816 4.38635 9.10876 4.65575 9.37049C4.92515 9.63222 5.26189 9.76309 5.66599 9.76309H14.2194C14.6235 9.76309 14.9602 9.63222 15.2296 9.37049C15.499 9.10876 15.6337 8.7816 15.6337 8.389V2.39098C15.7909 2.39098 15.9705 2.4346 16.2174 2.54366C16.4644 2.6309 16.6215 2.73996 16.7113 2.8272L20.8645 6.86223C20.9543 6.94947 21.0666 7.12396 21.1564 7.36388C21.2462 7.6038 21.3135 7.77829 21.3135 7.90916V20.8213Z" fill="#408BC5"/>
</svg>
