<svg width="20" height="20" viewBox="0 0 20 20" fill="none" xmlns="http://www.w3.org/2000/svg">
<path d="M15 5H5C3.67392 5 2.40215 5.52678 1.46447 6.46447C0.526784 7.40215 0 8.67392 0 10C0 11.3261 0.526784 12.5979 1.46447 13.5355C2.40215 14.4732 3.67392 15 5 15H15C16.3261 15 17.5979 14.4732 18.5355 13.5355C19.4732 12.5979 20 11.3261 20 10C20 8.67392 19.4732 7.40215 18.5355 6.46447C17.5979 5.52678 16.3261 5 15 5ZM15 13C14.2044 13 13.4413 12.6839 12.8787 12.1213C12.3161 11.5587 12 10.7956 12 10C12 9.20435 12.3161 8.44129 12.8787 7.87868C13.4413 7.31607 14.2044 7 15 7C15.7956 7 16.5587 7.31607 17.1213 7.87868C17.6839 8.44129 18 9.20435 18 10C18 10.7956 17.6839 11.5587 17.1213 12.1213C16.5587 12.6839 15.7956 13 15 13Z" fill="#408BC5"/>
</svg>
