<svg width="20" height="20" viewBox="0 0 20 20" fill="none" xmlns="http://www.w3.org/2000/svg">
<g clip-path="url(#clip0)">
<path d="M15.5 9.99905H7.75V6.77718C7.75 5.53968 8.74063 4.51155 9.97813 4.49905C11.2281 4.48655 12.25 5.50218 12.25 6.74905V7.24905C12.25 7.66468 12.5844 7.99905 13 7.99905H14C14.4156 7.99905 14.75 7.66468 14.75 7.24905V6.74905C14.75 4.12405 12.6094 1.98968 9.98438 1.99905C7.35938 2.00843 5.25 4.17093 5.25 6.79593V9.99905H4.5C3.67188 9.99905 3 10.6709 3 11.4991V16.4991C3 17.3272 3.67188 17.9991 4.5 17.9991H15.5C16.3281 17.9991 17 17.3272 17 16.4991V11.4991C17 10.6709 16.3281 9.99905 15.5 9.99905Z" fill="white"/>
</g>
<defs>
<clipPath id="clip0">
<rect width="14" height="16" fill="white" transform="translate(3 2)"/>
</clipPath>
</defs>
</svg>
