<svg width="25" height="25" viewBox="0 0 25 25" fill="none" xmlns="http://www.w3.org/2000/svg">
<rect width="25" height="25" fill="#0952CA"/>
<path d="M7.521 15.14C7.248 15.946 6.819 16.83 6.377 17.441C6.663 17.61 7.157 17.948 7.391 18.143C7.846 17.48 8.379 16.414 8.704 15.478L7.521 15.14ZM10.576 9.537C10.446 10.018 10.212 10.681 10.017 11.149H8.145L9.081 10.889C9.016 10.525 8.847 9.966 8.652 9.537H10.576ZM12.539 14.724V13.424H10.524V12.423H12.747V11.149H11.395C11.59 10.746 11.785 10.239 11.98 9.745L10.927 9.537H12.552V8.276H10.693C10.537 7.834 10.303 7.301 10.108 6.872L8.561 7.249C8.691 7.561 8.834 7.925 8.951 8.276H6.728V9.537H8.483L7.417 9.797C7.573 10.2 7.729 10.759 7.794 11.149H6.533V12.423H9.029V13.424H6.611V14.724H9.029V19.04H10.524V14.724H12.539ZM18.545 11.266H14.619V9.225C15.893 8.991 17.245 8.679 18.311 8.25L17.128 7.119C16.179 7.561 14.606 7.964 13.189 8.224V12.852C13.189 14.048 13.15 15.452 12.786 16.7C12.565 16.206 12.162 15.517 11.811 14.997L10.797 15.543C11.161 16.141 11.603 16.973 11.811 17.493L12.734 16.921C12.591 17.376 12.396 17.805 12.149 18.182C12.474 18.338 13.085 18.832 13.345 19.105C14.45 17.441 14.619 14.763 14.619 12.852V12.696H15.828V19.079H17.336V12.696H18.545V11.266Z" fill="white"/>
</svg>
