<svg width="25" height="25" viewBox="0 0 25 25" fill="none" xmlns="http://www.w3.org/2000/svg">
<rect width="25" height="25" fill="#707070"/>
<path d="M15.321 14.399H14.346V12.748H15.321V14.399ZM9.874 12.748H10.758V14.399H9.874V12.748ZM13.059 12.748V14.399H12.045V12.748H13.059ZM18.025 12.748V11.37H16.751V10.2H15.321V11.37H14.346V10.2H13.059V11.37H12.045V10.2H10.758V11.37H9.874V10.2H8.496V11.37H7.105V12.748H8.496V14.399H6.715V15.777H18.311V14.399H16.751V12.748H18.025ZM17.947 9.719V8.354H9.77C10.004 7.99 10.212 7.639 10.381 7.275L9.042 6.833C8.444 8.042 7.417 9.186 6.351 9.914C6.624 10.2 7.066 10.876 7.235 11.162C7.755 10.772 8.262 10.265 8.756 9.719H17.947ZM8.106 19.183C8.587 18.468 9.185 17.337 9.549 16.427L8.054 16.037C7.69 16.921 7.066 17.961 6.598 18.572L8.106 19.183ZM10.251 16.557C10.407 17.363 10.498 18.429 10.498 19.053L12.019 18.832C12.006 18.208 11.863 17.181 11.694 16.401L10.251 16.557ZM12.89 16.531C13.189 17.337 13.488 18.377 13.566 19.001L15.113 18.702C14.996 18.052 14.671 17.051 14.346 16.297L12.89 16.531ZM15.529 16.505C16.062 17.35 16.686 18.481 16.946 19.157L18.467 18.494C18.155 17.792 17.492 16.713 16.946 15.933L15.529 16.505Z" fill="white"/>
</svg>
