<svg width="25" height="25" viewBox="0 0 25 25" fill="none" xmlns="http://www.w3.org/2000/svg">
<rect width="25" height="25" fill="#FF5555"/>
<path d="M10.277 9.251H18.402V7.977H15.204C15.061 7.626 14.853 7.223 14.658 6.885L13.228 7.275C13.345 7.483 13.462 7.73 13.566 7.977H10.303C10.368 7.808 10.42 7.652 10.485 7.483L9.081 7.041C8.47 8.874 7.417 10.72 6.312 11.903C6.572 12.267 6.975 13.125 7.118 13.502C7.352 13.229 7.586 12.93 7.82 12.618V19.118H9.224V10.343C9.614 9.602 9.965 8.809 10.277 8.042V9.251ZM12.461 10.772H16.036V11.461H12.461V10.772ZM17.518 12.501V9.745H11.057V12.501H17.518ZM18.519 13.021H9.978V15.374H11.304V14.23H17.128V14.906H11.317V16.115H13.54V17.558C13.54 17.714 13.475 17.753 13.28 17.753C13.085 17.753 12.318 17.753 11.72 17.727C11.902 18.13 12.097 18.663 12.162 19.079C13.137 19.079 13.865 19.079 14.411 18.884C14.957 18.676 15.1 18.312 15.1 17.61V16.115H17.154V15.374H18.519V13.021Z" fill="white"/>
</svg>
