<svg width="25" height="25" viewBox="0 0 25 25" fill="none" xmlns="http://www.w3.org/2000/svg">
<rect width="25" height="25" fill="#F97D26"/>
<path d="M16.567 11.617H13.668V10.798H16.567V11.617ZM16.567 13.502H13.668V12.67H16.567V13.502ZM16.567 15.4H13.668V14.568H16.567V15.4ZM11.276 14.932C11.562 14.165 11.913 12.943 12.186 11.864L11.25 11.656L11.042 11.695H10.418L10.756 11.214C10.548 11.019 10.288 10.811 9.976 10.603C10.652 9.91397 11.328 9.01697 11.822 8.22397V8.79597H14.292C14.253 9.08197 14.214 9.36797 14.162 9.65397H12.264V16.531H18.049V9.65397H15.709C15.8 9.38097 15.891 9.09497 15.982 8.79597H18.426V7.49597H11.822V8.09397L10.938 7.44397L10.665 7.53497H6.687V8.87397H9.703C9.456 9.25097 9.157 9.61497 8.871 9.92697C8.468 9.70597 8.052 9.49797 7.675 9.32897L6.908 10.33C7.636 10.694 8.494 11.201 9.157 11.695H6.375V13.06H8.299V17.441C8.299 17.584 8.247 17.623 8.065 17.636C7.896 17.636 7.285 17.636 6.726 17.623C6.934 18.039 7.142 18.663 7.194 19.105C8.065 19.105 8.715 19.066 9.196 18.832C9.677 18.598 9.794 18.195 9.794 17.467V13.06H10.574C10.431 13.671 10.275 14.269 10.132 14.698L11.276 14.932ZM13.525 16.544C12.966 17.116 11.822 17.805 10.808 18.156C11.146 18.429 11.601 18.871 11.848 19.17C12.849 18.78 14.071 18.052 14.786 17.363L13.525 16.544ZM15.41 17.402C16.138 17.922 17.1 18.676 17.542 19.17L18.764 18.299C18.257 17.805 17.269 17.103 16.554 16.635L15.41 17.402Z" fill="white"/>
</svg>
