<svg width="25" height="25" viewBox="0 0 25 25" fill="none" xmlns="http://www.w3.org/2000/svg">
<rect width="25" height="25" fill="#00840E"/>
<path d="M15.1 10.447V11.435C15.1 12.618 15.373 13.047 16.608 13.047H17.622C17.921 13.047 18.259 13.047 18.441 12.956C18.402 12.644 18.376 12.111 18.35 11.76C18.168 11.825 17.804 11.851 17.583 11.851H16.673C16.478 11.851 16.439 11.747 16.439 11.448V10.343L16.907 10.304C17.089 10.564 17.232 10.798 17.349 11.006L18.61 10.304C18.142 9.576 17.18 8.406 16.504 7.548L15.334 8.146C15.555 8.445 15.802 8.77 16.062 9.121L13.683 9.277C14.307 8.692 14.905 8.003 15.425 7.314L13.956 6.872C13.358 7.86 12.435 8.809 12.149 9.069C11.85 9.342 11.616 9.511 11.369 9.576C11.538 9.94 11.746 10.603 11.811 10.889C12.032 10.798 12.292 10.733 13.072 10.642C12.864 11.461 12.409 12.046 10.927 12.41C11.213 12.644 11.59 13.19 11.72 13.528C13.67 12.904 14.268 11.916 14.489 10.499L15.1 10.447ZM11.122 9.264H8.639L9.848 8.926C9.718 8.432 9.445 7.665 9.172 7.093L7.846 7.392C8.067 7.964 8.327 8.744 8.444 9.264H6.676V10.681H11.122V9.264ZM8.743 15.452C8.704 14.256 8.47 12.514 8.145 11.149L6.975 11.37C7.248 12.735 7.469 14.529 7.482 15.686L8.743 15.452ZM15.815 14.75C15.516 15.244 15.113 15.673 14.645 16.05C14.32 15.777 14.021 15.465 13.774 15.166C13.878 15.023 13.982 14.893 14.086 14.75H15.815ZM16.881 13.489L16.608 13.554H14.775C14.879 13.346 14.97 13.125 15.048 12.904L13.631 12.592C13.475 13.047 13.254 13.489 12.994 13.879C12.916 13.736 12.851 13.58 12.799 13.424L11.694 13.97C11.798 14.269 11.928 14.581 12.084 14.893C11.759 15.192 11.382 15.452 10.966 15.66L10.927 15.387L10.095 15.595C10.342 14.373 10.615 12.722 10.81 11.318L9.406 11.11C9.328 12.553 9.094 14.594 8.847 15.907C7.989 16.115 7.17 16.31 6.546 16.44L6.884 17.961C8.119 17.623 9.679 17.194 11.135 16.791L10.979 15.686C11.291 15.946 11.785 16.453 11.98 16.726C12.279 16.557 12.578 16.336 12.851 16.102C13.046 16.349 13.241 16.596 13.475 16.817C12.591 17.285 11.564 17.623 10.446 17.831C10.732 18.143 11.07 18.741 11.226 19.131C12.487 18.832 13.657 18.403 14.671 17.805C15.529 18.364 16.569 18.819 17.817 19.105C18.012 18.715 18.389 18.091 18.688 17.805C17.596 17.623 16.686 17.298 15.893 16.895C16.764 16.128 17.44 15.166 17.882 13.944L16.881 13.489Z" fill="white"/>
</svg>
