<svg width="60" height="50" viewBox="0 0 60 50" fill="none" xmlns="http://www.w3.org/2000/svg">
<path d="M14.7187 29.493L5.5625 29.6771V30.1523C5.74482 32.3238 9.01004 32.7121 9.01004 32.7121C10.3197 32.917 11.6605 32.7627 12.8893 32.2658C14.8008 31.4369 14.7187 30.1523 14.7187 30.1523V29.493Z" fill="#858387"/>
<path d="M13.6022 8.22765H6.69106L5.98828 29.5793C6.15357 31.5503 9.11993 31.9033 9.11993 31.9033C10.309 32.0892 11.5263 31.9491 12.642 31.498C14.3788 30.7454 14.3043 29.5793 14.3043 29.5793L13.6022 8.22765Z" fill="#D1D1D1"/>
<path d="M12.5041 8.21313C13.3905 29.0473 9.4375 31.9323 9.4375 31.9323C10.0767 32.0087 10.7238 31.9858 11.3559 31.8642C14.2907 31.3537 14.304 29.5642 14.304 29.5642L13.6025 8.21313H12.5041Z" fill="#68686C"/>
<path d="M12.59 6.81823C11.8329 6.43445 10.9959 6.23445 10.147 6.23445C9.29802 6.23445 8.46101 6.43445 7.70393 6.81823C6.3539 7.59605 6.3539 8.85859 7.70393 9.63704C8.46099 10.0209 9.29802 10.2209 10.147 10.2209C10.9959 10.2209 11.8329 10.0209 12.59 9.63704C13.9394 8.85859 13.9394 7.59416 12.59 6.81823Z" fill="#D3D3D3"/>
<path d="M13.5647 11.9996C9.68047 14.3652 6.94512 12.1483 6.82715 12.0494C6.71381 11.9533 6.56697 11.906 6.41884 11.9179C6.27071 11.9297 6.13339 11.9996 6.03673 12.1124C5.94003 12.2257 5.89229 12.3728 5.90412 12.5213C5.91595 12.6698 5.98629 12.8075 6.09972 12.9041C7.24242 13.7493 8.62842 14.2017 10.0501 14.1937C11.5058 14.1711 12.9261 13.7424 14.1507 12.9558C14.214 12.9176 14.2691 12.8674 14.3129 12.8079C14.3566 12.7485 14.3883 12.681 14.4059 12.6093C14.4235 12.5376 14.4266 12.4632 14.4153 12.3902C14.404 12.3173 14.3784 12.2473 14.34 12.1842C14.3015 12.121 14.2508 12.066 14.1909 12.0224C14.131 11.9788 14.0631 11.9475 13.991 11.9303C13.9189 11.9131 13.844 11.9104 13.7709 11.9223C13.6977 11.9342 13.6276 11.9605 13.5647 11.9996Z" fill="#FFA844"/>
<path d="M13.7519 17.1367C12.6584 17.7526 11.4247 18.0771 10.1695 18.079C8.91418 18.0808 7.67944 17.76 6.58408 17.1474C6.45735 17.0693 6.30488 17.0445 6.15991 17.0785C6.01494 17.1126 5.88939 17.2026 5.81075 17.3289C5.73233 17.4556 5.70738 17.6082 5.74144 17.7532C5.77551 17.8982 5.8657 18.0238 5.99234 18.1024C7.28247 18.829 8.73804 19.2117 10.2191 19.2136C11.654 19.2116 13.0631 18.832 14.3045 18.1131C14.3687 18.0766 14.4251 18.0279 14.4704 17.9697C14.5157 17.9114 14.5491 17.8449 14.5687 17.7738C14.5882 17.7026 14.5935 17.6284 14.5844 17.5552C14.5752 17.482 14.5517 17.4113 14.5152 17.3472C14.4414 17.2187 14.3198 17.1245 14.1769 17.0851C14.0339 17.0457 13.8812 17.0642 13.7519 17.1367Z" fill="#FFA844"/>
<path d="M13.9458 22.3665C10.3537 24.2575 6.41526 22.3855 6.36037 22.359C6.22657 22.2936 6.07224 22.2839 5.93128 22.332C5.79032 22.3801 5.6743 22.482 5.60846 22.6155C5.54277 22.7492 5.53271 22.9035 5.58073 23.0445C5.62875 23.1854 5.73093 23.3016 5.86459 23.3675C7.27969 24.0039 8.81254 24.3368 10.3644 24.3445C11.7929 24.3571 13.2027 24.0192 14.47 23.3606C14.6011 23.2909 14.6993 23.1723 14.7433 23.0306C14.7872 22.889 14.7734 22.7357 14.7048 22.6042C14.6706 22.5387 14.6239 22.4806 14.5672 22.4332C14.5106 22.3858 14.4452 22.35 14.3747 22.328C14.3042 22.3059 14.2299 22.2979 14.1563 22.3046C14.0827 22.3112 14.0112 22.3322 13.9458 22.3665Z" fill="#FFA844"/>
<path d="M23.1322 25.2338L13.9766 25.4185V25.8937C14.1582 28.0652 17.4241 28.4535 17.4241 28.4535C18.7335 28.6584 20.0742 28.5042 21.3027 28.0072C23.2149 27.1783 23.1322 25.8937 23.1322 25.8937V25.2338Z" fill="#858387"/>
<path d="M21.7919 23.5514C20.7887 23.0427 19.6796 22.7775 18.5546 22.7775C17.4296 22.7775 16.3206 23.0427 15.3175 23.5514C13.5296 24.5826 13.5296 26.2548 15.3175 27.2861C16.3207 27.7945 17.4297 28.0595 18.5546 28.0595C19.6795 28.0595 20.7887 27.7945 21.7919 27.2861C23.5798 26.2517 23.5798 24.5826 21.7919 23.5514Z" fill="#2C1F1B"/>
<path d="M22.0109 3.96916H15.1012L14.3984 25.3203C14.5637 27.2919 17.5293 27.6449 17.5293 27.6449C18.7184 27.8308 19.9357 27.6907 21.0514 27.2396C22.7881 26.487 22.7137 25.3203 22.7137 25.3203L22.0109 3.96916Z" fill="#D1D1D1"/>
<path d="M20.9148 3.95465C21.8011 24.7888 17.8477 27.6739 17.8477 27.6739C18.487 27.7499 19.1343 27.7269 19.7667 27.6058C22.7008 27.0952 22.7146 25.3057 22.7146 25.3057L22.0125 3.95465H20.9148Z" fill="#68686C"/>
<path d="M20.9956 2.55968C20.2386 2.17586 19.4015 1.97583 18.5526 1.97583C17.7036 1.97583 16.8668 2.17586 16.1097 2.55968C14.7603 3.33751 14.7603 4.60004 16.1097 5.37849C16.8668 5.76232 17.7036 5.96235 18.5526 5.96235C19.4015 5.96235 20.2386 5.76232 20.9956 5.37849C22.3456 4.60004 22.3456 3.33751 20.9956 2.55968Z" fill="#D3D3D3"/>
<path d="M21.9707 7.741C18.0872 10.1066 15.3511 7.88915 15.2331 7.79082C15.1198 7.69479 14.9731 7.64751 14.8249 7.65932C14.6768 7.67113 14.5393 7.74106 14.4427 7.85384C14.3461 7.96725 14.2985 8.1143 14.3104 8.26272C14.3222 8.41113 14.3925 8.54879 14.5058 8.64552C15.6483 9.49065 17.0341 9.94314 18.4556 9.93518C19.9112 9.91241 21.3315 9.48364 22.5562 8.69722C22.6193 8.65899 22.6742 8.60869 22.7179 8.54922C22.7616 8.48975 22.7932 8.42227 22.8108 8.35063C22.8283 8.27898 22.8315 8.20459 22.8203 8.13168C22.8091 8.05877 22.7837 7.98877 22.7455 7.9257C22.7069 7.86258 22.6561 7.80767 22.5962 7.7642C22.5363 7.72072 22.4685 7.68953 22.3965 7.67236C22.3245 7.6552 22.2497 7.65242 22.1767 7.66421C22.1036 7.67599 22.0337 7.70208 21.9707 7.741Z" fill="#FFA844"/>
<path d="M22.1616 12.8781C21.0681 13.494 19.8345 13.8185 18.5792 13.8203C17.3239 13.8222 16.0893 13.5014 14.994 12.8888C14.8674 12.8105 14.7149 12.7857 14.5699 12.8197C14.425 12.8538 14.2995 12.9439 14.2211 13.0704C14.1822 13.1331 14.156 13.2028 14.1441 13.2756C14.1322 13.3484 14.1348 13.4229 14.1516 13.4947C14.1685 13.5665 14.1994 13.6343 14.2425 13.6942C14.2856 13.7541 14.3401 13.8049 14.4028 13.8438C15.6929 14.5705 17.1485 14.9532 18.6295 14.955C20.0647 14.953 21.474 14.5734 22.7156 13.8545C22.8451 13.7807 22.94 13.6587 22.9795 13.5151C23.019 13.3715 22.9999 13.2182 22.9263 13.0886C22.8524 12.9599 22.7305 12.8656 22.5873 12.8262C22.4442 12.7868 22.2911 12.8054 22.1616 12.8781Z" fill="#FFA844"/>
<path d="M22.3554 18.108C18.7632 19.999 14.8248 18.1269 14.7706 18.1004C14.6368 18.0348 14.4823 18.0251 14.3413 18.0732C14.2003 18.1213 14.0842 18.2234 14.0185 18.357C13.9528 18.4907 13.9429 18.6449 13.9909 18.7859C14.039 18.9268 14.141 19.043 14.2746 19.1089C15.6895 19.7454 17.2223 20.0782 18.774 20.0859C20.2026 20.0986 21.6124 19.7605 22.8796 19.1014C23.0109 19.032 23.1093 18.9134 23.1533 18.7716C23.1973 18.6299 23.1832 18.4764 23.1142 18.345C23.0801 18.2795 23.0333 18.2214 22.9767 18.174C22.92 18.1266 22.8547 18.0909 22.7841 18.0689C22.7136 18.0469 22.6393 18.039 22.5657 18.0457C22.4922 18.0524 22.4207 18.0736 22.3554 18.108Z" fill="#FFA844"/>
<path d="M20.4805 43.3412L30.6467 43.6608L58.9993 26.5007L47.1393 20.7647L20.4805 43.3412Z" fill="#AD6F27"/>
<path d="M37.3867 18.1351L50.431 25.6599V10.6102L37.3867 3.08539V18.1351Z" fill="#D4C9C9"/>
<path d="M7.4375 35.8164L20.4817 43.3413V28.2916L7.43812 20.768L7.4375 35.8164Z" fill="#D4C9C9"/>
<path d="M20.4805 43.3411L50.4303 25.6598V10.6101L20.4805 28.2915V43.3411Z" fill="#919191"/>
<path d="M7.4375 20.7679L20.4817 28.2928L50.4316 10.6115L37.3874 3.08667L7.4375 20.7679Z" fill="#F9F3F4"/>
<path d="M8.57031 25.1852L19.3517 31.5572V29.6952L8.57031 23.334V25.1852Z" fill="#757575"/>
<path d="M8.57031 26.9388L19.3517 33.3114V31.4488L8.57031 25.0882V26.9388Z" fill="#757575"/>
<path d="M8.57031 31.239L19.3523 37.6116V35.749L8.57031 29.3883V31.239Z" fill="#757575"/>
<path d="M8.57031 32.9964L19.3523 39.369V37.5064L8.57031 31.1451V32.9964Z" fill="#757575"/>
<path d="M25.5078 32.0205L46.5362 19.5917V15.9812L25.5078 28.388V32.0205Z" fill="#F08300"/>
<path d="M43.1412 2.83509C38.0546 -0.0499187 37.3594 3.93939 37.3594 3.93939L43.1412 7.27508L48.9237 10.6101C48.565 8.97925 47.8641 7.44295 46.8674 6.10268C45.8706 4.76241 44.6006 3.6487 43.1412 2.83509Z" fill="#D4C9C9"/>
<path d="M42.1964 2.3542C40.0111 1.33181 38.8674 1.99425 38.8674 1.99425L10.3672 18.7313L20.7466 27.1777L48.9202 10.6108C48.5615 8.78982 47.7608 7.0846 46.5885 5.64498C45.4162 4.20536 43.9079 3.07538 42.1964 2.3542Z" fill="#F4F2F2"/>
<path d="M14.9693 19.402C9.88273 16.517 9.1875 20.5063 9.1875 20.5063L14.9693 23.8414L20.7512 27.1771C20.3926 25.5463 19.6917 24.01 18.695 22.6697C17.6984 21.3295 16.4286 20.2157 14.9693 19.402Z" fill="#757575"/>
<path d="M15.5508 16.2712C20.8822 17.3466 23.3211 24.1144 23.3211 24.1144C21.2431 15.7884 15.5508 16.2712 15.5508 16.2712Z" fill="#BCBCBC"/>
<path d="M21.0586 13.1214C26.3893 14.1967 28.8289 20.9645 28.8289 20.9645C26.7503 12.6367 21.0586 13.1214 21.0586 13.1214Z" fill="#BCBCBC"/>
<path d="M26.7617 9.77124C32.0925 10.8459 34.5319 17.6138 34.5319 17.6138C32.4539 9.28842 26.7617 9.77124 26.7617 9.77124Z" fill="#BCBCBC"/>
<path d="M37.7109 3.09042C43.0417 4.16575 45.4813 10.9336 45.4813 10.9336C43.4033 2.60821 37.7109 3.09042 37.7109 3.09042Z" fill="#BCBCBC"/>
<path d="M32.2695 6.6215C37.6003 7.69684 40.0399 14.464 40.0399 14.464C37.9625 6.13931 32.2695 6.6215 32.2695 6.6215Z" fill="#BCBCBC"/>
<path d="M14.7187 29.493L5.5625 29.6771V30.1523C5.74482 32.3238 9.01004 32.7121 9.01004 32.7121C10.3197 32.917 11.6605 32.7627 12.8893 32.2658C14.8008 31.4369 14.7187 30.1523 14.7187 30.1523V29.493Z" fill="#858387"/>
<path d="M13.6022 8.22765H6.69106L5.98828 29.5793C6.15357 31.5503 9.11993 31.9033 9.11993 31.9033C10.309 32.0892 11.5263 31.9491 12.642 31.498C14.3788 30.7454 14.3043 29.5793 14.3043 29.5793L13.6022 8.22765Z" fill="#D1D1D1"/>
<path d="M12.5041 8.21313C13.3905 29.0473 9.4375 31.9323 9.4375 31.9323C10.0767 32.0087 10.7238 31.9858 11.3559 31.8642C14.2907 31.3537 14.304 29.5642 14.304 29.5642L13.6025 8.21313H12.5041Z" fill="#68686C"/>
<path d="M12.59 6.81823C11.8329 6.43445 10.9959 6.23445 10.147 6.23445C9.29802 6.23445 8.46101 6.43445 7.70393 6.81823C6.3539 7.59605 6.3539 8.85859 7.70393 9.63704C8.46099 10.0209 9.29802 10.2209 10.147 10.2209C10.9959 10.2209 11.8329 10.0209 12.59 9.63704C13.9394 8.85859 13.9394 7.59416 12.59 6.81823Z" fill="#D3D3D3"/>
<path d="M13.5647 11.9996C9.68047 14.3652 6.94512 12.1483 6.82715 12.0494C6.71381 11.9533 6.56697 11.906 6.41884 11.9179C6.27071 11.9297 6.13339 11.9996 6.03673 12.1124C5.94003 12.2257 5.89229 12.3728 5.90412 12.5213C5.91595 12.6698 5.98629 12.8075 6.09972 12.9041C7.24242 13.7493 8.62842 14.2017 10.0501 14.1937C11.5058 14.1711 12.9261 13.7424 14.1507 12.9558C14.214 12.9176 14.2691 12.8674 14.3129 12.8079C14.3566 12.7485 14.3883 12.681 14.4059 12.6093C14.4235 12.5376 14.4266 12.4632 14.4153 12.3902C14.404 12.3173 14.3784 12.2473 14.34 12.1842C14.3015 12.121 14.2508 12.066 14.1909 12.0224C14.131 11.9788 14.0631 11.9475 13.991 11.9303C13.9189 11.9131 13.844 11.9104 13.7709 11.9223C13.6977 11.9342 13.6276 11.9605 13.5647 11.9996Z" fill="#FFA844"/>
<path d="M13.7519 17.1367C12.6584 17.7526 11.4247 18.0771 10.1695 18.079C8.91418 18.0808 7.67944 17.76 6.58408 17.1474C6.45735 17.0693 6.30488 17.0445 6.15991 17.0785C6.01494 17.1126 5.88939 17.2026 5.81075 17.3289C5.73233 17.4556 5.70738 17.6082 5.74144 17.7532C5.77551 17.8982 5.8657 18.0238 5.99234 18.1024C7.28247 18.829 8.73804 19.2117 10.2191 19.2136C11.654 19.2116 13.0631 18.832 14.3045 18.1131C14.3687 18.0766 14.4251 18.0279 14.4704 17.9697C14.5157 17.9114 14.5491 17.8449 14.5687 17.7738C14.5882 17.7026 14.5935 17.6284 14.5844 17.5552C14.5752 17.482 14.5517 17.4113 14.5152 17.3472C14.4414 17.2187 14.3198 17.1245 14.1769 17.0851C14.0339 17.0457 13.8812 17.0642 13.7519 17.1367Z" fill="#FFA844"/>
<path d="M13.9458 22.3665C10.3537 24.2575 6.41526 22.3855 6.36037 22.359C6.22657 22.2936 6.07224 22.2839 5.93128 22.332C5.79032 22.3801 5.6743 22.482 5.60846 22.6155C5.54277 22.7492 5.53271 22.9035 5.58073 23.0445C5.62875 23.1854 5.73093 23.3016 5.86459 23.3675C7.27969 24.0039 8.81254 24.3368 10.3644 24.3445C11.7929 24.3571 13.2027 24.0192 14.47 23.3606C14.6011 23.2909 14.6993 23.1723 14.7433 23.0306C14.7872 22.889 14.7734 22.7357 14.7048 22.6042C14.6706 22.5387 14.6239 22.4806 14.5672 22.4332C14.5106 22.3858 14.4452 22.35 14.3747 22.328C14.3042 22.3059 14.2299 22.2979 14.1563 22.3046C14.0827 22.3112 14.0112 22.3322 13.9458 22.3665Z" fill="#FFA844"/>
<path d="M23.1322 25.2338L13.9766 25.4185V25.8937C14.1582 28.0652 17.4241 28.4535 17.4241 28.4535C18.7335 28.6584 20.0742 28.5042 21.3027 28.0072C23.2149 27.1783 23.1322 25.8937 23.1322 25.8937V25.2338Z" fill="#858387"/>
<path d="M21.7919 23.5514C20.7887 23.0427 19.6796 22.7775 18.5546 22.7775C17.4296 22.7775 16.3206 23.0427 15.3175 23.5514C13.5296 24.5826 13.5296 26.2548 15.3175 27.2861C16.3207 27.7945 17.4297 28.0595 18.5546 28.0595C19.6795 28.0595 20.7887 27.7945 21.7919 27.2861C23.5798 26.2517 23.5798 24.5826 21.7919 23.5514Z" fill="#2C1F1B"/>
<path d="M22.0109 3.96916H15.1012L14.3984 25.3203C14.5637 27.2919 17.5293 27.6449 17.5293 27.6449C18.7184 27.8308 19.9357 27.6907 21.0514 27.2396C22.7881 26.487 22.7137 25.3203 22.7137 25.3203L22.0109 3.96916Z" fill="#D1D1D1"/>
<path d="M20.9148 3.95465C21.8011 24.7888 17.8477 27.6739 17.8477 27.6739C18.487 27.7499 19.1343 27.7269 19.7667 27.6058C22.7008 27.0952 22.7146 25.3057 22.7146 25.3057L22.0125 3.95465H20.9148Z" fill="#68686C"/>
<path d="M20.9956 2.55968C20.2386 2.17586 19.4015 1.97583 18.5526 1.97583C17.7036 1.97583 16.8668 2.17586 16.1097 2.55968C14.7603 3.33751 14.7603 4.60004 16.1097 5.37849C16.8668 5.76232 17.7036 5.96235 18.5526 5.96235C19.4015 5.96235 20.2386 5.76232 20.9956 5.37849C22.3456 4.60004 22.3456 3.33751 20.9956 2.55968Z" fill="#D3D3D3"/>
<path d="M21.9707 7.741C18.0872 10.1066 15.3511 7.88915 15.2331 7.79082C15.1198 7.69479 14.9731 7.64751 14.8249 7.65932C14.6768 7.67113 14.5393 7.74106 14.4427 7.85384C14.3461 7.96725 14.2985 8.1143 14.3104 8.26272C14.3222 8.41113 14.3925 8.54879 14.5058 8.64552C15.6483 9.49065 17.0341 9.94314 18.4556 9.93518C19.9112 9.91241 21.3315 9.48364 22.5562 8.69722C22.6193 8.65899 22.6742 8.60869 22.7179 8.54922C22.7616 8.48975 22.7932 8.42227 22.8108 8.35063C22.8283 8.27898 22.8315 8.20459 22.8203 8.13168C22.8091 8.05877 22.7837 7.98877 22.7455 7.9257C22.7069 7.86258 22.6561 7.80767 22.5962 7.7642C22.5363 7.72072 22.4685 7.68953 22.3965 7.67236C22.3245 7.6552 22.2497 7.65242 22.1767 7.66421C22.1036 7.67599 22.0337 7.70208 21.9707 7.741Z" fill="#FFA844"/>
<path d="M22.1616 12.8781C21.0681 13.494 19.8345 13.8185 18.5792 13.8203C17.3239 13.8222 16.0893 13.5014 14.994 12.8888C14.8674 12.8105 14.7149 12.7857 14.5699 12.8197C14.425 12.8538 14.2995 12.9439 14.2211 13.0704C14.1822 13.1331 14.156 13.2028 14.1441 13.2756C14.1322 13.3484 14.1348 13.4229 14.1516 13.4947C14.1685 13.5665 14.1994 13.6343 14.2425 13.6942C14.2856 13.7541 14.3401 13.8049 14.4028 13.8438C15.6929 14.5705 17.1485 14.9532 18.6295 14.955C20.0647 14.953 21.474 14.5734 22.7156 13.8545C22.8451 13.7807 22.94 13.6587 22.9795 13.5151C23.019 13.3715 22.9999 13.2182 22.9263 13.0886C22.8524 12.9599 22.7305 12.8656 22.5873 12.8262C22.4442 12.7868 22.2911 12.8054 22.1616 12.8781Z" fill="#FFA844"/>
<path d="M22.3554 18.108C18.7632 19.999 14.8248 18.1269 14.7706 18.1004C14.6368 18.0348 14.4823 18.0251 14.3413 18.0732C14.2003 18.1213 14.0842 18.2234 14.0185 18.357C13.9528 18.4907 13.9429 18.6449 13.9909 18.7859C14.039 18.9268 14.141 19.043 14.2746 19.1089C15.6895 19.7454 17.2223 20.0782 18.774 20.0859C20.2026 20.0986 21.6124 19.7605 22.8796 19.1014C23.0109 19.032 23.1093 18.9134 23.1533 18.7716C23.1973 18.6299 23.1832 18.4764 23.1142 18.345C23.0801 18.2795 23.0333 18.2214 22.9767 18.174C22.92 18.1266 22.8547 18.0909 22.7841 18.0689C22.7136 18.0469 22.6393 18.039 22.5657 18.0457C22.4922 18.0524 22.4207 18.0736 22.3554 18.108Z" fill="#FFA844"/>
<path d="M20.4805 43.3412L30.6467 43.6608L58.9993 26.5007L47.1393 20.7647L20.4805 43.3412Z" fill="#AD6F27"/>
<path d="M37.3867 18.1351L50.431 25.6599V10.6102L37.3867 3.08539V18.1351Z" fill="#D4C9C9"/>
<path d="M7.4375 35.8164L20.4817 43.3413V28.2916L7.43812 20.768L7.4375 35.8164Z" fill="#D4C9C9"/>
<path d="M20.4805 43.3411L50.4303 25.6598V10.6101L20.4805 28.2915V43.3411Z" fill="#919191"/>
<path d="M7.4375 20.7679L20.4817 28.2928L50.4316 10.6115L37.3874 3.08667L7.4375 20.7679Z" fill="#F9F3F4"/>
<path d="M8.57031 25.1852L19.3517 31.5572V29.6952L8.57031 23.334V25.1852Z" fill="#757575"/>
<path d="M8.57031 26.9388L19.3517 33.3114V31.4488L8.57031 25.0882V26.9388Z" fill="#757575"/>
<path d="M8.57031 31.239L19.3523 37.6116V35.749L8.57031 29.3883V31.239Z" fill="#757575"/>
<path d="M8.57031 32.9964L19.3523 39.369V37.5064L8.57031 31.1451V32.9964Z" fill="#757575"/>
<path d="M25.5078 32.0205L46.5362 19.5917V15.9812L25.5078 28.388V32.0205Z" fill="#F08300"/>
<path d="M43.1412 2.83509C38.0546 -0.0499187 37.3594 3.93939 37.3594 3.93939L43.1412 7.27508L48.9237 10.6101C48.565 8.97925 47.8641 7.44295 46.8674 6.10268C45.8706 4.76241 44.6006 3.6487 43.1412 2.83509Z" fill="#D4C9C9"/>
<path d="M42.1964 2.3542C40.0111 1.33181 38.8674 1.99425 38.8674 1.99425L10.3672 18.7313L20.7466 27.1777L48.9202 10.6108C48.5615 8.78982 47.7608 7.0846 46.5885 5.64498C45.4162 4.20536 43.9079 3.07538 42.1964 2.3542Z" fill="#F4F2F2"/>
<path d="M14.9693 19.402C9.88273 16.517 9.1875 20.5063 9.1875 20.5063L14.9693 23.8414L20.7512 27.1771C20.3926 25.5463 19.6917 24.01 18.695 22.6697C17.6984 21.3295 16.4286 20.2157 14.9693 19.402Z" fill="#757575"/>
<path d="M15.5508 16.2712C20.8822 17.3466 23.3211 24.1144 23.3211 24.1144C21.2431 15.7884 15.5508 16.2712 15.5508 16.2712Z" fill="#BCBCBC"/>
<path d="M21.0586 13.1214C26.3893 14.1967 28.8289 20.9645 28.8289 20.9645C26.7503 12.6367 21.0586 13.1214 21.0586 13.1214Z" fill="#BCBCBC"/>
<path d="M26.7617 9.77124C32.0925 10.8459 34.5319 17.6138 34.5319 17.6138C32.4539 9.28842 26.7617 9.77124 26.7617 9.77124Z" fill="#BCBCBC"/>
<path d="M37.7109 3.09042C43.0417 4.16575 45.4813 10.9336 45.4813 10.9336C43.4033 2.60821 37.7109 3.09042 37.7109 3.09042Z" fill="#BCBCBC"/>
<path d="M32.2695 6.6215C37.6003 7.69684 40.0399 14.464 40.0399 14.464C37.9625 6.13931 32.2695 6.6215 32.2695 6.6215Z" fill="#BCBCBC"/>
</svg>
