<svg width="61" height="50" viewBox="0 0 61 50" fill="none" xmlns="http://www.w3.org/2000/svg">
<path d="M15.0774 9.78517L14.9983 18.8604L23.682 18.9348L23.7611 9.85954L15.0774 9.78517Z" fill="#F08300"/>
<path d="M15.0774 20.4252L14.9983 29.5004L23.682 29.5748L23.7611 20.4996L15.0774 20.4252Z" fill="#F08300"/>
<path d="M15.0774 31.0652L14.9983 40.1404L23.682 40.2148L23.7611 31.1396L15.0774 31.0652Z" fill="#6C757D"/>
<path d="M25.6697 9.78517L25.5906 18.8604L34.2743 18.9348L34.3534 9.85954L25.6697 9.78517Z" fill="#F08300"/>
<path d="M36.4031 9.78517L36.324 18.8604L45.0077 18.9348L45.0868 9.85954L36.4031 9.78517Z" fill="#6C757D"/>
<path d="M25.6697 20.4252L25.5906 29.5004L34.2743 29.5748L34.3534 20.4996L25.6697 20.4252Z" fill="#F08300"/>
<path d="M36.4031 20.4252L36.324 29.5004L45.0077 29.5748L45.0868 20.4996L36.4031 20.4252Z" fill="#6C757D"/>
<path d="M25.6697 31.0652L25.5906 40.1404L34.2743 40.2148L34.3534 31.1396L25.6697 31.0652Z" fill="#6C757D"/>
<path d="M36.4031 31.0652L36.324 40.1404L45.0077 40.2148L45.0868 31.1396L36.4031 31.0652Z" fill="#6C757D"/>
</svg>
