<svg width="60" height="50" viewBox="0 0 60 50" fill="none" xmlns="http://www.w3.org/2000/svg">
<path d="M53.7808 36.6543L8.02581 36.259L8.26109 9.02587L54.0161 9.42117L53.7808 36.6543Z" fill="white" stroke="#DFDFDF" stroke-width="6"/>
<path d="M9.68146 10.2342L9.46094 34.7366L29.6787 34.9185L29.8992 10.4162L9.68146 10.2342Z" fill="#155579"/>
<path d="M32.7788 20.0266L32.7617 22.0332L53.6728 22.2117L53.6899 20.2051L32.7788 20.0266Z" fill="#CDC6C5"/>
<path d="M39.3199 19.5791L32.7852 19.5233L32.7972 17.9233L39.3291 17.9843L39.3199 19.5791Z" fill="#ACA5A2"/>
<path d="M32.7247 25.9194L32.707 27.927L45.6211 28.0409L45.6388 26.0332L32.7247 25.9194Z" fill="#CDC6C5"/>
<path d="M39.2616 25.4717L32.7344 25.4158L32.7444 23.8207L39.2791 23.8771L39.2616 25.4717Z" fill="#ACA5A2"/>
<path d="M32.6782 31.8127L32.6602 33.821L44.5127 33.9276L44.5308 31.9194L32.6782 31.8127Z" fill="#CDC6C5"/>
<path d="M32.698 29.7134L32.6836 31.31L39.2144 31.3688L39.2288 29.7723L32.698 29.7134Z" fill="#ACA5A2"/>
<path d="M13.2592 25.4429L9.58594 25.516V25.7047C9.65908 26.567 10.969 26.7212 10.969 26.7212C11.4944 26.8026 12.0323 26.7413 12.5253 26.544C13.2921 26.2149 13.2592 25.7047 13.2592 25.7047V25.4429Z" fill="#858387"/>
<path d="M12.8123 16.9983H10.0398L9.75781 25.4773C9.82412 26.26 11.0142 26.4002 11.0142 26.4002C11.4912 26.474 11.9795 26.4184 12.4271 26.2392C13.1239 25.9403 13.094 25.4773 13.094 25.4773L12.8123 16.9983Z" fill="#D1D1D1"/>
<path d="M12.3709 16.9924C12.7265 25.2659 11.1406 26.4116 11.1406 26.4116C11.397 26.4419 11.6567 26.4328 11.9103 26.3846C13.0876 26.1818 13.0929 25.4712 13.0929 25.4712L12.8115 16.9924H12.3709Z" fill="#68686C"/>
<path d="M12.4054 16.4386C12.1017 16.2861 11.7659 16.2067 11.4254 16.2067C11.0848 16.2067 10.749 16.2861 10.4453 16.4386C9.90366 16.7474 9.90366 17.2488 10.4453 17.5579C10.749 17.7104 11.0848 17.7898 11.4254 17.7898C11.7659 17.7898 12.1017 17.7104 12.4054 17.5579C12.9468 17.2488 12.9468 16.7467 12.4054 16.4386Z" fill="#D3D3D3"/>
<path d="M12.7966 18.496C11.2384 19.4355 10.141 18.5551 10.0937 18.5158C10.0482 18.4777 9.98929 18.4589 9.92986 18.4636C9.87044 18.4683 9.81534 18.4961 9.77657 18.5408C9.73777 18.5858 9.71862 18.6443 9.72337 18.7032C9.72811 18.7622 9.75633 18.8169 9.80184 18.8552C10.2603 19.1909 10.8163 19.3705 11.3866 19.3674C11.9706 19.3584 12.5404 19.1881 13.0317 18.8758C13.0571 18.8606 13.0792 18.8407 13.0968 18.8171C13.1143 18.7934 13.127 18.7666 13.1341 18.7382C13.1411 18.7097 13.1424 18.6801 13.1379 18.6512C13.1333 18.6222 13.1231 18.5944 13.1076 18.5694C13.0922 18.5442 13.0719 18.5224 13.0478 18.5051C13.0238 18.4878 12.9966 18.4754 12.9676 18.4685C12.9387 18.4617 12.9087 18.4606 12.8793 18.4654C12.85 18.4701 12.8218 18.4805 12.7966 18.496Z" fill="#14254A"/>
<path d="M12.8719 20.536C12.4332 20.7806 11.9383 20.9094 11.4347 20.9102C10.9311 20.9109 10.4358 20.7835 9.99636 20.5403C9.94552 20.5092 9.88435 20.4994 9.82619 20.5129C9.76803 20.5264 9.71767 20.5622 9.68612 20.6123C9.65466 20.6627 9.64465 20.7232 9.65831 20.7808C9.67198 20.8384 9.70816 20.8883 9.75897 20.9195C10.2765 21.2081 10.8605 21.36 11.4546 21.3608C12.0303 21.36 12.5956 21.2092 13.0936 20.9237C13.1194 20.9093 13.142 20.8899 13.1602 20.8668C13.1783 20.8437 13.1917 20.8172 13.1996 20.789C13.2074 20.7607 13.2096 20.7313 13.2059 20.7022C13.2022 20.6731 13.1928 20.6451 13.1782 20.6196C13.1485 20.5686 13.0997 20.5312 13.0424 20.5155C12.9851 20.4999 12.9238 20.5072 12.8719 20.536Z" fill="#14254A"/>
<path d="M12.9499 22.6129C11.5088 23.3639 9.92884 22.6205 9.90682 22.61C9.85314 22.584 9.79123 22.5801 9.73468 22.5992C9.67813 22.6183 9.63158 22.6588 9.60517 22.7118C9.57882 22.7649 9.57478 22.8262 9.59405 22.8822C9.61331 22.9381 9.6543 22.9843 9.70792 23.0104C10.2756 23.2632 10.8906 23.3953 11.5131 23.3984C12.0862 23.4034 12.6518 23.2692 13.1602 23.0077C13.2128 22.98 13.2522 22.9329 13.2698 22.8767C13.2875 22.8204 13.2819 22.7595 13.2544 22.7073C13.2407 22.6813 13.2219 22.6582 13.1992 22.6394C13.1765 22.6206 13.1503 22.6064 13.122 22.5976C13.0937 22.5889 13.0639 22.5857 13.0344 22.5883C13.0048 22.591 12.9761 22.5993 12.9499 22.6129Z" fill="#14254A"/>
<path d="M16.6379 23.7516L12.9648 23.825V24.0137C13.0377 24.876 14.3479 25.0302 14.3479 25.0302C14.8732 25.1116 15.4111 25.0504 15.9039 24.853C16.671 24.5238 16.6379 24.0137 16.6379 24.0137V23.7516Z" fill="#858387"/>
<path d="M16.0963 23.0836C15.6938 22.8816 15.2488 22.7763 14.7975 22.7763C14.3462 22.7763 13.9013 22.8816 13.4989 23.0836C12.7816 23.4931 12.7816 24.1572 13.4989 24.5667C13.9013 24.7686 14.3462 24.8739 14.7975 24.8739C15.2488 24.8739 15.6938 24.7686 16.0963 24.5667C16.8135 24.1559 16.8135 23.4931 16.0963 23.0836Z" fill="#2C1F1B"/>
<path d="M16.1868 15.3072H13.4148L13.1328 23.7859C13.1991 24.5689 14.3888 24.7091 14.3888 24.7091C14.8659 24.7829 15.3542 24.7273 15.8018 24.5481C16.4986 24.2492 16.4687 23.7859 16.4687 23.7859L16.1868 15.3072Z" fill="#D1D1D1"/>
<path d="M15.7461 15.3014C16.1017 23.5749 14.5156 24.7205 14.5156 24.7205C14.7721 24.7507 15.0318 24.7416 15.2855 24.6935C16.4626 24.4907 16.4681 23.7801 16.4681 23.7801L16.1864 15.3014H15.7461Z" fill="#68686C"/>
<path d="M15.7802 14.7475C15.4765 14.5951 15.1407 14.5156 14.8001 14.5156C14.4595 14.5156 14.1238 14.5951 13.8201 14.7475C13.2787 15.0564 13.2787 15.5577 13.8201 15.8669C14.1238 16.0193 14.4595 16.0987 14.8001 16.0987C15.1407 16.0987 15.4765 16.0193 15.7802 15.8669C16.3218 15.5577 16.3218 15.0564 15.7802 14.7475Z" fill="#D3D3D3"/>
<path d="M16.1715 16.805C14.6135 17.7444 13.5159 16.8639 13.4685 16.8248C13.4231 16.7867 13.3642 16.7679 13.3048 16.7726C13.2454 16.7773 13.1902 16.805 13.1514 16.8498C13.1127 16.8949 13.0936 16.9533 13.0984 17.0122C13.1031 17.0711 13.1313 17.1258 13.1768 17.1642C13.6351 17.4998 14.1911 17.6795 14.7613 17.6764C15.3453 17.6673 15.9151 17.497 16.4064 17.1847C16.4317 17.1696 16.4537 17.1496 16.4713 17.126C16.4888 17.1024 16.5015 17.0756 16.5085 17.0471C16.5156 17.0187 16.5169 16.9891 16.5124 16.9602C16.5079 16.9312 16.4977 16.9034 16.4823 16.8784C16.4669 16.8533 16.4465 16.8315 16.4225 16.8142C16.3984 16.797 16.3712 16.7846 16.3423 16.7778C16.3134 16.771 16.2835 16.7698 16.2541 16.7745C16.2248 16.7792 16.1968 16.7896 16.1715 16.805Z" fill="#14254A"/>
<path d="M16.2468 18.8451C15.8081 19.0896 15.3131 19.2185 14.8096 19.2192C14.306 19.22 13.8107 19.0926 13.3712 18.8493C13.3205 18.8182 13.2593 18.8084 13.2011 18.8219C13.143 18.8354 13.0926 18.8712 13.0612 18.9214C13.0456 18.9463 13.0351 18.974 13.0303 19.0029C13.0255 19.0318 13.0266 19.0614 13.0333 19.0899C13.0401 19.1184 13.0525 19.1454 13.0698 19.1691C13.0871 19.1929 13.1089 19.2131 13.1341 19.2285C13.6517 19.5171 14.2356 19.6691 14.8298 19.6698C15.4055 19.669 15.9709 19.5183 16.469 19.2328C16.5209 19.2035 16.559 19.155 16.5749 19.098C16.5907 19.041 16.583 18.9801 16.5535 18.9287C16.5239 18.8776 16.475 18.8401 16.4175 18.8244C16.3601 18.8088 16.2987 18.8162 16.2468 18.8451Z" fill="#14254A"/>
<path d="M16.3247 20.9219C14.8836 21.6728 13.3036 20.9294 13.2818 20.9189C13.2282 20.8929 13.1662 20.889 13.1096 20.9081C13.0531 20.9272 13.0065 20.9677 12.9801 21.0208C12.9538 21.0739 12.9498 21.1351 12.9691 21.1911C12.9883 21.2471 13.0293 21.2932 13.0829 21.3194C13.6505 21.5721 14.2654 21.7043 14.8879 21.7074C15.461 21.7124 16.0266 21.5781 16.535 21.3164C16.5877 21.2888 16.6272 21.2418 16.6448 21.1855C16.6624 21.1292 16.6568 21.0682 16.6291 21.016C16.6154 20.99 16.5967 20.9669 16.5739 20.9481C16.5512 20.9293 16.525 20.9151 16.4967 20.9064C16.4684 20.8976 16.4386 20.8945 16.4091 20.8972C16.3796 20.8998 16.3509 20.9082 16.3247 20.9219Z" fill="#14254A"/>
<path d="M15.5703 30.9422L19.6488 31.0691L31.0231 24.2547L26.2652 21.9769L15.5703 30.9422Z" fill="black" fill-opacity="0.37"/>
<path d="M22.3555 20.9326L27.5885 23.9209V17.9444L22.3555 14.9563V20.9326Z" fill="#D4C9C9"/>
<path d="M10.3398 27.954L15.5729 30.9422V24.9658L10.3401 21.9781L10.3398 27.954Z" fill="#D4C9C9"/>
<path d="M15.5742 30.9423L27.5894 23.9208V17.9444L15.5742 24.9659V30.9423Z" fill="#919191"/>
<path d="M10.3398 21.9781L15.5729 24.9663L27.5881 17.9448L22.355 14.9566L10.3398 21.9781Z" fill="#F9F3F4"/>
<path d="M10.793 23.7323L15.1182 26.2627V25.5233L10.793 22.9971V23.7323Z" fill="#757575"/>
<path d="M10.793 24.4286L15.1182 26.9593V26.2196L10.793 23.6937V24.4286Z" fill="#757575"/>
<path d="M10.793 26.1363L15.1185 28.667V27.9273L10.793 25.4014V26.1363Z" fill="#757575"/>
<path d="M10.793 26.8342L15.1185 29.3648V28.6252L10.793 26.099V26.8342Z" fill="#757575"/>
<path d="M17.5898 26.4467L26.0259 21.5111V20.0773L17.5898 25.0042V26.4467Z" fill="#14254A"/>
<path d="M24.6633 14.8568C22.6227 13.7111 22.3438 15.2953 22.3438 15.2953L24.6633 16.62L26.9831 17.9444C26.8392 17.2967 26.558 16.6866 26.1581 16.1544C25.7582 15.6221 25.2488 15.1799 24.6633 14.8568Z" fill="#D4C9C9"/>
<path d="M24.2847 14.6658C23.4081 14.2598 22.9493 14.5229 22.9493 14.5229L11.5156 21.1694L15.6796 24.5235L26.9822 17.9446C26.8383 17.2215 26.5171 16.5443 26.0468 15.9726C25.5764 15.401 24.9714 14.9522 24.2847 14.6658Z" fill="#F4F2F2"/>
<path d="M13.3625 21.4357C11.3219 20.29 11.043 21.8743 11.043 21.8743L13.3625 23.1986L15.682 24.5233C15.5382 23.8757 15.257 23.2656 14.8572 22.7334C14.4573 22.2011 13.9479 21.7588 13.3625 21.4357Z" fill="#757575"/>
<path d="M13.5938 20.1924C15.7326 20.6194 16.711 23.307 16.711 23.307C15.8774 20.0006 13.5938 20.1924 13.5938 20.1924Z" fill="#BCBCBC"/>
<path d="M15.8047 18.9417C17.9433 19.3687 18.922 22.0563 18.922 22.0563C18.0881 18.7492 15.8047 18.9417 15.8047 18.9417Z" fill="#BCBCBC"/>
<path d="M18.0938 17.6112C20.2323 18.038 21.211 20.7255 21.211 20.7255C20.3773 17.4195 18.0938 17.6112 18.0938 17.6112Z" fill="#BCBCBC"/>
<path d="M22.4844 14.9582C24.6229 15.3852 25.6017 18.0728 25.6017 18.0728C24.768 14.7667 22.4844 14.9582 22.4844 14.9582Z" fill="#BCBCBC"/>
<path d="M20.3008 16.3605C22.4394 16.7875 23.4181 19.4748 23.4181 19.4748C22.5847 16.169 20.3008 16.3605 20.3008 16.3605Z" fill="#BCBCBC"/>
</svg>
