<svg width="23" height="23" viewBox="0 0 23 23" fill="none" xmlns="http://www.w3.org/2000/svg">
<path d="M11.5 23C17.8513 23 23 17.8513 23 11.5C23 5.14873 17.8513 0 11.5 0C5.14873 0 0 5.14873 0 11.5C0 17.8513 5.14873 23 11.5 23Z" fill="#408BC5"/>
<path d="M13.7143 12.1084C14.2773 11.7375 14.7408 11.2281 15.0625 10.6266C15.3843 10.0251 15.5541 9.3507 15.5565 8.66473C15.5348 7.56266 15.0924 6.51325 14.3243 5.74173C13.5562 4.97022 12.5236 4.53809 11.4482 4.53809C10.3728 4.53809 9.34027 4.97022 8.57218 5.74173C7.80409 6.51325 7.36169 7.56266 7.33993 8.66473C7.34234 9.3507 7.51216 10.0251 7.83393 10.6266C8.1557 11.2281 8.61919 11.7375 9.18217 12.1084C7.9298 12.5625 6.84437 13.4011 6.07366 14.5102C5.30295 15.6192 4.8844 16.9447 4.875 18.3063H5.97059C5.99576 16.8343 6.58394 15.4313 7.60846 14.3994C8.63297 13.3675 10.0119 12.7893 11.4482 12.7893C12.8846 12.7893 14.2635 13.3675 15.288 14.3994C16.3125 15.4313 16.9007 16.8343 16.9259 18.3063H18.0215C18.0121 16.9447 17.5935 15.6192 16.8228 14.5102C16.0521 13.4011 14.9667 12.5625 13.7143 12.1084ZM11.4485 11.695C10.8662 11.6838 10.3 11.4965 9.8211 11.1567C9.34219 10.8169 8.97185 10.3397 8.75656 9.78497C8.54126 9.23023 8.4906 8.62267 8.61094 8.03854C8.73127 7.4544 9.01724 6.91969 9.43295 6.50152C9.84866 6.08335 10.3756 5.80034 10.9477 5.688C11.5197 5.57566 12.1114 5.639 12.6484 5.87006C13.1855 6.10112 13.644 6.48962 13.9665 6.9868C14.2889 7.48399 14.461 8.06771 14.461 8.66473C14.4525 9.4757 14.1306 10.2501 13.5659 10.8182C13.0012 11.3863 12.2397 11.7016 11.4485 11.695Z" fill="white"/>
</svg>
