<svg width="60" height="50" viewBox="0 0 60 50" fill="none" xmlns="http://www.w3.org/2000/svg">
<path d="M46.0017 36.8272C45.996 36.6376 45.9517 36.4511 45.8717 36.2792C45.7916 36.1072 45.6775 35.9534 45.5361 35.8269L37.5187 28.6787C36.7414 29.782 35.78 30.7433 34.6768 31.5207L41.8249 39.538C42.331 40.1294 43.3111 40.1577 43.8505 39.5961L45.5941 37.8525C45.728 37.7181 45.8332 37.5579 45.9032 37.3817C45.9733 37.2054 46.0068 37.0168 46.0017 36.8272Z" fill="#6C757D"/>
<path d="M38.9466 21.9741C38.9466 15.923 34.0236 11 27.9724 11C21.9213 11 16.9983 15.923 16.9983 21.9741C16.9983 28.0253 21.9213 32.9483 27.9724 32.9483C34.0236 32.9483 38.9466 28.0253 38.9466 21.9741ZM27.9724 30.3354C23.3621 30.3354 19.6112 26.5844 19.6112 21.9741C19.6112 17.3638 23.3621 13.6129 27.9724 13.6129C32.5827 13.6129 36.3337 17.3638 36.3337 21.9741C36.3337 26.5844 32.5827 30.3354 27.9724 30.3354Z" fill="#6C757D"/>
<path d="M27.9715 16.1667C26.6784 16.1683 25.4387 16.6826 24.5244 17.597C23.61 18.5114 23.0957 19.751 23.0941 21.0441C23.0941 22.3774 23.8575 23.9017 25.3633 25.5747C26.0341 26.3178 26.7632 27.006 27.5437 27.6328C27.6661 27.7279 27.8166 27.7796 27.9715 27.7796C28.1264 27.7796 28.277 27.7279 28.3993 27.6328C29.1798 27.006 29.9089 26.3178 30.5797 25.5747C32.0855 23.9017 32.8489 22.3774 32.8489 21.0441C32.8474 19.751 32.333 18.5114 31.4186 17.597C30.5043 16.6826 29.2646 16.1683 27.9715 16.1667ZM27.9715 23.3667C27.5121 23.3667 27.0631 23.2305 26.6812 22.9753C26.2992 22.7201 26.0015 22.3573 25.8257 21.9329C25.6499 21.5086 25.604 21.0416 25.6936 20.591C25.7832 20.1405 26.0044 19.7267 26.3292 19.4018C26.654 19.077 27.0679 18.8558 27.5184 18.7662C27.9689 18.6766 28.4359 18.7226 28.8603 18.8984C29.2847 19.0742 29.6474 19.3718 29.9027 19.7538C30.1579 20.1357 30.2941 20.5848 30.2941 21.0441C30.2934 21.6599 30.0485 22.2503 29.613 22.6857C29.1776 23.1211 28.5873 23.366 27.9715 23.3667Z" fill="#6C757D"/>
</svg>
