<svg width="41" height="40" viewBox="0 0 41 40" fill="none" xmlns="http://www.w3.org/2000/svg">
<path d="M20.5 40C31.8218 40 41 31.0457 41 20C41 8.9543 31.8218 0 20.5 0C9.17816 0 0 8.9543 0 20C0 31.0457 9.17816 40 20.5 40Z" fill="#155579"/>
<path d="M24.4465 21.058C25.45 20.4129 26.2762 19.527 26.8498 18.481C27.4234 17.4349 27.7262 16.262 27.7305 15.069C27.6917 13.1523 26.903 11.3273 25.5338 9.98551C24.1646 8.64375 22.324 7.89221 20.407 7.89221C18.4899 7.89221 16.6493 8.64375 15.2801 9.98551C13.9109 11.3273 13.1223 13.1523 13.0835 15.069C13.0877 16.262 13.3905 17.4349 13.9641 18.481C14.5377 19.527 15.3639 20.4129 16.3675 21.058C14.135 21.8477 12.2001 23.3062 10.8262 25.2349C9.45233 27.1637 8.70622 29.469 8.68945 31.837H10.6425C10.6873 29.2769 11.7358 26.8369 13.5621 25.0423C15.3884 23.2477 17.8465 22.2421 20.407 22.2421C22.9674 22.2421 25.4255 23.2477 27.2518 25.0423C29.0781 26.8369 30.1266 29.2769 30.1715 31.837H32.1245C32.1077 29.469 31.3616 27.1637 29.9877 25.2349C28.6138 23.3062 26.6789 21.8477 24.4465 21.058ZM20.4075 20.339C19.3693 20.3195 18.3601 19.9938 17.5064 19.4029C16.6527 18.8119 15.9925 17.982 15.6087 17.0172C15.225 16.0525 15.1347 14.9958 15.3492 13.9799C15.5637 12.9641 16.0734 12.0341 16.8145 11.3069C17.5555 10.5796 18.4949 10.0874 19.5146 9.89207C20.5344 9.69669 21.5891 9.80684 22.5465 10.2087C23.5038 10.6105 24.3212 11.2862 24.896 12.1508C25.4708 13.0155 25.7775 14.0307 25.7775 15.069C25.7624 16.4794 25.1886 17.8262 24.1819 18.8141C23.1753 19.8021 21.8179 20.3504 20.4075 20.339Z" fill="white"/>
</svg>
