<svg width="195" height="61" viewBox="0 0 195 61" fill="none" xmlns="http://www.w3.org/2000/svg">
<g clip-path="url(#clip0)">
<path d="M90.2794 25.0592C90.2789 25.2586 90.1993 25.4497 90.0581 25.5907C89.917 25.7317 89.7256 25.8112 89.526 25.8117H86.437V28.4466H91.2588C91.987 28.4324 92.6801 28.1319 93.1878 27.6104C93.6956 27.089 93.977 26.3886 93.9711 25.6612V11.2126H86.437V13.7712H90.2794V25.0592ZM86.437 25.8117H82.67V13.7712H86.437V11.2126H82.67V7.60046H78.903V11.2126H75.136V13.7712H78.903V25.8159H75.136V28.4508H78.903V34.771H82.67V28.4508H86.437V25.8117ZM75.136 11.2126V13.7712H71.2936V25.0592C71.2942 25.2586 71.3737 25.4497 71.5149 25.5907C71.6561 25.7317 71.8474 25.8112 72.047 25.8117H75.136V28.4466H70.31C69.5819 28.4324 68.8888 28.1319 68.381 27.6104C67.8733 27.089 67.5918 26.3886 67.5977 25.6612V11.2126H75.136Z" fill="#555251"/>
<path d="M120.265 34.7669V17.1576C120.265 17.1676 120.267 17.1775 120.27 17.1868C120.274 17.1961 120.28 17.2045 120.287 17.2115C120.294 17.2186 120.303 17.2241 120.312 17.2277C120.321 17.2314 120.331 17.2332 120.341 17.2329C121.019 16.8566 121.321 12.1909 121.245 11.5136H124.033C124.107 12.1909 123.807 16.4803 123.356 17.1576H128.101V19.4152H121.928V32.5845H124.491V20.774H127.881V32.0619C127.882 32.4181 127.813 32.7711 127.677 33.1005C127.541 33.4298 127.342 33.7291 127.09 33.9809C126.837 34.2328 126.538 34.4323 126.208 34.5679C125.878 34.7035 125.525 34.7726 125.168 34.771L120.265 34.7669ZM120.265 9.787H124.862V15.732H128.252V7.60464H120.265V9.787ZM110.02 29.6538C110.995 27.9924 111.465 26.0839 111.375 24.1603L110.02 24.7623V29.6538ZM120.265 7.60046V9.78279H115.746V15.7278H112.355V7.60046H120.265ZM120.265 17.1576C119.588 16.4803 119.362 12.1156 119.362 11.5136H116.574C116.499 12.1909 116.876 16.4803 117.328 17.1576H112.355V19.4152H118.529V32.5845H115.967V20.774H112.585V32.0619C112.652 32.8107 112.999 33.5066 113.559 34.0093C114.118 34.5121 114.848 34.7843 115.6 34.771H120.269V17.1576H120.265ZM110.02 34.7669V32.5845H111.903V34.7669H110.02ZM110.02 22.5758V20.3935H111.375V22.5758H110.02ZM110.02 17.3081V15.1258H110.999C110.639 14.9527 110.309 14.7241 110.02 14.4485V8.353C110.245 9.93331 111.15 12.6382 111.903 13.3197V15.502C111.717 15.4975 111.535 15.4457 111.375 15.3515V17.3081H110.02ZM108.739 31.3052C109.242 30.8164 109.673 30.259 110.02 29.6496V24.7582L109.342 25.0592C109.497 26.5663 109.29 28.0887 108.739 29.5002V31.3052ZM110.02 8.353V14.4485C108.629 13.2398 107.588 11.6805 107.006 9.93331H105.646C105.062 11.6802 104.021 13.2392 102.631 14.4485V8.353C102.707 8.10786 102.707 7.84561 102.631 7.60046H110.014V8.353H110.02ZM110.02 15.1258V17.3081H108.06V20.3935H110.02V22.5758H108.06V32.5845H110.02V34.7669H102.636V32.5845H104.67V22.5758H102.636V20.3935H104.67V17.3081H102.636V15.1258H110.02ZM102.636 29.6538C102.985 30.2837 103.446 30.8447 103.997 31.3094V29.5044C103.384 28.1093 103.15 26.5775 103.319 25.0634L102.64 24.7623L102.636 29.6538ZM102.636 8.35718V14.4527C102.373 14.7253 102.068 14.954 101.732 15.13H102.636V17.3123H101.356V15.3557C101.189 15.4305 101.013 15.4812 100.832 15.5062V13.3239C101.809 11.8288 102.427 10.1294 102.64 8.35718H102.636ZM102.636 20.3977V22.5758H101.356V20.3935L102.636 20.3977ZM102.636 24.7623V29.6538C101.685 27.9856 101.24 26.0768 101.356 24.1603L102.636 24.7623ZM102.636 32.5887V34.771H100.828V32.5887H102.636Z" fill="#555251"/>
<path d="M158.311 34.7669C158.672 34.786 159.031 34.7065 159.349 34.5371C159.668 34.3677 159.935 34.1147 160.121 33.8054C160.307 33.496 160.404 33.142 160.404 32.7812C160.403 32.4205 160.305 32.0667 160.118 31.7578L154.991 22.8738H150.254L155.452 31.6784C155.677 32.201 155.301 32.3567 155 32.3567H150.103V34.7606L158.311 34.7669ZM150.099 10.0086V7.67578H156.273C156.575 10.4601 156.952 16.2547 162.225 19.2648V21.7481C159.7 20.8303 157.463 19.2604 155.743 17.1982C154.022 15.1361 152.88 12.6553 152.431 10.0086H150.099ZM150.099 32.3599H141.883C141.659 32.3599 141.28 32.2083 141.507 31.6816L149.116 18.5875H144.445L140.603 25.285V34.7669H150.096V32.363L150.099 32.3599ZM150.099 7.67578V10.0086H140.606V7.67578H150.099ZM140.606 18.6627V12.191H144.603C143.864 14.6621 142.485 16.8946 140.606 18.6627ZM140.606 25.285L136.839 31.7578C136.654 32.0672 136.557 32.4207 136.558 32.7808C136.559 33.1409 136.657 33.494 136.843 33.8027C137.028 34.1114 137.294 34.3641 137.612 34.5339C137.93 34.7036 138.288 34.7842 138.648 34.7669H140.607V25.285H140.606ZM140.606 7.67578V10.0086H139.777V7.67578H140.606ZM140.606 12.191V18.6627C138.941 20.1311 136.954 21.188 134.805 21.7481V19.2648C138.948 17.7597 139.777 12.9435 139.853 12.191H140.606Z" fill="#555251"/>
<path d="M187.996 12.9435H168.559V15.3516H187.996V12.9435Z" fill="#555251"/>
<path d="M191.01 32.133C190.997 32.3283 190.913 32.5122 190.775 32.6507C190.636 32.7892 190.452 32.873 190.257 32.8866H186.042V34.768H192.144C192.52 34.7683 192.893 34.6945 193.24 34.5508C193.588 34.4072 193.903 34.1966 194.169 33.931C194.435 33.6653 194.646 33.35 194.789 33.0029C194.933 32.6559 195.007 32.2839 195.006 31.9083V7.67578H168.559V10.3097H191.01V32.133Z" fill="#555251"/>
<path d="M184.002 20.1721V27.4717C184 27.8901 183.832 28.2908 183.536 28.5868C183.24 28.8828 182.839 29.0503 182.42 29.053H178.352V31.3849H184.379C185.346 31.3676 186.267 30.9711 186.944 30.2812C187.62 29.5913 187.998 28.6632 187.995 27.6974V17.9146H178.352V20.1721H184.002ZM178.352 29.0562H174.208C173.789 29.0534 173.388 28.8859 173.092 28.5899C172.796 28.2939 172.628 27.8933 172.626 27.4748V20.1721H178.352V17.9146H168.633V27.6974C168.63 28.6632 169.008 29.5913 169.685 30.2812C170.361 30.9711 171.282 31.3676 172.249 31.3849H178.352V29.0562Z" fill="#555251"/>
<path d="M114.565 57.7371V56.4316H116.03L114.565 51.7011V49.4185H116.361L120.442 60.5089H117.339L116.36 57.7371H114.565ZM134.813 60.5089H137.593V50.7218H140.209V49.4185H132.206V50.7218H134.822V60.5089H134.813ZM141.672 60.5089H149.347V59.0394H144.448V55.4512H148.857V53.988H144.448V50.7249H149.184V49.4216H141.674V60.512L141.672 60.5089ZM160.941 60.5089H168.127V59.0394H163.717V49.4237H160.941V60.5141V60.5089ZM151.307 60.5089H158.818V59.0394H154.083V55.4512H158.491V53.988H154.083V50.7249H158.656V49.4216H151.307V60.5089ZM81.5781 60.5089H84.3542V55.6153H87.62V60.5089H90.4003V49.4185H87.6242V54.1479H84.3584V49.4185H81.5823V60.5089H81.5781ZM114.565 49.4185V51.7011L113.1 56.4316H114.565V57.7371H112.769L111.788 60.5089H108.848L112.929 49.4185H114.565ZM92.8457 60.5089H95.785V49.4185H92.8457V60.5089ZM98.2346 60.5089H100.684V52.5174L104.931 60.5089H107.869V49.4185H105.419V57.412H105.259L101.34 49.4185H98.2378L98.2346 60.5089Z" fill="#555251"/>
<path d="M79.7811 58.7142C78.708 58.9691 77.6151 59.1328 76.5143 59.2034C75.1628 59.0664 73.9163 58.4141 73.0341 57.3823C72.152 56.3505 71.7022 55.0186 71.7783 53.6639C71.7783 51.0509 73.575 48.2791 76.1878 48.2791C77.4125 48.3084 78.6249 48.5292 79.7811 48.9334L79.9433 47.4702C78.7479 47.0035 77.4708 46.7813 76.1878 46.8169C71.7783 46.8169 68.6758 49.1027 68.6758 53.8322C68.6758 59.0487 72.7567 60.8454 76.1878 60.8454C77.4538 60.8186 78.7131 60.6539 79.9433 60.3541L79.7811 58.7142Z" fill="#555251"/>
<path d="M121.91 60.3447C123.109 60.7996 124.383 61.022 125.666 61C128.605 61 131.382 60.0197 131.219 56.4315C131.219 51.8631 125.666 53.1685 125.013 50.8848C124.917 50.5893 124.895 50.2745 124.951 49.9688C125.007 49.6632 125.138 49.3761 125.332 49.1335C125.526 48.8909 125.778 48.7003 126.064 48.5789C126.351 48.4575 126.663 48.4091 126.973 48.438C128.147 48.5549 129.301 48.8295 130.402 49.2543L130.565 47.791C129.54 47.3084 128.431 47.0311 127.299 46.9747C124.683 46.9747 121.91 47.952 121.91 51.0509C121.91 55.9445 128.115 54.1499 128.115 56.9228C128.115 58.386 127.299 59.0414 125.499 59.0414C124.4 59.1027 123.299 58.993 122.233 58.7163L121.91 60.3447Z" fill="#555251"/>
<path d="M18.375 0H36.6419V29.9058L29.0765 22.2394V7.5577H25.9373V23.5365L36.6388 34.2245V60.999H18.375V30.9855L25.9415 38.6519V53.3357H29.0807V37.3559L18.375 26.6679V0Z" fill="#4694D1"/>
<path d="M39.6719 15.223V22.8894H47.3461V38.1125H39.6719V45.6692H55.0204V15.223H39.6719Z" fill="#4694D1"/>
<path d="M15.2408 45.6745V38.1178H7.67425V22.8895H15.2408V15.2241H0V45.6745H15.2408Z" fill="#4694D1"/>
</g>
<defs>
<clipPath id="clip0">
<rect width="195" height="61" fill="white"/>
</clipPath>
</defs>
</svg>
