<svg width="707" height="114" viewBox="0 0 707 114" fill="none" xmlns="http://www.w3.org/2000/svg">
<path d="M29.6156 30.0215V17.6563H42.4511V30.0215H29.6156ZM9.68083 30.0215V17.6563H22.4595V30.0215H9.68083ZM29.6156 10.9274V0.977708H22.4595V10.9274H2.86553V39.9136H9.68083V36.7504H22.4595V54.6943H29.6156V36.7504H42.4511V39.626H49.5504V10.9274H29.6156Z" fill="#565656"/>
<path d="M88.4544 43.997H102.994V27.4909H99.5861V38.9359H97.5415V24.9029H103.618V19.8418H100.722C101.631 17.1387 102.483 13.803 103.334 10.8123L98.5638 9.66208C98.223 12.5952 97.3143 16.9086 96.4624 19.8418H87.8297V24.9029H93.8498V38.9359H91.8052V27.4909H88.4544V43.997ZM88.3976 10.9274C89.4199 13.5729 90.3854 17.1387 90.6126 19.3242L94.645 18.1164C94.361 15.9884 93.3387 12.5377 92.2028 9.94964L88.3976 10.9274ZM65.3391 15.2408C66.759 13.5154 68.1789 11.7325 69.4851 9.77711C71.9841 11.5025 74.5398 13.4004 76.5276 15.2408H65.3391ZM110.547 2.99064H80.9008V11.3299C78.8562 9.31701 75.6189 6.90149 72.268 4.88855C72.6088 4.25592 72.9496 3.56577 73.2335 2.93313L68.5196 0.747661C66.3046 5.52119 62.4994 10.0647 58.751 12.8828C59.5461 14.4356 60.8524 17.9439 61.25 19.3242C61.7043 18.9216 62.1587 18.519 62.613 18.1164V20.7045H66.9294V25.1329H60.398V30.7116H66.9294V46.1824C64.2033 46.7001 61.8179 47.1026 59.7165 47.3902L61.1364 53.429C66.5886 52.3938 73.6311 50.956 80.2192 49.5757L79.7649 43.9395L72.4952 45.2047V30.7116H79.2537V25.1329H72.4952V20.7045H77.4931V16.2185C77.7771 16.5061 78.061 16.7936 78.345 17.0812L80.9008 12.6527V54.6943H86.4098V8.97193H104.982V47.6203C104.982 48.4829 104.698 48.713 103.846 48.7705C102.994 48.828 100.211 48.828 97.4847 48.713C98.2798 50.3233 99.1317 53.0264 99.3021 54.6943C103.505 54.6943 106.288 54.5793 108.105 53.544C109.979 52.5088 110.547 50.7834 110.547 47.6778V2.99064ZM76.982 43.0768C77.6067 40.7188 78.4586 37.038 79.3105 33.7598L74.7102 32.667C74.4262 35.4276 73.6311 39.511 72.9496 41.984L76.982 43.0768ZM60.398 34.1624C61.25 37.3255 62.0451 41.4664 62.1587 44.227L66.475 43.0193C66.2479 40.4312 65.4527 36.2903 64.4872 33.1271L60.398 34.1624Z" fill="#565656"/>
<path d="M171.317 11.79V6.09631H150.36L152.007 5.40616C151.496 3.91084 150.246 1.66786 149.111 0L143.09 2.30049C143.715 3.39323 144.453 4.77353 144.965 6.09631H122.417V23.35C122.417 31.5168 122.133 42.9042 118.499 50.6684C119.862 51.3586 122.531 53.429 123.61 54.5793C127.756 45.9524 128.494 32.3795 128.494 23.35V11.79H171.317ZM136.729 21.6247C136.105 19.4967 134.401 16.5061 132.754 14.2631L128.665 16.2185C130.255 18.519 131.845 21.6822 132.356 23.6951L136.729 21.6247ZM141.955 36.2903V41.4089H139.058V36.2903H141.955ZM144.794 45.6073V32.0919H136.218V47.3902H139.058V45.6073H144.794ZM151.666 33.4722C152.518 34.2199 153.313 35.025 153.768 35.5427C154.336 34.7375 154.847 33.8748 155.415 32.8971C156.267 36.1178 157.289 39.2234 158.538 42.0416C156.778 44.9172 154.563 47.5052 151.61 49.4607C151.666 49.1156 151.666 48.713 151.666 48.3104V33.4722ZM163.707 26.1106C163.196 29.3888 162.457 32.7245 161.378 35.8302C160.242 32.8396 159.277 29.5039 158.595 26.1106H163.707ZM171.488 26.1106V20.5319H160.242C160.753 18.3465 161.265 16.161 161.662 13.918L155.869 12.8253C155.017 18.1164 153.654 23.4075 151.666 27.5484V24.5578H143.261V22.3723L147.35 23.8101C148.883 21.7972 150.587 18.749 152.291 15.9309L147.18 14.2631C146.328 16.5061 144.624 19.8993 143.261 22.0272V12.9978H137.638V24.5578H129.744V53.9466H134.344V29.5039H146.839V48.1379C146.839 48.7705 146.668 48.943 145.987 48.943C145.362 49.0005 143.204 49.0005 141.103 48.943C141.727 50.2658 142.295 52.3363 142.522 53.7166C145.817 53.7741 148.088 53.6591 149.679 52.9114C150.19 52.6238 150.587 52.2788 150.871 51.8762C151.723 52.9689 152.575 54.2342 153.086 55.0969C156.494 53.0839 159.22 50.4959 161.435 47.4477C163.366 50.4384 165.751 52.9114 168.477 54.7518C169.386 53.1414 171.147 51.0135 172.396 49.9207C169.273 48.1379 166.66 45.5498 164.615 42.2716C167.058 37.3255 168.477 31.8043 169.443 26.1106H171.488Z" fill="#565656"/>
<path d="M196.363 46.355C190.514 46.355 188.867 44.3996 188.867 39.396V9.02944H228.225V2.99064H179.95V9.02944H182.222V38.9359C182.222 49.5182 186.936 52.6238 196.931 52.6238H219.308C223.852 52.6238 228.906 52.5663 231.065 51.9912C230.724 50.3808 230.326 47.2752 230.099 45.6073C227.771 46.0674 223.227 46.355 219.649 46.355H196.363ZM212.834 20.877H203.519V16.161H212.834V20.877ZM219.535 11.675H197.215V25.363H219.535V11.675ZM196.875 32.4945H201.304V38.7633H196.875V32.4945ZM191.422 43.3643H207.097V27.8935H191.422V43.3643ZM219.763 38.7633H215.162V32.4945H219.763V38.7633ZM225.612 27.8935H209.596V43.3643H225.612V27.8935Z" fill="#565656"/>
<path d="M280.93 10.4097V13.1703H274.285V10.4097H280.93ZM280.93 21.107H274.285V18.2314H280.93V21.107ZM267.924 13.1703H255.259V18.2314H267.924V21.107H258.099V26.2256H267.924V29.0438H257.758V33.8748H267.924V36.6929H255.486V41.9265H267.924V45.8374H274.285V41.9265H289.335V36.6929H274.285V33.8748H287.518V29.0438H274.285V26.2256H286.837V18.2314H289.96V13.1703H286.837V5.23362H274.285V1.03522H267.924V5.23362H258.383V10.4097H267.924V13.1703ZM252.362 20.3019L251.227 20.4169H249.239C251.738 16.161 254.237 11.1574 256.395 6.0388L252.362 3.22069L250.091 4.14089H239.584V10.0647H247.933C245.945 14.6657 243.73 18.5765 242.878 19.8418C241.685 21.7972 240.095 23.4075 238.959 23.6951C239.811 25.0179 241.117 27.6635 241.572 28.9287C241.572 28.1811 243.275 27.0883 244.582 26.3982H249.523C249.012 30.194 248.273 33.5297 247.308 36.4628C246.229 34.5649 245.32 32.322 244.525 29.7339L239.584 31.4593C240.947 36.0028 242.594 39.626 244.638 42.6167C242.821 45.8374 240.606 48.3679 237.823 50.2658C239.243 51.071 241.742 53.429 242.651 54.7518C245.093 52.9114 247.251 50.5534 249.012 47.5052C254.861 52.3938 262.585 53.6015 272.127 53.6015H288.824C289.222 51.7612 290.244 48.7705 291.21 47.3327C287.348 47.5052 275.591 47.5052 272.297 47.5052C264.005 47.4477 256.906 46.47 251.738 41.9265C253.896 36.4629 255.373 29.5614 256.111 21.1646L252.362 20.3019Z" fill="#565656"/>
<path d="M319.152 26.3407L313.927 27.836V18.5765H318.641V12.0776H313.927V1.03522H307.737V12.0776H305.067C305.408 9.77711 305.692 7.53412 305.919 5.23362L300.297 4.25592C299.786 11.0424 298.82 18.2314 297.059 22.7749C298.309 23.5226 300.808 25.0754 301.83 25.9381C302.625 23.8676 303.307 21.3946 303.932 18.5765H307.737V29.5614C303.875 30.6541 300.41 31.5743 297.571 32.2069L299.218 38.7058C301.83 38.0157 304.67 37.0955 307.737 36.1753V54.7518H313.927V34.2774C316.029 33.6447 318.017 32.9546 320.061 32.3795L319.152 26.3407ZM329.262 9.89213C330.057 7.36158 330.795 4.77353 331.363 2.12796L325.229 0.977708C323.526 9.43203 320.402 17.6563 315.915 22.6599C317.278 23.5226 319.948 25.4205 321.027 26.5132C323.242 23.7526 325.229 20.1868 326.876 16.2185H329.773C327.274 24.5578 322.844 33.0696 317.221 37.5556C318.982 38.5333 321.14 40.0861 322.39 41.4089C328.126 35.8877 332.897 25.593 335.396 16.2185H338.065C335.225 29.6764 329.546 42.7317 320.459 49.3456C322.333 50.3233 324.661 51.9912 325.968 53.314C335.112 45.6648 340.961 30.7116 343.744 16.2185H344.028C343.12 36.8654 342.097 44.6871 340.677 46.5275C339.996 47.3902 339.428 47.6203 338.576 47.6203C337.497 47.6203 335.623 47.6203 333.521 47.3902C334.544 49.2881 335.225 52.1062 335.396 54.0616C337.838 54.1767 340.223 54.1767 341.813 53.8891C343.688 53.4865 344.937 52.8539 346.243 50.8985C348.401 48.0228 349.424 38.6483 350.503 12.9978C350.56 12.1926 350.616 9.89213 350.616 9.89213H329.262Z" fill="#565656"/>
<path d="M370.551 33.2997V20.7045H375.833V14.2056H370.551V1.72537H364.304V14.2056H358.17V20.7045H364.304V35.9452C361.521 37.0955 359.022 38.0157 356.921 38.7633L359.647 45.6648C364.815 43.3068 371.176 40.2012 377.083 37.268L375.549 31.1717L370.551 33.2997ZM389.918 47.5052C386.454 47.5052 385.942 46.9876 385.942 43.6519V25.8806L390.656 23.8101V41.3514H396.961V21.0495L401.334 19.0941C401.106 25.8806 400.652 33.1846 400.027 37.8431L405.536 39.396C406.899 32.4945 407.695 22.0272 408.035 14.033L408.263 12.9978L403.151 11.3299L396.961 14.033V0.920196H390.656V16.7936L385.942 18.8066V6.4989H379.468V21.6247L373.902 24.0402L376.401 30.079L379.468 28.7562V43.5944C379.468 51.4736 381.683 53.6015 389.35 53.6015H401.447C408.092 53.6015 410.023 50.8409 410.932 42.7892C409.058 42.4441 406.502 41.3514 405.025 40.3162C404.514 46.1824 403.946 47.5052 400.879 47.5052H389.918Z" fill="#565656"/>
<path d="M435.581 36.7504C433.763 37.383 431.889 37.9582 430.015 38.5333V27.0308H435.126V20.762H430.015V10.6398H436.092V4.25592H417.35V10.6398H423.597V20.762H417.861V27.0308H423.597V40.5462C420.984 41.2939 418.656 41.9265 416.668 42.4441L418.202 49.4031C423.654 47.6203 430.469 45.4348 436.716 43.1918L435.581 36.7504ZM444.327 19.3817H450.177V24.3277H444.327V19.3817ZM444.327 9.20198H450.177V14.033H444.327V9.20198ZM461.479 14.033H455.856V9.20198H461.479V14.033ZM461.479 24.3277H455.856V19.3817H461.479V24.3277ZM456.481 46.7001V41.2364H468.521V35.0826H456.481V30.1365H467.896V3.39323H438.25V30.1365H449.609V35.0826H437.852V41.2364H449.609V46.7001H433.934V52.9114H470.452V46.7001H456.481Z" fill="#565656"/>
<path d="M494.363 5.98129C491.58 4.60099 486.184 2.76059 482.379 1.89791L479.482 6.4989C483.345 7.64915 488.683 9.71959 491.352 11.1574L494.363 5.98129ZM493.113 11.9626C487.206 13.5729 481.073 15.2408 476.927 16.161L479.596 22.0848C483.799 20.7045 488.967 18.9791 493.908 17.3112L493.113 11.9626ZM491.182 38.4183H515.774V41.0063H491.182V38.4183ZM491.182 32.0919H515.774V34.5649H491.182V32.0919ZM491.182 25.7655H515.774V28.2386H491.182V25.7655ZM499.588 21.6822C503.847 20.4169 507.539 18.519 510.379 15.8734C513.218 18.404 516.91 20.3594 520.942 21.6822H499.588ZM522.646 45.0322V22.1998C523.328 22.3723 523.952 22.5449 524.634 22.6599C525.486 21.1646 527.076 18.9216 528.326 17.8288C522.305 17.0237 516.626 15.0682 513.275 12.3652C513.616 11.79 513.957 11.1574 514.241 10.5248L508.902 9.60457H520.147C519.409 10.8123 518.67 11.9626 517.989 12.7677L523.214 14.4356C525.088 12.3076 527.076 8.85691 528.553 5.75124L524.123 4.60099L523.1 4.77353H506.346C506.857 3.85333 507.368 2.93313 507.766 1.95542L501.803 0.977708C500.326 4.31343 497.543 8.10924 493.454 10.9849C495.044 11.6175 497.316 12.9978 498.509 14.2056C500.269 12.7677 501.746 11.2724 503.052 9.60457H508.164C506.346 13.8605 500.553 16.6211 493.795 17.8288C494.533 18.749 495.669 20.3594 496.407 21.6822H484.651V45.0322H492.829C488.854 47.0451 482.777 48.7705 477.324 49.8057C478.801 50.956 481.186 53.4865 482.322 54.8093C488.058 53.199 495.385 50.3233 500.042 47.3327L495.101 45.0322H511.117L507.652 47.8503C513.275 49.9207 519.125 52.7389 522.362 54.6368L528.439 50.956C525.088 49.2881 519.579 46.9876 514.354 45.0322H522.646Z" fill="#565656"/>
<path d="M557.574 10.4673H547.579L551.043 8.39681C550.248 6.26885 548.601 3.10567 547.238 0.747661L542.41 3.22069C543.603 5.40616 545.023 8.28178 545.761 10.4673H536.731V15.8734H557.574V10.4673ZM555.53 23.6376V18.4615H539.06V23.6376H555.53ZM550.305 39.5685V46.0099H544.285V39.5685H550.305ZM555.643 34.1048H539.116V53.9466H544.285V51.5311H555.643V34.1048ZM539.06 31.3442H555.643V26.1681H539.06V31.3442ZM558.313 3.91084V10.4097H563.879V25.593H557.518V31.9769H563.879V54.6368H570.183V31.9769H575.635V25.593H570.183V10.4097H577.055C576.998 31.8043 577.055 51.7036 582.45 54.0041C585.972 55.4995 588.868 53.7166 589.72 45.3198C588.755 44.2845 587.107 41.5815 586.199 39.7986C586.028 43.4794 585.744 47.2177 585.46 47.1026C583.359 46.4125 583.302 22.8324 583.813 3.91084H558.313Z" fill="#565656"/>
<path d="M648.332 28.7562H626.011V11.3299H645.038V4.54348H599.829V11.3299H618.969V28.7562H596.876V35.6577H618.969V54.6943H626.011V35.6577H648.332V28.7562ZM603.294 15.0107C605.111 18.8641 606.872 23.8676 607.44 26.9733L614.028 24.9029C613.403 21.6822 611.359 16.8511 609.484 13.1703L603.294 15.0107ZM636.462 26.8583C638.393 23.9252 640.664 19.2666 642.709 14.8382L635.496 12.9978C634.417 16.7361 632.372 21.7972 630.555 25.1329L636.462 26.8583Z" fill="#565656"/>
<path d="M693.994 35.9452V45.1472H669.913V35.9452H693.994ZM662.985 54.6368H669.913V51.7036H693.994V54.5793H701.264V29.3888H662.985V54.6368ZM686.781 9.83462C688.883 11.9626 691.154 14.3781 693.369 16.9086L670.084 17.6563C674.4 13.4579 678.887 8.33929 682.465 2.99064L675.65 0.0575113C671.788 6.959 665.597 13.918 663.609 15.7009C661.735 17.5413 660.372 18.634 658.895 19.0366C659.69 20.8195 660.77 24.2127 661.11 25.593C664.12 24.5578 668.153 24.4428 698.311 22.9474C699.503 24.5578 700.526 26.0531 701.264 27.3184L707 23.12C704.047 18.2889 697.288 11.2149 692.063 6.26885L686.781 9.83462Z" fill="#565656"/>
<path d="M11.7332 88.8645H22.6919V103.373C21.2462 103.87 19.736 104.262 18.1612 104.55C16.6123 104.837 14.8439 104.981 12.8561 104.981C8.72565 104.981 5.55034 103.752 3.33021 101.295C1.11007 98.8376 0 95.2562 0 90.5506C0 87.6227 0.555034 85.087 1.6651 82.9433C2.80099 80.7997 4.44027 79.1397 6.58296 77.9633C8.72566 76.7869 11.3459 76.1987 14.4438 76.1987C15.9153 76.1987 17.361 76.3555 18.7808 76.6692C20.2007 76.9829 21.4914 77.4012 22.6531 77.924L20.717 82.6688C19.8651 82.2244 18.897 81.8584 17.8127 81.5709C16.7285 81.2833 15.5926 81.1395 14.4051 81.1395C12.7013 81.1395 11.2169 81.5316 9.95189 82.3159C8.71275 83.1002 7.74466 84.2112 7.04764 85.649C6.37644 87.0607 6.04084 88.7338 6.04084 90.6683C6.04084 92.4982 6.28609 94.119 6.77658 95.5307C7.26708 96.9424 8.04154 98.0534 9.09998 98.8638C10.1584 99.648 11.5395 100.04 13.2434 100.04C14.0695 100.04 14.7665 100.001 15.3344 99.9225C15.9282 99.8441 16.4703 99.7526 16.9608 99.648V93.8053H11.7332V88.8645Z" fill="#565656"/>
<path d="M37.5087 82.7865C40.4258 82.7865 42.7363 83.6361 44.4401 85.3353C46.144 87.0084 46.9959 89.4004 46.9959 92.5113V95.3346H33.3653C33.4169 96.9816 33.8945 98.2756 34.798 99.2167C35.7274 100.158 37.0053 100.628 38.6317 100.628C39.9999 100.628 41.239 100.498 42.3491 100.236C43.4592 99.9487 44.608 99.5173 45.7955 98.9422V103.452C44.7628 103.975 43.6657 104.354 42.504 104.589C41.3681 104.85 39.987 104.981 38.3606 104.981C36.2437 104.981 34.3721 104.589 32.7457 103.805C31.1193 102.994 29.8415 101.779 28.9121 100.158C27.9827 98.537 27.5181 96.4979 27.5181 94.0406C27.5181 91.531 27.9311 89.4527 28.7572 87.8057C29.6091 86.1326 30.7837 84.8778 32.281 84.0413C33.7783 83.2047 35.5209 82.7865 37.5087 82.7865ZM37.5474 86.943C36.4373 86.943 35.508 87.309 34.7593 88.041C34.0365 88.773 33.6105 89.9101 33.4815 91.4525H41.5746C41.5488 90.1454 41.2132 89.0736 40.5678 88.2371C39.9224 87.3744 38.9156 86.943 37.5474 86.943Z" fill="#565656"/>
<path d="M70.8812 93.8445C70.8812 97.3998 69.9519 100.145 68.0931 102.079C66.2602 104.014 63.7561 104.981 60.5808 104.981C58.6188 104.981 56.8634 104.55 55.3144 103.687C53.7913 102.824 52.5909 101.569 51.7132 99.9225C50.8354 98.2495 50.3966 96.2234 50.3966 93.8445C50.3966 90.2892 51.313 87.5574 53.1459 85.649C54.9788 83.7406 57.4959 82.7865 60.697 82.7865C62.6848 82.7865 64.4402 83.2178 65.9634 84.0805C67.4865 84.9432 68.6869 86.198 69.5646 87.8449C70.4424 89.4657 70.8812 91.4656 70.8812 93.8445ZM56.2825 93.8445C56.2825 95.962 56.6181 97.5698 57.2893 98.6677C57.9863 99.7395 59.1093 100.275 60.6583 100.275C62.1814 100.275 63.2785 99.7395 63.9497 98.6677C64.6468 97.5698 64.9953 95.962 64.9953 93.8445C64.9953 91.727 64.6468 90.1454 63.9497 89.0998C63.2785 88.0279 62.1685 87.492 60.6195 87.492C59.0964 87.492 57.9863 88.0279 57.2893 89.0998C56.6181 90.1454 56.2825 91.727 56.2825 93.8445Z" fill="#565656"/>
<path d="M82.5037 82.7865C85.111 82.7865 87.1505 83.8321 88.6219 85.9235H88.7768L89.2415 83.1786H94.1207V104.628C94.1207 107.687 93.23 110.013 91.4488 111.608C89.6675 113.203 87.0343 114 83.5492 114C82.0519 114 80.6579 113.909 79.3671 113.726C78.1021 113.543 76.863 113.216 75.6496 112.745V108.079C78.257 109.177 81.0064 109.726 83.8977 109.726C86.8665 109.726 88.3509 108.105 88.3509 104.863V104.432C88.3509 103.988 88.3638 103.53 88.3896 103.06C88.4412 102.589 88.48 102.171 88.5058 101.805H88.3509C87.6281 102.929 86.7632 103.739 85.7564 104.236C84.7496 104.733 83.6137 104.981 82.3488 104.981C79.8447 104.981 77.8827 104.014 76.4628 102.079C75.0688 100.119 74.3718 97.3998 74.3718 93.923C74.3718 90.4199 75.0946 87.6881 76.5403 85.7274C77.9859 83.7668 79.9737 82.7865 82.5037 82.7865ZM84.3237 87.5312C81.613 87.5312 80.2577 89.688 80.2577 94.0014C80.2577 98.2625 81.6388 100.393 84.4011 100.393C85.8726 100.393 86.9568 99.9748 87.6539 99.1383C88.3767 98.2756 88.7381 96.7855 88.7381 94.668V93.9622C88.7381 91.6617 88.3896 90.0147 87.6926 89.0213C86.9956 88.0279 85.8726 87.5312 84.3237 87.5312Z" fill="#565656"/>
<path d="M111.965 82.7865C112.249 82.7865 112.584 82.7995 112.972 82.8257C113.359 82.8518 113.669 82.891 113.901 82.9433L113.475 88.4331C113.294 88.3808 113.023 88.3416 112.662 88.3155C112.326 88.2632 112.029 88.2371 111.771 88.2371C110.79 88.2371 109.848 88.4201 108.944 88.786C108.041 89.1259 107.305 89.6879 106.737 90.4722C106.195 91.2565 105.924 92.3283 105.924 93.6877V104.589H100.154V83.1786H104.53L105.382 86.7862H105.653C106.273 85.6882 107.124 84.7471 108.209 83.9629C109.293 83.1786 110.545 82.7865 111.965 82.7865Z" fill="#565656"/>
<path d="M125.656 82.7472C128.496 82.7472 130.664 83.3747 132.162 84.6295C133.685 85.8581 134.446 87.7534 134.446 90.3154V104.589H130.419L129.296 101.687H129.141C128.238 102.837 127.283 103.674 126.276 104.197C125.269 104.72 123.888 104.981 122.132 104.981C120.248 104.981 118.686 104.432 117.447 103.334C116.208 102.21 115.588 100.498 115.588 98.1972C115.588 95.9228 116.376 94.2497 117.95 93.1779C119.525 92.0799 121.887 91.4787 125.037 91.3741L128.715 91.2565V90.3154C128.715 89.1912 128.419 88.3678 127.825 87.8449C127.257 87.3221 126.457 87.0607 125.424 87.0607C124.391 87.0607 123.384 87.2175 122.404 87.5312C121.423 87.8188 120.442 88.1848 119.461 88.6292L117.563 84.6687C118.699 84.0674 119.951 83.5969 121.319 83.257C122.713 82.9172 124.159 82.7472 125.656 82.7472ZM128.715 94.668L126.469 94.7464C124.611 94.7987 123.32 95.1385 122.597 95.766C121.874 96.3934 121.513 97.2168 121.513 98.2364C121.513 99.1252 121.771 99.7657 122.287 100.158C122.804 100.524 123.475 100.707 124.301 100.707C125.54 100.707 126.586 100.341 127.438 99.6088C128.289 98.8507 128.715 97.792 128.715 96.4326V94.668Z" fill="#565656"/>
<path d="M152.124 82.7865C154.499 82.7865 156.423 83.7276 157.894 85.6098C159.366 87.4659 160.101 90.2108 160.101 93.8445C160.101 97.4783 159.34 100.249 157.817 102.158C156.293 104.04 154.344 104.981 151.969 104.981C150.446 104.981 149.233 104.707 148.329 104.158C147.426 103.582 146.69 102.942 146.122 102.236H145.812C146.019 103.334 146.122 104.38 146.122 105.373V114H140.352V83.1786H145.038L145.851 85.9627H146.122C146.69 85.1 147.452 84.355 148.407 83.7276C149.362 83.1002 150.601 82.7865 152.124 82.7865ZM150.266 87.4528C148.768 87.4528 147.71 87.9234 147.09 88.8645C146.496 89.8056 146.174 91.2434 146.122 93.1779V93.8053C146.122 95.8705 146.419 97.4652 147.013 98.5893C147.632 99.6872 148.742 100.236 150.343 100.236C151.66 100.236 152.628 99.6872 153.247 98.5893C153.893 97.4652 154.215 95.8575 154.215 93.7661C154.215 89.5572 152.899 87.4528 150.266 87.4528Z" fill="#565656"/>
<path d="M170.627 74.787V80.865C170.627 81.9107 170.588 82.9172 170.511 83.8844C170.459 84.8517 170.407 85.5314 170.356 85.9235H170.665C171.337 84.8255 172.201 84.0282 173.26 83.5315C174.318 83.0348 175.493 82.7865 176.784 82.7865C179.081 82.7865 180.914 83.4139 182.282 84.6687C183.676 85.8974 184.374 87.8841 184.374 90.6291V104.589H178.604V92.0799C178.604 88.9952 177.468 87.4528 175.196 87.4528C173.466 87.4528 172.266 88.0671 171.595 89.2958C170.949 90.4983 170.627 92.2368 170.627 94.5111V104.589H164.857V74.787H170.627Z" fill="#565656"/>
<path d="M193.211 74.787C194.063 74.787 194.799 74.9961 195.418 75.4144C196.038 75.8065 196.348 76.5516 196.348 77.6496C196.348 78.7214 196.038 79.4664 195.418 79.8847C194.799 80.303 194.063 80.5121 193.211 80.5121C192.333 80.5121 191.585 80.303 190.965 79.8847C190.372 79.4664 190.075 78.7214 190.075 77.6496C190.075 76.5516 190.372 75.8065 190.965 75.4144C191.585 74.9961 192.333 74.787 193.211 74.787ZM196.077 83.1786V104.589H190.307V83.1786H196.077Z" fill="#565656"/>
<path d="M210.702 104.981C207.553 104.981 205.113 104.105 203.383 102.354C201.68 100.576 200.828 97.792 200.828 94.0014C200.828 91.3872 201.266 89.2566 202.144 87.6097C203.022 85.9627 204.235 84.7471 205.784 83.9629C207.359 83.1786 209.166 82.7865 211.205 82.7865C212.651 82.7865 213.903 82.9302 214.962 83.2178C216.046 83.5054 216.988 83.8452 217.788 84.2373L216.085 88.7468C215.181 88.3809 214.329 88.0802 213.529 87.8449C212.754 87.6097 211.98 87.492 211.205 87.492C208.211 87.492 206.714 89.6487 206.714 93.9622C206.714 96.1058 207.101 97.6874 207.875 98.7069C208.676 99.7265 209.786 100.236 211.205 100.236C212.419 100.236 213.49 100.079 214.419 99.7657C215.349 99.4258 216.252 98.9684 217.13 98.3932V103.373C216.252 103.948 215.323 104.354 214.342 104.589C213.387 104.85 212.174 104.981 210.702 104.981Z" fill="#565656"/>
<path d="M244.372 104.589H231.787V101.217L235.156 99.648V81.5316L231.787 79.9631V76.5908H244.372V79.9631L241.003 81.5316V99.648L244.372 101.217V104.589Z" fill="#565656"/>
<path d="M260.623 82.7865C262.895 82.7865 264.715 83.4139 266.083 84.6687C267.451 85.8974 268.135 87.8841 268.135 90.6291V104.589H262.366V92.0799C262.366 90.5376 262.095 89.3873 261.552 88.6292C261.01 87.8449 260.145 87.4528 258.958 87.4528C257.202 87.4528 256.002 88.0671 255.357 89.2958C254.711 90.4983 254.389 92.2368 254.389 94.5111V104.589H248.619V83.1786H253.033L253.808 85.9235H254.118C254.789 84.8255 255.705 84.0282 256.867 83.5315C258.054 83.0348 259.306 82.7865 260.623 82.7865Z" fill="#565656"/>
<path d="M285.763 87.5704H280.768V104.589H274.998V87.5704H271.823V84.7471L274.998 83.1786V81.6101C274.998 79.7801 275.295 78.3685 275.889 77.3751C276.508 76.3555 277.373 75.6366 278.483 75.2183C279.619 74.8001 280.949 74.591 282.472 74.591C283.608 74.591 284.627 74.6824 285.531 74.8654C286.46 75.0484 287.209 75.2576 287.777 75.4928L286.305 79.7671C285.867 79.6364 285.389 79.5187 284.873 79.4141C284.356 79.2834 283.763 79.2181 283.091 79.2181C282.291 79.2181 281.697 79.4664 281.31 79.9631C280.949 80.4598 280.768 81.0872 280.768 81.8454V83.1786H285.763V87.5704Z" fill="#565656"/>
<path d="M308.251 93.8445C308.251 97.3998 307.321 100.145 305.463 102.079C303.63 104.014 301.126 104.981 297.95 104.981C295.988 104.981 294.233 104.55 292.684 103.687C291.161 102.824 289.96 101.569 289.083 99.9225C288.205 98.2495 287.766 96.2234 287.766 93.8445C287.766 90.2892 288.682 87.5574 290.515 85.649C292.348 83.7406 294.865 82.7865 298.066 82.7865C300.054 82.7865 301.81 83.2178 303.333 84.0805C304.856 84.9432 306.056 86.198 306.934 87.8449C307.812 89.4657 308.251 91.4656 308.251 93.8445ZM293.652 93.8445C293.652 95.962 293.988 97.5698 294.659 98.6677C295.356 99.7395 296.479 100.275 298.028 100.275C299.551 100.275 300.648 99.7395 301.319 98.6677C302.016 97.5698 302.365 95.962 302.365 93.8445C302.365 91.727 302.016 90.1454 301.319 89.0998C300.648 88.0279 299.538 87.492 297.989 87.492C296.466 87.492 295.356 88.0279 294.659 89.0998C293.988 90.1454 293.652 91.727 293.652 93.8445Z" fill="#565656"/>
<path d="M324.83 82.7865C325.114 82.7865 325.449 82.7995 325.836 82.8257C326.224 82.8518 326.533 82.891 326.766 82.9433L326.34 88.4331C326.159 88.3808 325.888 88.3416 325.527 88.3155C325.191 88.2632 324.894 88.2371 324.636 88.2371C323.655 88.2371 322.713 88.4201 321.809 88.786C320.906 89.1259 320.17 89.6879 319.602 90.4722C319.06 91.2565 318.789 92.3283 318.789 93.6877V104.589H313.019V83.1786H317.395L318.247 86.7862H318.518C319.137 85.6882 319.989 84.7471 321.073 83.9629C322.158 83.1786 323.41 82.7865 324.83 82.7865Z" fill="#565656"/>
<path d="M355.425 82.7865C357.826 82.7865 359.633 83.4139 360.846 84.6687C362.085 85.8974 362.705 87.8841 362.705 90.6291V104.589H356.935V92.0799C356.935 88.9952 355.877 87.4528 353.76 87.4528C352.237 87.4528 351.153 88.0018 350.507 89.0998C349.862 90.1977 349.539 91.7793 349.539 93.8445V104.589H343.769V92.0799C343.769 88.9952 342.711 87.4528 340.594 87.4528C338.993 87.4528 337.883 88.0671 337.264 89.2958C336.67 90.4983 336.373 92.2368 336.373 94.5111V104.589H330.603V83.1786H335.018L335.792 85.9235H336.102C336.747 84.8255 337.625 84.0282 338.735 83.5315C339.871 83.0348 341.046 82.7865 342.259 82.7865C343.808 82.7865 345.125 83.0479 346.209 83.5707C347.293 84.0674 348.119 84.8517 348.687 85.9235H349.191C349.836 84.8255 350.727 84.0282 351.862 83.5315C353.024 83.0348 354.212 82.7865 355.425 82.7865Z" fill="#565656"/>
<path d="M377.32 82.7472C380.16 82.7472 382.328 83.3747 383.826 84.6295C385.349 85.8581 386.11 87.7534 386.11 90.3154V104.589H382.083L380.96 101.687H380.805C379.902 102.837 378.946 103.674 377.94 104.197C376.933 104.72 375.552 104.981 373.796 104.981C371.912 104.981 370.35 104.432 369.111 103.334C367.872 102.21 367.252 100.498 367.252 98.1972C367.252 95.9228 368.039 94.2497 369.614 93.1779C371.189 92.0799 373.551 91.4787 376.7 91.3741L380.379 91.2565V90.3154C380.379 89.1912 380.082 88.3678 379.489 87.8449C378.921 87.3221 378.12 87.0607 377.088 87.0607C376.055 87.0607 375.048 87.2175 374.067 87.5312C373.086 87.8188 372.105 88.1848 371.124 88.6292L369.227 84.6687C370.363 84.0674 371.615 83.5969 372.983 83.257C374.377 82.9172 375.823 82.7472 377.32 82.7472ZM380.379 94.668L378.133 94.7464C376.275 94.7987 374.984 95.1385 374.261 95.766C373.538 96.3934 373.177 97.2168 373.177 98.2364C373.177 99.1252 373.435 99.7657 373.951 100.158C374.467 100.524 375.139 100.707 375.965 100.707C377.204 100.707 378.249 100.341 379.101 99.6088C379.953 98.8507 380.379 97.792 380.379 96.4326V94.668Z" fill="#565656"/>
<path d="M400.922 100.315C401.568 100.315 402.187 100.249 402.781 100.119C403.375 99.9879 403.969 99.831 404.562 99.648V104.001C403.943 104.262 403.168 104.484 402.239 104.667C401.336 104.876 400.342 104.981 399.257 104.981C397.992 104.981 396.857 104.772 395.85 104.354C394.869 103.935 394.081 103.216 393.488 102.197C392.92 101.151 392.636 99.7134 392.636 97.8835V87.5704H389.886V85.1L393.062 83.1394L394.727 78.6299H398.405V83.1786H404.33V87.5704H398.405V97.8835C398.405 98.6939 398.638 99.3082 399.102 99.7265C399.567 100.119 400.174 100.315 400.922 100.315Z" fill="#565656"/>
<path d="M411.711 74.787C412.562 74.787 413.298 74.9961 413.918 75.4144C414.537 75.8065 414.847 76.5516 414.847 77.6496C414.847 78.7214 414.537 79.4664 413.918 79.8847C413.298 80.303 412.562 80.5121 411.711 80.5121C410.833 80.5121 410.084 80.303 409.465 79.8847C408.871 79.4664 408.574 78.7214 408.574 77.6496C408.574 76.5516 408.871 75.8065 409.465 75.4144C410.084 74.9961 410.833 74.787 411.711 74.787ZM414.576 83.1786V104.589H408.806V83.1786H414.576Z" fill="#565656"/>
<path d="M439.812 93.8445C439.812 97.3998 438.882 100.145 437.023 102.079C435.191 104.014 432.686 104.981 429.511 104.981C427.549 104.981 425.794 104.55 424.245 103.687C422.722 102.824 421.521 101.569 420.644 99.9225C419.766 98.2495 419.327 96.2234 419.327 93.8445C419.327 90.2892 420.243 87.5574 422.076 85.649C423.909 83.7406 426.426 82.7865 429.627 82.7865C431.615 82.7865 433.371 83.2178 434.894 84.0805C436.417 84.9432 437.617 86.198 438.495 87.8449C439.373 89.4657 439.812 91.4656 439.812 93.8445ZM425.213 93.8445C425.213 95.962 425.548 97.5698 426.22 98.6677C426.917 99.7395 428.04 100.275 429.589 100.275C431.112 100.275 432.209 99.7395 432.88 98.6677C433.577 97.5698 433.926 95.962 433.926 93.8445C433.926 91.727 433.577 90.1454 432.88 89.0998C432.209 88.0279 431.099 87.492 429.55 87.492C428.027 87.492 426.917 88.0279 426.22 89.0998C425.548 90.1454 425.213 91.727 425.213 93.8445Z" fill="#565656"/>
<path d="M456.584 82.7865C458.856 82.7865 460.676 83.4139 462.044 84.6687C463.412 85.8974 464.097 87.8841 464.097 90.6291V104.589H458.327V92.0799C458.327 90.5376 458.056 89.3873 457.514 88.6292C456.971 87.8449 456.107 87.4528 454.919 87.4528C453.164 87.4528 451.963 88.0671 451.318 89.2958C450.672 90.4983 450.35 92.2368 450.35 94.5111V104.589H444.58V83.1786H448.994L449.769 85.9235H450.079C450.75 84.8255 451.666 84.0282 452.828 83.5315C454.016 83.0348 455.268 82.7865 456.584 82.7865Z" fill="#565656"/>
<path d="M498.369 96.8247C498.369 99.3082 497.478 101.295 495.697 102.785C493.941 104.249 491.437 104.981 488.185 104.981C485.267 104.981 482.66 104.419 480.362 103.295V97.7658C481.679 98.3409 483.034 98.8769 484.428 99.3736C485.848 99.8441 487.255 100.079 488.649 100.079C490.095 100.079 491.115 99.8049 491.708 99.2559C492.328 98.6808 492.638 97.9619 492.638 97.0992C492.638 96.3934 492.393 95.7921 491.902 95.2954C491.437 94.7987 490.805 94.3412 490.005 93.923C489.204 93.4785 488.288 93.008 487.255 92.5113C486.61 92.1976 485.913 91.8316 485.164 91.4133C484.416 90.9689 483.693 90.433 482.996 89.8056C482.324 89.152 481.769 88.3678 481.331 87.4528C480.892 86.5378 480.672 85.4399 480.672 84.1589C480.672 81.6493 481.511 79.7017 483.189 78.3162C484.867 76.9045 487.152 76.1987 490.043 76.1987C491.489 76.1987 492.857 76.3686 494.148 76.7084C495.465 77.0483 496.833 77.5319 498.253 78.1593L496.355 82.7865C495.09 82.2636 493.954 81.8584 492.948 81.5709C491.941 81.2833 490.908 81.1395 489.85 81.1395C488.74 81.1395 487.888 81.4009 487.294 81.9238C486.7 82.4466 486.403 83.1263 486.403 83.9629C486.403 84.9562 486.842 85.7405 487.72 86.3156C488.598 86.8908 489.901 87.5966 491.631 88.4331C493.051 89.1128 494.251 89.8187 495.232 90.5506C496.239 91.2826 497.014 92.1453 497.556 93.1387C498.098 94.1321 498.369 95.3607 498.369 96.8247Z" fill="#565656"/>
<path d="M499.909 83.1786H506.221L510.21 95.217C510.416 95.7921 510.571 96.3934 510.674 97.0208C510.778 97.622 510.855 98.2625 510.907 98.9422H511.023C511.1 98.2625 511.204 97.622 511.333 97.0208C511.488 96.3934 511.655 95.7921 511.836 95.217L515.747 83.1786H521.943L512.998 107.334C512.198 109.556 511.023 111.216 509.474 112.314C507.951 113.438 506.182 114 504.169 114C503.523 114 502.956 113.961 502.465 113.882C502 113.83 501.587 113.765 501.226 113.686V109.059C501.51 109.111 501.845 109.164 502.233 109.216C502.646 109.268 503.072 109.294 503.511 109.294C504.724 109.294 505.679 108.915 506.376 108.157C507.099 107.425 507.628 106.536 507.964 105.491L508.312 104.432L499.909 83.1786Z" fill="#565656"/>
<path d="M539.73 98.2364C539.73 100.406 538.968 102.079 537.445 103.256C535.948 104.406 533.702 104.981 530.707 104.981C529.236 104.981 527.971 104.876 526.912 104.667C525.854 104.484 524.796 104.171 523.737 103.726V98.903C524.873 99.4258 526.099 99.8572 527.416 100.197C528.732 100.537 529.894 100.707 530.901 100.707C532.037 100.707 532.837 100.537 533.302 100.197C533.792 99.8572 534.038 99.4128 534.038 98.8638C534.038 98.4978 533.934 98.171 533.728 97.8835C533.547 97.5959 533.134 97.2691 532.489 96.9031C531.843 96.5372 530.836 96.0666 529.468 95.4915C528.152 94.9163 527.067 94.3543 526.215 93.8053C525.363 93.2302 524.731 92.5505 524.318 91.7662C523.905 90.9558 523.698 89.9494 523.698 88.7468C523.698 86.76 524.46 85.2699 525.983 84.2766C527.506 83.2831 529.533 82.7865 532.063 82.7865C533.379 82.7865 534.631 82.9172 535.819 83.1786C537.006 83.44 538.233 83.8714 539.497 84.4726L537.755 88.6684C536.722 88.224 535.741 87.858 534.812 87.5704C533.883 87.2567 532.94 87.0999 531.985 87.0999C530.281 87.0999 529.429 87.5705 529.429 88.5116C529.429 88.8514 529.533 89.1651 529.739 89.4527C529.972 89.7141 530.398 90.0016 531.017 90.3154C531.662 90.6291 532.605 91.0473 533.844 91.5702C535.057 92.0669 536.103 92.5897 536.981 93.1387C537.858 93.6615 538.529 94.3281 538.994 95.1385C539.485 95.9228 539.73 96.9554 539.73 98.2364Z" fill="#565656"/>
<path d="M553.131 100.315C553.776 100.315 554.396 100.249 554.99 100.119C555.583 99.9879 556.177 99.831 556.771 99.648V104.001C556.151 104.262 555.377 104.484 554.447 104.667C553.544 104.876 552.55 104.981 551.466 104.981C550.201 104.981 549.065 104.772 548.058 104.354C547.077 103.935 546.29 103.216 545.696 102.197C545.128 101.151 544.844 99.7134 544.844 97.8835V87.5704H542.095V85.1L545.27 83.1394L546.935 78.6299H550.614V83.1786H556.539V87.5704H550.614V97.8835C550.614 98.6939 550.846 99.3082 551.311 99.7265C551.776 100.119 552.382 100.315 553.131 100.315Z" fill="#565656"/>
<path d="M569.727 82.7865C572.645 82.7865 574.955 83.6361 576.659 85.3353C578.363 87.0084 579.215 89.4004 579.215 92.5113V95.3346H565.584C565.636 96.9816 566.113 98.2756 567.017 99.2167C567.946 100.158 569.224 100.628 570.85 100.628C572.219 100.628 573.458 100.498 574.568 100.236C575.678 99.9487 576.827 99.5173 578.014 98.9422V103.452C576.982 103.975 575.884 104.354 574.723 104.589C573.587 104.85 572.206 104.981 570.579 104.981C568.462 104.981 566.591 104.589 564.964 103.805C563.338 102.994 562.06 101.779 561.131 100.158C560.201 98.537 559.737 96.4979 559.737 94.0406C559.737 91.531 560.15 89.4527 560.976 87.8057C561.828 86.1326 563.003 84.8778 564.5 84.0413C565.997 83.2047 567.74 82.7865 569.727 82.7865ZM569.766 86.943C568.656 86.943 567.727 87.309 566.978 88.041C566.255 88.773 565.829 89.9101 565.7 91.4525H573.793C573.768 90.1454 573.432 89.0736 572.787 88.2371C572.141 87.3744 571.134 86.943 569.766 86.943Z" fill="#565656"/>
<path d="M608.715 82.7865C611.116 82.7865 612.923 83.4139 614.136 84.6687C615.375 85.8974 615.995 87.8841 615.995 90.6291V104.589H610.225V92.0799C610.225 88.9952 609.167 87.4528 607.05 87.4528C605.527 87.4528 604.442 88.0018 603.797 89.0998C603.152 90.1977 602.829 91.7793 602.829 93.8445V104.589H597.059V92.0799C597.059 88.9952 596.001 87.4528 593.884 87.4528C592.283 87.4528 591.173 88.0671 590.554 89.2958C589.96 90.4983 589.663 92.2368 589.663 94.5111V104.589H583.893V83.1786H588.308L589.082 85.9235H589.392C590.037 84.8255 590.915 84.0282 592.025 83.5315C593.161 83.0348 594.336 82.7865 595.549 82.7865C597.098 82.7865 598.414 83.0479 599.499 83.5707C600.583 84.0674 601.409 84.8517 601.977 85.9235H602.48C603.126 84.8255 604.016 84.0282 605.152 83.5315C606.314 83.0348 607.502 82.7865 608.715 82.7865Z" fill="#565656"/>
</svg>
