<svg width="245" height="32" viewBox="0 0 245 32" fill="none" xmlns="http://www.w3.org/2000/svg">
<path d="M17.2955 0.866821C17.2955 0.945692 17.2895 1.02456 17.2895 1.10272C17.2895 6.00075 17.2895 10.8988 17.2895 15.7968V16.0149C17.2412 15.9723 17.2097 15.9481 17.1822 15.9197C16.0601 14.754 14.9377 13.5884 13.8152 12.4231C13.7763 12.3855 13.7458 12.3392 13.7257 12.2876C13.7057 12.236 13.6966 12.1804 13.6992 12.1247C13.7023 9.715 13.7023 7.30554 13.6992 4.89632C13.6992 4.65331 13.6992 4.6533 13.4686 4.6533C13.1339 4.6533 12.7987 4.6533 12.4631 4.6533C12.2714 4.6533 12.268 4.65828 12.268 4.85937C12.268 6.56941 12.268 8.27922 12.268 9.98879C12.268 10.8514 12.268 11.7133 12.268 12.5759C12.2654 12.639 12.2761 12.7021 12.2993 12.7603C12.3225 12.8186 12.3576 12.8706 12.4021 12.9127C13.9877 14.5559 15.5719 16.2006 17.1547 17.8467C17.2008 17.8899 17.2373 17.9433 17.2616 18.0031C17.2859 18.0629 17.2975 18.1276 17.2955 18.1927C17.2919 22.4352 17.2919 26.6776 17.2955 30.92C17.2955 31.1332 17.2955 31.1332 17.1018 31.1332H8.88759C8.68649 31.1332 8.6865 31.1332 8.6865 30.9271C8.6865 26.0097 8.6865 21.092 8.6865 16.1741V16.0036C8.72404 16.0348 8.74481 16.0497 8.76291 16.0682C9.88771 17.2382 11.013 18.4078 12.1387 19.5769C12.1857 19.6224 12.2226 19.6783 12.2467 19.7407C12.2708 19.8032 12.2815 19.8705 12.2781 19.9379C12.2741 22.3229 12.2741 24.7077 12.2781 27.0923C12.2781 27.1414 12.2781 27.1911 12.2781 27.2401C12.2781 27.3318 12.3103 27.3723 12.4021 27.3716C12.7972 27.3683 13.1922 27.3683 13.5873 27.3716C13.6697 27.3716 13.7086 27.3389 13.7072 27.2515C13.7072 27.2074 13.7072 27.1627 13.7072 27.1186C13.7072 24.5663 13.7072 22.0138 13.7072 19.4611C13.7099 19.3935 13.6984 19.3262 13.6736 19.2639C13.6488 19.2016 13.6113 19.1459 13.5638 19.1008C11.9881 17.468 10.4139 15.8337 8.84134 14.1981C8.78869 14.1486 8.74707 14.0874 8.71948 14.0188C8.69189 13.9503 8.67903 13.8761 8.68182 13.8016C8.68628 9.56909 8.68628 5.33637 8.68182 1.10342C8.68182 1.02455 8.67779 0.945675 8.67578 0.867515L17.2955 0.866821Z" fill="white"/>
<path d="M0 8.46613C0.0670326 8.47039 0.129374 8.47749 0.193725 8.47749C2.46658 8.47749 4.73943 8.47749 7.01228 8.47749C7.15506 8.47749 7.19125 8.518 7.19058 8.66721C7.18477 9.81024 7.18477 10.9533 7.19058 12.0963C7.19058 12.2505 7.14501 12.2853 7.00827 12.2846C5.94379 12.2796 4.87931 12.2846 3.81551 12.2846C3.61441 12.2846 3.61442 12.2846 3.61442 12.4978C3.61442 14.843 3.61442 17.1878 3.61442 19.5322C3.61442 19.7453 3.6144 19.7453 3.82287 19.7453C4.88735 19.7453 5.95182 19.7453 7.01563 19.7453C7.1497 19.7453 7.18789 19.7837 7.18722 19.9265C7.18186 21.0634 7.18722 22.2003 7.18722 23.3407C7.18722 23.5432 7.18724 23.5432 6.99955 23.5432H0.209149C0.142117 23.5432 0.0704094 23.5482 0.000695528 23.551L0 8.46613Z" fill="white"/>
<path d="M25.9592 16.0015C25.9592 18.4505 25.9592 20.8995 25.9592 23.3485C25.9592 23.4963 25.9264 23.5403 25.7823 23.5403C23.5032 23.5356 21.2252 23.5356 18.9483 23.5403C18.8142 23.5403 18.7767 23.4991 18.7774 23.3577C18.7823 22.2095 18.7823 21.0613 18.7774 19.913C18.7774 19.7759 18.8136 19.7389 18.9423 19.7396C20.0148 19.7446 21.0873 19.7396 22.1638 19.7396C22.3502 19.7396 22.3509 19.7396 22.3509 19.5471C22.3509 17.1867 22.3509 14.8262 22.3509 12.4658C22.3509 12.3137 22.3053 12.2732 22.1679 12.2732C21.0953 12.2775 20.0295 12.2732 18.9604 12.2732C18.778 12.2732 18.7774 12.2732 18.7774 12.0771C18.7774 10.9402 18.7774 9.80337 18.7774 8.66224C18.7774 8.52013 18.8048 8.46826 18.9516 8.46897C21.2307 8.47418 23.5087 8.47418 25.7856 8.46897C25.9197 8.46897 25.9585 8.50379 25.9585 8.64874C25.9568 11.1015 25.957 13.5524 25.9592 16.0015Z" fill="white"/>
<path d="M45.0631 16.557V13.0578H48.8327V16.557H45.0631ZM39.2086 16.557V13.0578H42.9615V16.557H39.2086ZM45.0631 11.1536V8.33796H42.9615V11.1536H37.207V19.3564H39.2086V18.4612H42.9615V23.5391H45.0631V18.4612H48.8327V19.275H50.9177V11.1536H45.0631Z" fill="white"/>
<path d="M62.3433 20.5119H66.6133V15.8409H65.6125V19.0797H65.012V15.1085H66.7967V13.6763H65.9461C66.2129 12.9113 66.4631 11.9674 66.7133 11.121L65.3122 10.7955C65.2122 11.6256 64.9453 12.8462 64.6951 13.6763H62.1598V15.1085H63.9278V19.0797H63.3274V15.8409H62.3433V20.5119ZM62.3266 11.1536C62.6268 11.9023 62.9104 12.9113 62.9771 13.5298L64.1613 13.188C64.0779 12.5858 63.7777 11.6093 63.4441 10.8769L62.3266 11.1536ZM55.5546 12.3742C55.9716 11.886 56.3886 11.3814 56.7723 10.8281C57.5062 11.3163 58.2567 11.8534 58.8405 12.3742H55.5546ZM68.8316 8.9076H60.1249V11.2675C59.5244 10.6979 58.5737 10.0143 57.5896 9.44468C57.6896 9.26565 57.7897 9.07035 57.8731 8.89132L56.4887 8.27286C55.8382 9.62371 54.7207 10.9095 53.6198 11.707C53.8533 12.1464 54.237 13.1392 54.3537 13.5298C54.4871 13.4159 54.6206 13.3019 54.754 13.188V13.9204H56.0217V15.1736H54.1035V16.7523H56.0217V21.1304C55.2211 21.2769 54.5205 21.3908 53.9034 21.4722L54.3204 23.1811C55.9216 22.8881 57.9899 22.4812 59.9247 22.0906L59.7913 20.4956L57.6563 20.8537V16.7523H59.6412V15.1736H57.6563V13.9204H59.1241V12.6509C59.2075 12.7323 59.2909 12.8137 59.3743 12.8951L60.1249 11.6419V23.5391H61.7428V10.6002H67.197V21.5373C67.197 21.7814 67.1136 21.8465 66.8635 21.8628C66.6133 21.879 65.796 21.879 64.9953 21.8465C65.2288 22.3022 65.479 23.0671 65.5291 23.5391C66.7634 23.5391 67.5807 23.5066 68.1144 23.2136C68.6649 22.9207 68.8316 22.4324 68.8316 21.5535V8.9076ZM58.974 20.2515C59.1574 19.5842 59.4076 18.5426 59.6578 17.6149L58.3068 17.3057C58.2234 18.0869 57.9899 19.2424 57.7897 19.9423L58.974 20.2515ZM54.1035 17.7288C54.3537 18.624 54.5872 19.7958 54.6206 20.577L55.8882 20.2352C55.8215 19.5028 55.588 18.331 55.3045 17.4359L54.1035 17.7288Z" fill="white"/>
<path d="M86.6789 11.3977V9.78647H80.5241L81.0078 9.59116C80.8577 9.168 80.4907 8.53326 80.1571 8.06128L78.3891 8.71229C78.5726 9.02152 78.7894 9.41213 78.9395 9.78647H72.3177V14.6691C72.3177 16.9802 72.2343 20.2027 71.1668 22.3999C71.5671 22.5952 72.3511 23.1811 72.668 23.5066C73.8856 21.0653 74.1024 17.2243 74.1024 14.6691V11.3977H86.6789ZM76.521 14.1808C76.3375 13.5786 75.8371 12.7323 75.3534 12.0976L74.1525 12.6509C74.6195 13.3019 75.0865 14.1971 75.2366 14.7667L76.521 14.1808ZM78.0555 18.331V19.7795H77.2048V18.331H78.0555ZM78.8895 20.9676V17.1429H76.3708V21.4722H77.2048V20.9676H78.8895ZM80.9077 17.5335C81.1579 17.7451 81.3914 17.973 81.5249 18.1194C81.6917 17.8916 81.8418 17.6475 82.0086 17.3708C82.2588 18.2822 82.559 19.1611 82.926 19.9586C82.4089 20.7723 81.7584 21.5047 80.891 22.0581C80.9077 21.9604 80.9077 21.8465 80.9077 21.7326V17.5335ZM84.4438 15.4503C84.2937 16.378 84.0768 17.3219 83.7599 18.2008C83.4263 17.3545 83.1428 16.4105 82.9426 15.4503H84.4438ZM86.7289 15.4503V13.8716H83.4263C83.5765 13.2531 83.7266 12.6346 83.8433 11.9999L82.142 11.6907C81.8918 13.188 81.4915 14.6853 80.9077 15.8572V15.0108H78.4391V14.3924L79.6401 14.7993C80.0904 14.2296 80.5908 13.367 81.0912 12.5695L79.59 12.0976C79.3398 12.7323 78.8394 13.6925 78.4391 14.2947V11.7395H76.7878V15.0108H74.4694V23.3275H75.8204V16.4105H79.4899V21.6837C79.4899 21.8628 79.4399 21.9116 79.2397 21.9116C79.0563 21.9279 78.4224 21.9279 77.8053 21.9116C77.9888 22.2859 78.1556 22.8718 78.2223 23.2624C79.1897 23.2787 79.8569 23.2462 80.3239 23.0346C80.474 22.9532 80.5908 22.8556 80.6742 22.7416C80.9244 23.0509 81.1746 23.4089 81.3247 23.6531C82.3255 23.0834 83.1261 22.351 83.7766 21.4884C84.3437 22.3348 85.0443 23.0346 85.8449 23.5554C86.1118 23.0997 86.6288 22.4975 86.9958 22.1883C86.0784 21.6837 85.3111 20.9513 84.7107 20.0237C85.4279 18.624 85.8449 17.0615 86.1284 15.4503H86.7289Z" fill="white"/>
<path d="M94.0346 21.1792C92.3166 21.1792 91.8329 20.6258 91.8329 19.2099V10.6165H103.392V8.9076H89.2142V10.6165H89.8814V19.0797C89.8814 22.0743 91.2658 22.9532 94.2014 22.9532H100.773C102.108 22.9532 103.592 22.9369 104.226 22.7742C104.126 22.3185 104.009 21.4396 103.942 20.9676C103.258 21.0978 101.924 21.1792 100.873 21.1792H94.0346ZM98.8717 13.9692H96.1362V12.6346H98.8717V13.9692ZM100.84 11.3652H94.2848V15.2387H100.84V11.3652ZM94.1847 17.2568H95.4857V19.0309H94.1847V17.2568ZM92.5835 20.3329H97.1871V15.9548H92.5835V20.3329ZM100.907 19.0309H99.5556V17.2568H100.907V19.0309ZM102.625 15.9548H97.921V20.3329H102.625V15.9548Z" fill="white"/>
<path d="M118.871 11.0071V11.7883H116.919V11.0071H118.871ZM118.871 14.0343H116.919V13.2206H118.871V14.0343ZM115.051 11.7883H111.331V13.2206H115.051V14.0343H112.165V15.4828H115.051V16.2803H112.065V17.6475H115.051V18.4449H111.398V19.926H115.051V21.0327H116.919V19.926H121.339V18.4449H116.919V17.6475H120.805V16.2803H116.919V15.4828H120.605V13.2206H121.523V11.7883H120.605V9.54233H116.919V8.35424H115.051V9.54233H112.249V11.0071H115.051V11.7883ZM110.481 13.8065L110.147 13.839H109.563C110.297 12.6346 111.031 11.2187 111.665 9.77019L110.481 8.9727L109.814 9.2331H106.728V10.9095H109.18C108.596 12.2115 107.945 13.3182 107.695 13.6763C107.345 14.2296 106.878 14.6853 106.544 14.7667C106.795 15.1411 107.178 15.8897 107.312 16.2478C107.312 16.0362 107.812 15.727 108.196 15.5317H109.647C109.497 16.6058 109.28 17.5498 108.996 18.3798C108.679 17.8428 108.412 17.208 108.179 16.4756L106.728 16.9639C107.128 18.2496 107.612 19.275 108.212 20.1213C107.679 21.0327 107.028 21.7488 106.211 22.2859C106.628 22.5138 107.362 23.1811 107.629 23.5554C108.346 23.0346 108.98 22.3673 109.497 21.5047C111.215 22.8881 113.483 23.2299 116.285 23.2299H121.189C121.306 22.7091 121.606 21.8628 121.89 21.4559C120.755 21.5047 117.303 21.5047 116.335 21.5047C113.9 21.4884 111.815 21.2118 110.297 19.926C110.931 18.3798 111.365 16.4268 111.582 14.0506L110.481 13.8065Z" fill="white"/>
<path d="M130.096 15.5154L128.561 15.9385V13.3182H129.946V11.4791H128.561V8.35424H126.743V11.4791H125.959C126.06 10.8281 126.143 10.1933 126.21 9.54233L124.558 9.26565C124.408 11.1861 124.125 13.2206 123.608 14.5063C123.975 14.7179 124.708 15.1573 125.009 15.4015C125.242 14.8155 125.442 14.1157 125.626 13.3182H126.743V16.4268C125.609 16.736 124.592 16.9964 123.758 17.1755L124.241 19.0146C125.009 18.8193 125.843 18.5589 126.743 18.2985V23.5554H128.561V17.7614C129.179 17.5824 129.762 17.387 130.363 17.2243L130.096 15.5154ZM133.065 10.8606C133.299 10.1445 133.515 9.41213 133.682 8.66347L131.881 8.33796C131.38 10.7304 130.463 13.0578 129.145 14.4738C129.546 14.7179 130.33 15.255 130.646 15.5642C131.297 14.783 131.881 13.7739 132.364 12.6509H133.215C132.481 15.0108 131.18 17.4196 129.529 18.6891C130.046 18.9658 130.68 19.4052 131.047 19.7795C132.731 18.2171 134.132 15.3038 134.866 12.6509H135.65C134.816 16.4594 133.148 20.1539 130.48 22.0255C131.03 22.3022 131.714 22.7742 132.098 23.1485C134.783 20.9839 136.501 16.7523 137.318 12.6509H137.402C137.135 18.4938 136.835 20.7072 136.418 21.228C136.217 21.4722 136.051 21.5373 135.8 21.5373C135.484 21.5373 134.933 21.5373 134.316 21.4722C134.616 22.0092 134.816 22.8067 134.866 23.3601C135.584 23.3926 136.284 23.3926 136.751 23.3113C137.302 23.1973 137.669 23.0183 138.052 22.465C138.686 21.6512 138.986 18.9983 139.303 11.7395C139.32 11.5117 139.337 10.8606 139.337 10.8606H133.065Z" fill="white"/>
<path d="M145.191 17.4847V13.9204H146.742V12.0813H145.191V8.54954H143.356V12.0813H141.555V13.9204H143.356V18.2334C142.539 18.5589 141.805 18.8193 141.188 19.0309L141.989 20.9839C143.506 20.3166 145.375 19.4377 147.109 18.6077L146.659 16.8825L145.191 17.4847ZM150.879 21.5047C149.861 21.5047 149.711 21.3582 149.711 20.4143V15.3852L151.096 14.7993V19.7632H152.947V14.0181L154.231 13.4647C154.165 15.3852 154.031 17.4521 153.848 18.7705L155.466 19.2099C155.866 17.2568 156.1 14.2947 156.2 12.0325L156.266 11.7395L154.765 11.2675L152.947 12.0325V8.32168H151.096V12.8137L149.711 13.3833V9.90039H147.81V14.1808L146.175 14.8644L146.909 16.5733L147.81 16.1989V20.398C147.81 22.6277 148.46 23.2299 150.712 23.2299H154.265C156.216 23.2299 156.783 22.4487 157.05 20.1701C156.5 20.0725 155.749 19.7632 155.316 19.4703C155.166 21.1304 154.999 21.5047 154.098 21.5047H150.879Z" fill="white"/>
<path d="M164.289 18.4612C163.756 18.6402 163.205 18.803 162.655 18.9658V15.7107H164.156V13.9367H162.655V11.0722H164.439V9.26565H158.935V11.0722H160.77V13.9367H159.085V15.7107H160.77V19.5354C160.003 19.747 159.319 19.926 158.735 20.0725L159.185 22.0418C160.787 21.5373 162.788 20.9188 164.623 20.2841L164.289 18.4612ZM166.858 13.5461H168.576V14.9457H166.858V13.5461ZM166.858 10.6653H168.576V12.0325H166.858V10.6653ZM171.895 12.0325H170.244V10.6653H171.895V12.0325ZM171.895 14.9457H170.244V13.5461H171.895V14.9457ZM170.427 21.2769V19.7307H173.963V17.9892H170.427V16.5896H173.78V9.02152H165.073V16.5896H168.409V17.9892H164.956V19.7307H168.409V21.2769H163.806V23.0346H174.531V21.2769H170.427Z" fill="white"/>
<path d="M181.553 9.75391C180.735 9.36331 179.151 8.8425 178.033 8.59837L177.183 9.90039C178.317 10.2259 179.885 10.8118 180.669 11.2187L181.553 9.75391ZM181.186 11.4465C179.451 11.9023 177.65 12.3742 176.432 12.6346L177.216 14.311C178.45 13.9204 179.968 13.4321 181.419 12.9602L181.186 11.4465ZM180.619 18.9332H187.841V19.6656H180.619V18.9332ZM180.619 17.1429H187.841V17.8428H180.619V17.1429ZM180.619 15.3526H187.841V16.0525H180.619V15.3526ZM183.087 14.1971C184.338 13.839 185.422 13.3019 186.256 12.5533C187.09 13.2694 188.175 13.8227 189.359 14.1971H183.087ZM189.859 20.8049V14.3436C190.059 14.3924 190.243 14.4412 190.443 14.4738C190.693 14.0506 191.16 13.4159 191.527 13.1066C189.759 12.8788 188.091 12.3254 187.107 11.5605C187.207 11.3977 187.307 11.2187 187.391 11.0397L185.823 10.7793H189.125C188.908 11.121 188.692 11.4465 188.491 11.6744L190.026 12.1464C190.576 11.5442 191.16 10.5677 191.594 9.68881L190.293 9.36331L189.993 9.41213H185.072C185.222 9.15173 185.372 8.89132 185.489 8.61464L183.738 8.33796C183.304 9.28193 182.487 10.3561 181.286 11.1699C181.753 11.3489 182.42 11.7395 182.77 12.0813C183.287 11.6744 183.721 11.2512 184.105 10.7793H185.606C185.072 11.9836 183.371 12.7649 181.386 13.1066C181.603 13.367 181.936 13.8227 182.153 14.1971H178.701V20.8049H181.102C179.935 21.3745 178.15 21.8628 176.549 22.1557C176.983 22.4812 177.683 23.1973 178.017 23.5717C179.701 23.116 181.853 22.3022 183.221 21.4559L181.77 20.8049H186.473L185.456 21.6024C187.107 22.1883 188.825 22.9858 189.776 23.5229L191.561 22.4812C190.576 22.0092 188.958 21.3582 187.424 20.8049H189.859Z" fill="white"/>
<path d="M200.117 11.0234H197.182L198.199 10.4375C197.965 9.83529 197.482 8.94015 197.081 8.27286L195.664 8.9727C196.014 9.59116 196.431 10.4049 196.648 11.0234H193.996V12.5533H200.117V11.0234ZM199.517 14.7504V13.2857H194.68V14.7504H199.517ZM197.982 19.2587V21.0816H196.214V19.2587H197.982ZM199.55 17.7126H194.696V23.3275H196.214V22.644H199.55V17.7126ZM194.68 16.9313H199.55V15.4666H194.68V16.9313ZM200.334 9.168V11.0071H201.969V15.3038H200.101V17.1104H201.969V23.5229H203.82V17.1104H205.421V15.3038H203.82V11.0071H205.838C205.822 17.0615 205.838 22.6928 207.423 23.3438C208.457 23.767 209.308 23.2624 209.558 20.8862C209.274 20.5933 208.791 19.8283 208.524 19.3238C208.474 20.3654 208.39 21.4233 208.307 21.3908C207.69 21.1955 207.673 14.5226 207.823 9.168H200.334Z" fill="white"/>
<path d="M226.771 16.1989H220.216V11.2675H225.804V9.34703H212.527V11.2675H218.148V16.1989H211.66V18.152H218.148V23.5391H220.216V18.152H226.771V16.1989ZM213.544 12.3091C214.078 13.3996 214.595 14.8155 214.762 15.6944L216.697 15.1085C216.513 14.1971 215.913 12.83 215.362 11.7883L213.544 12.3091ZM223.285 15.6619C223.852 14.8318 224.52 13.5135 225.12 12.2603L223.002 11.7395C222.685 12.7974 222.084 14.2296 221.551 15.1736L223.285 15.6619Z" fill="white"/>
<path d="M240.182 18.2334V20.8374H233.11V18.2334H240.182ZM231.075 23.5229H233.11V22.6928H240.182V23.5066H242.317V16.378H231.075V23.5229ZM238.063 10.8444C238.681 11.4465 239.348 12.1301 239.998 12.8462L233.16 13.0578C234.427 11.8697 235.745 10.4212 236.796 8.9076L234.794 8.07755C233.66 10.0306 231.842 11.9999 231.258 12.5044C230.708 13.0253 230.307 13.3345 229.874 13.4484C230.107 13.953 230.424 14.9132 230.524 15.3038C231.408 15.0108 232.592 14.9783 241.449 14.5551C241.8 15.0108 242.1 15.434 242.317 15.7921L244.001 14.604C243.134 13.2368 241.149 11.235 239.615 9.83529L238.063 10.8444Z" fill="white"/>
</svg>
