<svg width="286" height="40" viewBox="0 0 286 40" fill="none" xmlns="http://www.w3.org/2000/svg">
<path d="M11.0977 2.45001H21.9665V20.1361L17.465 15.6023V6.91959H15.5972V16.3693L21.9646 22.6902V38.5244H11.0977V20.7746L15.5997 25.3085V33.9924H17.4675V24.542L11.0977 18.2212V2.45001Z" fill="#4694D1"/>
<path d="M23.7695 11.4528V15.9867H28.3357V24.9895H23.7695V29.4585H32.9019V11.4528H23.7695Z" fill="#4694D1"/>
<path d="M9.23231 29.4616V24.9926H4.73024V15.9867H9.23231V11.4534H0.164062V29.4616H9.23231Z" fill="#4694D1"/>
<path d="M54.1678 10.7705V6.54031H58.5577V10.7705H54.1678ZM47.35 10.7705V6.54031H51.7204V10.7705H47.35ZM54.1678 4.2383V0.834479H51.7204V4.2383H45.0191V14.1547H47.35V13.0725H51.7204V19.2112H54.1678V13.0725H58.5577V14.0563H60.9857V4.2383H54.1678Z" fill="#565656"/>
<path d="M74.2912 15.5516H79.2638V9.90479H78.0983V13.8202H77.3991V9.0194H79.4774V7.28797H78.4868C78.7976 6.36324 79.089 5.22207 79.3803 4.19895L77.7487 3.80545C77.6322 4.80889 77.3214 6.28453 77.03 7.28797H74.0775V9.0194H76.1365V13.8202H75.4372V9.90479H74.2912V15.5516ZM74.2718 4.2383C74.6214 5.14337 74.9516 6.36324 75.0293 7.1109L76.4084 6.69772C76.3113 5.96973 75.9617 4.78921 75.5732 3.90382L74.2718 4.2383ZM66.3856 5.71395C66.8712 5.12369 67.3568 4.51376 67.8036 3.8448C68.6582 4.43506 69.5323 5.08434 70.2122 5.71395H66.3856ZM81.8472 1.52311H71.7078V4.37603C71.0085 3.6874 69.9014 2.86103 68.7553 2.1724C68.8719 1.95597 68.9884 1.71987 69.0856 1.50344L67.4734 0.755779C66.7158 2.38883 65.4144 3.94318 64.1324 4.90726C64.4043 5.4385 64.8511 6.63869 64.9871 7.1109C65.1425 6.97317 65.2979 6.83544 65.4532 6.69772V7.5831H66.9295V9.0981H64.6957V11.0066H66.9295V16.2993C65.9971 16.4763 65.1813 16.6141 64.4626 16.7124L64.9482 18.7783C66.8129 18.4242 69.2215 17.9323 71.4747 17.4601L71.3193 15.5319L68.833 15.9648V11.0066H71.1445V9.0981H68.833V7.5831H70.5424V6.04843C70.6395 6.14681 70.7366 6.24518 70.8337 6.34356L71.7078 4.82856V19.2112H73.5919V3.56935H79.9436V16.7911C79.9436 17.0863 79.8465 17.165 79.5551 17.1846C79.2638 17.2043 78.312 17.2043 77.3796 17.165C77.6516 17.7159 77.9429 18.6406 78.0012 19.2112C79.4386 19.2112 80.3904 19.1719 81.012 18.8177C81.6529 18.4635 81.8472 17.8733 81.8472 16.8108V1.52311ZM70.3675 15.2368C70.5812 14.4301 70.8726 13.1709 71.1639 12.0494L69.5906 11.6756C69.4935 12.62 69.2215 14.0169 68.9884 14.863L70.3675 15.2368ZM64.6957 12.1871C64.9871 13.2693 65.259 14.6859 65.2979 15.6303L66.7741 15.2171C66.6964 14.3317 66.4245 12.9151 66.0942 11.833L64.6957 12.1871Z" fill="#565656"/>
<path d="M102.631 4.53343V2.58558H95.4635L96.0268 2.34948C95.852 1.83792 95.4246 1.07058 95.0361 0.5L92.9772 1.28701C93.1909 1.66084 93.4434 2.13305 93.6182 2.58558H85.9068V8.48817C85.9068 11.2821 85.8097 15.1778 84.5666 17.8339C85.0327 18.07 85.9457 18.7783 86.3147 19.1719C87.7327 16.2206 87.9852 11.5772 87.9852 8.48817V4.53343H102.631ZM90.8017 7.89791C90.588 7.16992 90.0053 6.14681 89.442 5.37947L88.0435 6.04843C88.5874 6.83544 89.1312 7.91758 89.306 8.60622L90.8017 7.89791ZM92.5887 12.9151V14.6662H91.5981V12.9151H92.5887ZM93.5599 16.1025V11.4788H90.6269V16.7124H91.5981V16.1025H93.5599ZM95.9102 11.951C96.2016 12.2068 96.4735 12.4823 96.6289 12.6593C96.8232 12.3839 96.998 12.0887 97.1922 11.7543C97.4836 12.8561 97.8332 13.9185 98.2606 14.8826C97.6584 15.8664 96.9009 16.7518 95.8908 17.4208C95.9102 17.3027 95.9102 17.165 95.9102 17.0272V11.951ZM100.028 9.43258C99.8533 10.5541 99.6008 11.6952 99.2318 12.7577C98.8433 11.7346 98.5131 10.5934 98.28 9.43258H100.028ZM102.689 9.43258V7.52408H98.8433C99.0181 6.77642 99.1929 6.02876 99.3289 5.26142L97.3476 4.88759C97.0563 6.69772 96.5901 8.50784 95.9102 9.92446V8.90135H93.0355V8.15369L94.434 8.64557C94.9585 7.95693 95.5412 6.91414 96.1239 5.95006L94.3757 5.37947C94.0844 6.14681 93.5016 7.30765 93.0355 8.03564V4.94662H91.1125V8.90135H88.4125V18.9554H89.9859V10.5934H94.2592V16.9682C94.2592 17.1846 94.2009 17.2437 93.9678 17.2437C93.7542 17.2633 93.016 17.2633 92.2974 17.2437C92.511 17.6962 92.7053 18.4045 92.783 18.8767C93.9096 18.8964 94.6865 18.857 95.2304 18.6013C95.4052 18.5029 95.5412 18.3848 95.6383 18.2471C95.9297 18.6209 96.221 19.0538 96.3958 19.3489C97.5613 18.6603 98.4936 17.7749 99.2512 16.7321C99.9116 17.7552 100.727 18.6013 101.66 19.2309C101.971 18.68 102.573 17.952 103 17.5782C101.932 16.9682 101.038 16.0828 100.339 14.9613C101.174 13.2693 101.66 11.3804 101.99 9.43258H102.689Z" fill="#565656"/>
<path d="M111.197 16.3583C109.196 16.3583 108.633 15.6893 108.633 13.9776V3.58902H122.094V1.52311H105.583V3.58902H106.36V13.8202C106.36 17.4404 107.973 18.5029 111.391 18.5029H119.044C120.598 18.5029 122.327 18.4832 123.065 18.2865C122.949 17.7356 122.813 16.6731 122.735 16.1025C121.939 16.2599 120.385 16.3583 119.161 16.3583H111.197ZM116.83 7.64213H113.644V6.02876H116.83V7.64213ZM119.122 4.49408H111.488V9.1768H119.122V4.49408ZM111.372 11.6165H112.887V13.7611H111.372V11.6165ZM109.507 15.3352H114.868V10.0425H109.507V15.3352ZM119.2 13.7611H117.626V11.6165H119.2V13.7611ZM121.2 10.0425H115.723V15.3352H121.2V10.0425Z" fill="#565656"/>
<path d="M140.119 4.06123V5.00564H137.847V4.06123H140.119ZM140.119 7.72083H137.847V6.73707H140.119V7.72083ZM135.671 5.00564H131.34V6.73707H135.671V7.72083H132.311V9.47193H135.671V10.436H132.194V12.0887H135.671V13.0528H131.417V14.8433H135.671V16.1812H137.847V14.8433H142.994V13.0528H137.847V12.0887H142.373V10.436H137.847V9.47193H142.14V6.73707H143.208V5.00564H142.14V2.29045H137.847V0.854155H135.671V2.29045H132.408V4.06123H135.671V5.00564ZM130.349 7.44538L129.961 7.48473H129.281C130.135 6.02876 130.99 4.31701 131.728 2.5659L130.349 1.60182L129.572 1.91662H125.979V3.94318H128.834C128.154 5.5172 127.397 6.85512 127.105 7.28797C126.697 7.95693 126.154 8.50784 125.765 8.60622C126.056 9.05875 126.503 9.96381 126.659 10.3967C126.659 10.1409 127.241 9.76706 127.688 9.53096H129.378C129.203 10.8295 128.951 11.9707 128.62 12.9741C128.251 12.3248 127.941 11.5575 127.669 10.6721L125.979 11.2624C126.445 12.8167 127.008 14.0563 127.707 15.0794C127.086 16.1812 126.328 17.0469 125.377 17.6962C125.862 17.9717 126.717 18.7783 127.028 19.2309C127.863 18.6013 128.601 17.7946 129.203 16.7518C131.204 18.4242 133.845 18.8374 137.109 18.8374H142.819C142.955 18.2078 143.305 17.1846 143.635 16.6928C142.314 16.7518 138.294 16.7518 137.167 16.7518C134.331 16.7321 131.903 16.3976 130.135 14.8433C130.874 12.9741 131.379 10.6131 131.631 7.74051L130.349 7.44538Z" fill="#565656"/>
<path d="M153.192 9.51128L151.405 10.0228V6.85512H153.017V4.63181H151.405V0.854155H149.288V4.63181H148.375C148.491 3.8448 148.588 3.07746 148.666 2.29045L146.743 1.95597C146.568 4.27765 146.238 6.73707 145.636 8.29141C146.063 8.54719 146.918 9.07843 147.268 9.37356C147.539 8.66524 147.773 7.81921 147.986 6.85512H149.288V10.6131C147.967 10.9869 146.782 11.3017 145.811 11.5182L146.374 13.7415C147.268 13.5054 148.239 13.1906 149.288 12.8758V19.2309H151.405V12.2265C152.124 12.01 152.803 11.7739 153.503 11.5772L153.192 9.51128ZM156.649 3.88415C156.921 3.01844 157.174 2.13305 157.368 1.22799L155.27 0.834479C154.688 3.72675 153.619 6.54031 152.085 8.25206C152.551 8.54719 153.464 9.19648 153.833 9.57031C154.59 8.62589 155.27 7.40603 155.834 6.04843H156.824C155.97 8.90135 154.454 11.8133 152.531 13.348C153.134 13.6824 153.872 14.2137 154.299 14.6662C156.261 12.7774 157.893 9.2555 158.747 6.04843H159.66C158.689 10.6524 156.746 15.1187 153.639 17.3814C154.28 17.7159 155.076 18.2865 155.523 18.739C158.65 16.1222 160.651 11.0066 161.603 6.04843H161.7C161.389 13.1119 161.039 15.7877 160.554 16.4173C160.321 16.7124 160.126 16.7911 159.835 16.7911C159.466 16.7911 158.825 16.7911 158.106 16.7124C158.456 17.3617 158.689 18.3258 158.747 18.9948C159.582 19.0341 160.398 19.0341 160.942 18.9357C161.583 18.798 162.01 18.5816 162.457 17.9126C163.195 16.9289 163.545 13.7218 163.914 4.94662C163.933 4.67116 163.953 3.88415 163.953 3.88415H156.649Z" fill="#565656"/>
<path d="M170.771 11.892V7.5831H172.577V5.3598H170.771V1.09026H168.634V5.3598H166.536V7.5831H168.634V12.7971C167.682 13.1906 166.828 13.5054 166.109 13.7611L167.041 16.1222C168.809 15.3155 170.984 14.253 173.004 13.2496L172.48 11.164L170.771 11.892ZM177.394 16.7518C176.209 16.7518 176.035 16.5747 176.035 15.4335V9.35388L177.647 8.64557V14.6465H179.803V7.70116L181.299 7.0322C181.221 9.35388 181.065 11.8526 180.852 13.4463L182.736 13.9776C183.202 11.6165 183.474 8.03563 183.591 5.30077L183.668 4.94662L181.92 4.37603L179.803 5.30077V0.814804H177.647V6.24518L176.035 6.93382V2.72331H173.82V7.89791L171.917 8.72427L172.771 10.7902L173.82 10.3376V15.4139C173.82 18.1094 174.578 18.8374 177.2 18.8374H181.337C183.61 18.8374 184.27 17.893 184.581 15.1384C183.94 15.0204 183.066 14.6465 182.561 14.2924C182.386 16.2993 182.192 16.7518 181.143 16.7518H177.394Z" fill="#565656"/>
<path d="M193.011 13.0725C192.39 13.2889 191.749 13.4857 191.108 13.6824V9.74739H192.856V7.60278H191.108V4.13993H193.186V1.95597H186.776V4.13993H188.913V7.60278H186.951V9.74739H188.913V14.3711C188.019 14.6269 187.223 14.8433 186.543 15.0204L187.068 17.4011C188.932 16.7911 191.263 16.0435 193.4 15.2761L193.011 13.0725ZM196.003 7.13057H198.003V8.82265H196.003V7.13057ZM196.003 3.64805H198.003V5.30077H196.003V3.64805ZM201.869 5.30077H199.946V3.64805H201.869V5.30077ZM201.869 8.82265H199.946V7.13057H201.869V8.82265ZM200.159 16.4763V14.6072H204.277V12.5019H200.159V10.8099H204.064V1.66084H193.924V10.8099H197.809V12.5019H193.788V14.6072H197.809V16.4763H192.448V18.6013H204.938V16.4763H200.159Z" fill="#565656"/>
<path d="M213.115 2.54623C212.163 2.07402 210.318 1.44441 209.017 1.14928L208.026 2.72331C209.347 3.11681 211.173 3.82512 212.086 4.31701L213.115 2.54623ZM212.688 4.59246C210.668 5.14337 208.57 5.71395 207.152 6.02876L208.065 8.05531C209.502 7.5831 211.27 6.99284 212.96 6.42226L212.688 4.59246ZM212.027 13.6431H220.438V14.5285H212.027V13.6431ZM212.027 11.4788H220.438V12.3248H212.027V11.4788ZM212.027 9.31453H220.438V10.1606H212.027V9.31453ZM214.902 7.91758C216.359 7.48473 217.622 6.83544 218.593 5.93038C219.564 6.79609 220.827 7.46505 222.206 7.91758H214.902ZM222.788 15.9058V8.09466C223.022 8.15369 223.235 8.21271 223.468 8.25206C223.76 7.74051 224.304 6.97317 224.731 6.59934C222.672 6.32389 220.729 5.65493 219.583 4.73019C219.7 4.53343 219.817 4.31701 219.914 4.10058L218.088 3.78577H221.934C221.681 4.19895 221.429 4.59246 221.196 4.86791L222.983 5.4385C223.624 4.71051 224.304 3.52999 224.809 2.46753L223.293 2.07402L222.944 2.13305H217.214C217.389 1.81824 217.563 1.50344 217.699 1.16896L215.66 0.834479C215.155 1.97565 214.203 3.27422 212.804 4.25798C213.348 4.47441 214.125 4.94662 214.533 5.3598C215.135 4.86791 215.64 4.35636 216.087 3.78577H217.835C217.214 5.24174 215.232 6.18616 212.921 6.59934C213.174 6.91414 213.562 7.46505 213.815 7.91758H209.794V15.9058H212.591C211.231 16.5944 209.153 17.1846 207.288 17.5388C207.793 17.9323 208.609 18.798 208.997 19.2505C210.959 18.6996 213.465 17.7159 215.058 16.6928L213.368 15.9058H218.845L217.66 16.8698C219.583 17.5782 221.584 18.5422 222.691 19.1915L224.77 17.9323C223.624 17.3617 221.74 16.5747 219.953 15.9058H222.788Z" fill="#565656"/>
<path d="M234.734 4.0809H231.316L232.5 3.37259C232.229 2.64461 231.665 1.56246 231.199 0.755779L229.548 1.60182C229.956 2.34948 230.442 3.33324 230.694 4.0809H227.606V5.93038H234.734V4.0809ZM234.035 8.58654V6.81577H228.402V8.58654H234.035ZM232.248 14.0366V16.2402H230.189V14.0366H232.248ZM234.074 12.1674H228.421V18.9554H230.189V18.1291H234.074V12.1674ZM228.402 11.223H234.074V9.45226H228.402V11.223ZM234.987 1.83792V4.06123H236.89V9.2555H234.715V11.4395H236.89V19.1915H239.046V11.4395H240.911V9.2555H239.046V4.06123H241.397C241.377 11.3804 241.397 18.1881 243.242 18.9751C244.446 19.4867 245.437 18.8767 245.728 16.0041C245.398 15.65 244.835 14.7252 244.524 14.1153C244.466 15.3745 244.369 16.6534 244.271 16.6141C243.553 16.378 243.533 8.31109 243.708 1.83792H234.987Z" fill="#565656"/>
<path d="M265.774 10.3376H258.14V4.37603H264.647V2.05435H249.186V4.37603H255.732V10.3376H248.176V12.6987H255.732V19.2112H258.14V12.6987H265.774V10.3376ZM250.371 5.63525C250.992 6.9535 251.594 8.66524 251.789 9.72771L254.042 9.0194C253.828 7.91758 253.129 6.26486 252.488 5.00564L250.371 5.63525ZM261.714 9.68836C262.375 8.68492 263.152 7.09122 263.851 5.57622L261.384 4.94662C261.015 6.22551 260.316 7.95693 259.694 9.0981L261.714 9.68836Z" fill="#565656"/>
<path d="M281.391 12.7971V15.9451H273.155V12.7971H281.391ZM270.785 19.1915H273.155V18.1881H281.391V19.1719H283.877V10.5541H270.785V19.1915ZM278.924 3.86447C279.643 4.59246 280.42 5.41882 281.177 6.28453L273.213 6.54031C274.69 5.10402 276.224 3.35292 277.448 1.52311L275.117 0.519675C273.796 2.88071 271.679 5.26142 270.999 5.87135C270.358 6.50096 269.892 6.87479 269.387 7.01252C269.659 7.62245 270.028 8.7833 270.144 9.2555C271.174 8.90135 272.553 8.862 282.867 8.35044C283.275 8.90135 283.625 9.41291 283.877 9.84576L285.839 8.40947C284.829 6.75674 282.518 4.33668 280.731 2.64461L278.924 3.86447Z" fill="#565656"/>
<path d="M48.0519 30.901H51.7999V35.8645C51.3054 36.0345 50.7889 36.1686 50.2504 36.267C49.7206 36.3654 49.1158 36.4146 48.436 36.4146C47.0233 36.4146 45.9373 35.9942 45.178 35.1536C44.4187 34.3129 44.0391 33.0876 44.0391 31.4778C44.0391 30.4762 44.2289 29.6087 44.6085 28.8753C44.997 28.142 45.5577 27.5741 46.2905 27.1716C47.0233 26.7692 47.9195 26.568 48.979 26.568C49.4822 26.568 49.9767 26.6216 50.4623 26.7289C50.9479 26.8363 51.3893 26.9794 51.7866 27.1582L51.1244 28.7814C50.8331 28.6294 50.502 28.5042 50.1312 28.4058C49.7603 28.3074 49.3719 28.2583 48.9657 28.2583C48.383 28.2583 47.8753 28.3924 47.4427 28.6607C47.0189 28.929 46.6878 29.3091 46.4494 29.801C46.2199 30.2839 46.1051 30.8563 46.1051 31.5181C46.1051 32.1441 46.189 32.6986 46.3567 33.1815C46.5245 33.6645 46.7893 34.0446 47.1513 34.3218C47.5133 34.5901 47.9857 34.7243 48.5684 34.7243C48.8509 34.7243 49.0893 34.7109 49.2836 34.684C49.4866 34.6572 49.6721 34.6259 49.8398 34.5901V32.5913H48.0519V30.901Z" fill="#565656"/>
<path d="M56.8673 28.8217C57.865 28.8217 58.6552 29.1123 59.238 29.6937C59.8207 30.266 60.1121 31.0843 60.1121 32.1486V33.1145H55.4503C55.4679 33.6779 55.6313 34.1206 55.9403 34.4426C56.2581 34.7645 56.6952 34.9255 57.2514 34.9255C57.7194 34.9255 58.1432 34.8808 58.5228 34.7913C58.9025 34.693 59.2954 34.5454 59.7015 34.3487V35.8914C59.3483 36.0702 58.9731 36.1999 58.5758 36.2804C58.1873 36.3698 57.7149 36.4146 57.1587 36.4146C56.4347 36.4146 55.7946 36.2804 55.2384 36.0121C54.6821 35.7349 54.2451 35.319 53.9272 34.7645C53.6094 34.21 53.4505 33.5125 53.4505 32.6718C53.4505 31.8132 53.5917 31.1022 53.8743 30.5388C54.1656 29.9664 54.5674 29.5371 55.0794 29.251C55.5915 28.9648 56.1875 28.8217 56.8673 28.8217ZM56.8806 30.2437C56.5009 30.2437 56.1831 30.3689 55.927 30.6193C55.6798 30.8697 55.5341 31.2587 55.49 31.7864H58.2579C58.2491 31.3392 58.1343 30.9726 57.9136 30.6864C57.6929 30.3912 57.3485 30.2437 56.8806 30.2437Z" fill="#565656"/>
<path d="M68.281 32.6047C68.281 33.821 67.9632 34.76 67.3275 35.4219C66.7006 36.0837 65.8442 36.4146 64.7582 36.4146C64.0872 36.4146 63.4868 36.267 62.9571 35.9719C62.4362 35.6767 62.0256 35.2475 61.7254 34.684C61.4252 34.1117 61.2751 33.4185 61.2751 32.6047C61.2751 31.3884 61.5886 30.4538 62.2154 29.801C62.8423 29.1481 63.7031 28.8217 64.7979 28.8217C65.4778 28.8217 66.0782 28.9693 66.5991 29.2644C67.12 29.5595 67.5306 29.9888 67.8308 30.5522C68.1309 31.1067 68.281 31.7909 68.281 32.6047ZM63.2882 32.6047C63.2882 33.3291 63.4029 33.8791 63.6325 34.2547C63.8709 34.6214 64.255 34.8048 64.7847 34.8048C65.3056 34.8048 65.6809 34.6214 65.9104 34.2547C66.1488 33.8791 66.268 33.3291 66.268 32.6047C66.268 31.8803 66.1488 31.3392 65.9104 30.9815C65.6809 30.6148 65.3012 30.4315 64.7715 30.4315C64.2505 30.4315 63.8709 30.6148 63.6325 30.9815C63.4029 31.3392 63.2882 31.8803 63.2882 32.6047Z" fill="#565656"/>
<path d="M72.256 28.8217C73.1478 28.8217 73.8453 29.1794 74.3485 29.8949H74.4015L74.5604 28.9558H76.2291V36.2938C76.2291 37.3402 75.9245 38.1361 75.3153 38.6817C74.7061 39.2272 73.8055 39.5 72.6136 39.5C72.1015 39.5 71.6247 39.4687 71.1833 39.4061C70.7506 39.3435 70.3268 39.2317 69.9119 39.0707V37.4743C70.8036 37.85 71.7439 38.0378 72.7328 38.0378C73.7481 38.0378 74.2558 37.4833 74.2558 36.3743V36.2267C74.2558 36.0747 74.2602 35.9182 74.2691 35.7572C74.2867 35.5962 74.3 35.4532 74.3088 35.3279H74.2558C74.0086 35.7125 73.7128 35.9898 73.3685 36.1597C73.0241 36.3296 72.6357 36.4146 72.203 36.4146C71.3466 36.4146 70.6756 36.0837 70.19 35.4219C69.7132 34.7511 69.4748 33.821 69.4748 32.6315C69.4748 31.4331 69.722 30.4986 70.2165 29.8278C70.7109 29.1571 71.3908 28.8217 72.256 28.8217ZM72.8785 30.4449C71.9514 30.4449 71.4879 31.1827 71.4879 32.6584C71.4879 34.1161 71.9602 34.845 72.905 34.845C73.4082 34.845 73.779 34.7019 74.0174 34.4157C74.2646 34.1206 74.3883 33.6108 74.3883 32.8864V32.645C74.3883 31.8579 74.2691 31.2945 74.0307 30.9547C73.7923 30.6148 73.4082 30.4449 72.8785 30.4449Z" fill="#565656"/>
<path d="M82.332 28.8217C82.4291 28.8217 82.5439 28.8262 82.6763 28.8351C82.8088 28.844 82.9147 28.8575 82.9942 28.8753L82.8485 30.7534C82.7867 30.7356 82.694 30.7221 82.5704 30.7132C82.4556 30.6953 82.3541 30.6864 82.2658 30.6864C81.9303 30.6864 81.608 30.749 81.299 30.8742C80.99 30.9904 80.7383 31.1827 80.5441 31.451C80.3587 31.7193 80.266 32.086 80.266 32.551V36.2804H78.2927V28.9558H79.7892L80.0806 30.19H80.1733C80.3852 29.8144 80.6765 29.4924 81.0473 29.2241C81.4182 28.9558 81.8464 28.8217 82.332 28.8217Z" fill="#565656"/>
<path d="M87.0146 28.8083C87.9858 28.8083 88.7274 29.0229 89.2395 29.4522C89.7604 29.8725 90.0209 30.5209 90.0209 31.3974V36.2804H88.6435L88.2595 35.2877H88.2065C87.8975 35.6812 87.5708 35.9674 87.2265 36.1463C86.8821 36.3251 86.4098 36.4146 85.8094 36.4146C85.1649 36.4146 84.6307 36.2267 84.2069 35.8511C83.7831 35.4666 83.5712 34.8808 83.5712 34.0938C83.5712 33.3157 83.8405 32.7433 84.3791 32.3766C84.9177 32.001 85.7255 31.7953 86.8027 31.7596L88.0608 31.7193V31.3974C88.0608 31.0128 87.9593 30.7311 87.7562 30.5522C87.562 30.3734 87.2883 30.2839 86.9351 30.2839C86.5819 30.2839 86.2376 30.3376 85.9021 30.4449C85.5666 30.5433 85.2311 30.6685 84.8956 30.8205L84.2466 29.4656C84.6351 29.2599 85.0633 29.0989 85.5313 28.9827C86.008 28.8664 86.5025 28.8083 87.0146 28.8083ZM88.0608 32.8864L87.2927 32.9132C86.657 32.9311 86.2155 33.0474 85.9683 33.262C85.7211 33.4767 85.5975 33.7584 85.5975 34.1072C85.5975 34.4113 85.6858 34.6304 85.8624 34.7645C86.0389 34.8897 86.2685 34.9523 86.551 34.9523C86.9748 34.9523 87.3324 34.8271 87.6238 34.5767C87.9151 34.3173 88.0608 33.9551 88.0608 33.4901V32.8864Z" fill="#565656"/>
<path d="M96.0668 28.8217C96.8791 28.8217 97.5369 29.1436 98.0402 29.7876C98.5434 30.4225 98.795 31.3616 98.795 32.6047C98.795 33.8478 98.5346 34.7958 98.0137 35.4487C97.4928 36.0926 96.8262 36.4146 96.0139 36.4146C95.493 36.4146 95.078 36.3207 94.769 36.1328C94.4599 35.9361 94.2083 35.717 94.0141 35.4755H93.9081C93.9788 35.8511 94.0141 36.2089 94.0141 36.5487V39.5H92.0408V28.9558H93.6432L93.9214 29.9083H94.0141C94.2083 29.6132 94.4688 29.3583 94.7955 29.1436C95.1221 28.929 95.5459 28.8217 96.0668 28.8217ZM95.4312 30.4181C94.9191 30.4181 94.5571 30.579 94.3452 30.901C94.1421 31.223 94.0317 31.7148 94.0141 32.3766V32.5913C94.0141 33.2978 94.1156 33.8433 94.3187 34.2279C94.5306 34.6035 94.9102 34.7913 95.4576 34.7913C95.9079 34.7913 96.239 34.6035 96.4509 34.2279C96.6716 33.8433 96.782 33.2933 96.782 32.5779C96.782 31.138 96.3317 30.4181 95.4312 30.4181Z" fill="#565656"/>
<path d="M102.395 26.085V28.1643C102.395 28.5221 102.382 28.8664 102.355 29.1973C102.337 29.5282 102.32 29.7607 102.302 29.8949H102.408C102.638 29.5193 102.933 29.2465 103.295 29.0766C103.657 28.9066 104.059 28.8217 104.501 28.8217C105.286 28.8217 105.913 29.0363 106.381 29.4656C106.858 29.8859 107.096 30.5656 107.096 31.5047V36.2804H105.123V32.001C105.123 30.9457 104.735 30.4181 103.958 30.4181C103.366 30.4181 102.955 30.6282 102.726 31.0486C102.505 31.46 102.395 32.0547 102.395 32.8328V36.2804H100.422V26.085H102.395Z" fill="#565656"/>
<path d="M110.119 26.085C110.41 26.085 110.662 26.1566 110.874 26.2997C111.086 26.4338 111.192 26.6887 111.192 27.0643C111.192 27.431 111.086 27.6859 110.874 27.829C110.662 27.9721 110.41 28.0436 110.119 28.0436C109.819 28.0436 109.563 27.9721 109.351 27.829C109.148 27.6859 109.046 27.431 109.046 27.0643C109.046 26.6887 109.148 26.4338 109.351 26.2997C109.563 26.1566 109.819 26.085 110.119 26.085ZM111.099 28.9558V36.2804H109.126V28.9558H111.099Z" fill="#565656"/>
<path d="M116.101 36.4146C115.024 36.4146 114.189 36.115 113.598 35.5158C113.015 34.9076 112.724 33.9551 112.724 32.6584C112.724 31.764 112.874 31.0352 113.174 30.4717C113.474 29.9083 113.889 29.4924 114.419 29.2241C114.958 28.9558 115.576 28.8217 116.273 28.8217C116.768 28.8217 117.196 28.8709 117.558 28.9692C117.929 29.0676 118.251 29.1839 118.525 29.318L117.942 30.8608C117.633 30.7356 117.341 30.6327 117.068 30.5522C116.803 30.4717 116.538 30.4315 116.273 30.4315C115.249 30.4315 114.737 31.1693 114.737 32.645C114.737 33.3783 114.869 33.9194 115.134 34.2682C115.408 34.617 115.788 34.7913 116.273 34.7913C116.688 34.7913 117.054 34.7377 117.372 34.6304C117.69 34.5141 117.999 34.3576 118.299 34.1608V35.8645C117.999 36.0613 117.681 36.1999 117.346 36.2804C117.019 36.3698 116.604 36.4146 116.101 36.4146Z" fill="#565656"/>
<path d="M127.616 36.2804H123.312V35.1267L124.464 34.5901V28.3924L123.312 27.8558V26.7021H127.616V27.8558L126.464 28.3924V34.5901L127.616 35.1267V36.2804Z" fill="#565656"/>
<path d="M133.174 28.8217C133.951 28.8217 134.574 29.0363 135.042 29.4656C135.51 29.8859 135.744 30.5656 135.744 31.5047V36.2804H133.77V32.001C133.77 31.4734 133.678 31.0799 133.492 30.8205C133.307 30.5522 133.011 30.4181 132.605 30.4181C132.004 30.4181 131.594 30.6282 131.373 31.0486C131.152 31.46 131.042 32.0547 131.042 32.8328V36.2804H129.069V28.9558H130.579L130.843 29.8949H130.949C131.179 29.5193 131.492 29.2465 131.89 29.0766C132.296 28.9066 132.724 28.8217 133.174 28.8217Z" fill="#565656"/>
<path d="M141.773 30.4583H140.064V36.2804H138.091V30.4583H137.005V29.4924L138.091 28.9558V28.4192C138.091 27.7932 138.192 27.3103 138.395 26.9704C138.607 26.6216 138.903 26.3757 139.283 26.2326C139.671 26.0895 140.126 26.018 140.647 26.018C141.035 26.018 141.384 26.0493 141.693 26.1119C142.011 26.1745 142.267 26.246 142.461 26.3265L141.958 27.7887C141.808 27.744 141.645 27.7038 141.468 27.668C141.291 27.6233 141.088 27.6009 140.859 27.6009C140.585 27.6009 140.382 27.6859 140.249 27.8558C140.126 28.0257 140.064 28.2404 140.064 28.4997V28.9558H141.773V30.4583Z" fill="#565656"/>
<path d="M149.463 32.6047C149.463 33.821 149.146 34.76 148.51 35.4219C147.883 36.0837 147.027 36.4146 145.941 36.4146C145.27 36.4146 144.669 36.267 144.139 35.9719C143.618 35.6767 143.208 35.2475 142.908 34.684C142.608 34.1117 142.457 33.4185 142.457 32.6047C142.457 31.3884 142.771 30.4538 143.398 29.801C144.025 29.1481 144.885 28.8217 145.98 28.8217C146.66 28.8217 147.261 28.9693 147.781 29.2644C148.302 29.5595 148.713 29.9888 149.013 30.5522C149.313 31.1067 149.463 31.7909 149.463 32.6047ZM144.471 32.6047C144.471 33.3291 144.585 33.8791 144.815 34.2547C145.053 34.6214 145.437 34.8048 145.967 34.8048C146.488 34.8048 146.863 34.6214 147.093 34.2547C147.331 33.8791 147.45 33.3291 147.45 32.6047C147.45 31.8803 147.331 31.3392 147.093 30.9815C146.863 30.6148 146.484 30.4315 145.954 30.4315C145.433 30.4315 145.053 30.6148 144.815 30.9815C144.585 31.3392 144.471 31.8803 144.471 32.6047Z" fill="#565656"/>
<path d="M155.134 28.8217C155.231 28.8217 155.345 28.8262 155.478 28.8351C155.61 28.844 155.716 28.8575 155.796 28.8753L155.65 30.7534C155.588 30.7356 155.496 30.7221 155.372 30.7132C155.257 30.6953 155.156 30.6864 155.067 30.6864C154.732 30.6864 154.41 30.749 154.101 30.8742C153.792 30.9904 153.54 31.1827 153.346 31.451C153.16 31.7193 153.068 32.086 153.068 32.551V36.2804H151.094V28.9558H152.591L152.882 30.19H152.975C153.187 29.8144 153.478 29.4924 153.849 29.2241C154.22 28.9558 154.648 28.8217 155.134 28.8217Z" fill="#565656"/>
<path d="M165.597 28.8217C166.419 28.8217 167.037 29.0363 167.452 29.4656C167.875 29.8859 168.087 30.5656 168.087 31.5047V36.2804H166.114V32.001C166.114 30.9457 165.752 30.4181 165.028 30.4181C164.507 30.4181 164.136 30.6059 163.915 30.9815C163.695 31.3571 163.584 31.8982 163.584 32.6047V36.2804H161.611V32.001C161.611 30.9457 161.249 30.4181 160.525 30.4181C159.978 30.4181 159.598 30.6282 159.386 31.0486C159.183 31.46 159.082 32.0547 159.082 32.8328V36.2804H157.108V28.9558H158.618L158.883 29.8949H158.989C159.21 29.5193 159.51 29.2465 159.889 29.0766C160.278 28.9066 160.68 28.8217 161.095 28.8217C161.624 28.8217 162.075 28.9111 162.445 29.09C162.816 29.2599 163.099 29.5282 163.293 29.8949H163.465C163.686 29.5193 163.991 29.2465 164.379 29.0766C164.776 28.9066 165.182 28.8217 165.597 28.8217Z" fill="#565656"/>
<path d="M173.086 28.8083C174.057 28.8083 174.799 29.0229 175.311 29.4522C175.832 29.8725 176.092 30.5209 176.092 31.3974V36.2804H174.715L174.331 35.2877H174.278C173.969 35.6812 173.642 35.9674 173.298 36.1463C172.953 36.3251 172.481 36.4146 171.881 36.4146C171.236 36.4146 170.702 36.2267 170.278 35.8511C169.854 35.4666 169.642 34.8808 169.642 34.0938C169.642 33.3157 169.912 32.7433 170.45 32.3766C170.989 32.001 171.797 31.7953 172.874 31.7596L174.132 31.7193V31.3974C174.132 31.0128 174.03 30.7311 173.827 30.5522C173.633 30.3734 173.359 30.2839 173.006 30.2839C172.653 30.2839 172.309 30.3376 171.973 30.4449C171.638 30.5433 171.302 30.6685 170.967 30.8205L170.318 29.4656C170.706 29.2599 171.134 29.0989 171.602 28.9827C172.079 28.8664 172.574 28.8083 173.086 28.8083ZM174.132 32.8864L173.364 32.9132C172.728 32.9311 172.287 33.0474 172.039 33.262C171.792 33.4767 171.669 33.7584 171.669 34.1072C171.669 34.4113 171.757 34.6304 171.934 34.7645C172.11 34.8897 172.34 34.9523 172.622 34.9523C173.046 34.9523 173.404 34.8271 173.695 34.5767C173.986 34.3173 174.132 33.9551 174.132 33.4901V32.8864Z" fill="#565656"/>
<path d="M181.158 34.8182C181.379 34.8182 181.591 34.7958 181.794 34.7511C181.997 34.7064 182.2 34.6527 182.403 34.5901V36.0792C182.191 36.1686 181.926 36.2446 181.608 36.3072C181.299 36.3788 180.959 36.4146 180.588 36.4146C180.156 36.4146 179.767 36.343 179.423 36.1999C179.088 36.0568 178.818 35.8109 178.615 35.4621C178.421 35.1044 178.324 34.6125 178.324 33.9865V30.4583H177.383V29.6132L178.469 28.9424L179.039 27.3997H180.297V28.9558H182.323V30.4583H180.297V33.9865C180.297 34.2637 180.377 34.4739 180.535 34.617C180.694 34.7511 180.902 34.8182 181.158 34.8182Z" fill="#565656"/>
<path d="M184.848 26.085C185.139 26.085 185.391 26.1566 185.602 26.2997C185.814 26.4338 185.92 26.6887 185.92 27.0643C185.92 27.431 185.814 27.6859 185.602 27.829C185.391 27.9721 185.139 28.0436 184.848 28.0436C184.547 28.0436 184.291 27.9721 184.079 27.829C183.876 27.6859 183.775 27.431 183.775 27.0643C183.775 26.6887 183.876 26.4338 184.079 26.2997C184.291 26.1566 184.547 26.085 184.848 26.085ZM185.828 28.9558V36.2804H183.854V28.9558H185.828Z" fill="#565656"/>
<path d="M194.458 32.6047C194.458 33.821 194.141 34.76 193.505 35.4219C192.878 36.0837 192.022 36.4146 190.936 36.4146C190.265 36.4146 189.664 36.267 189.134 35.9719C188.613 35.6767 188.203 35.2475 187.903 34.684C187.603 34.1117 187.452 33.4185 187.452 32.6047C187.452 31.3884 187.766 30.4538 188.393 29.801C189.02 29.1481 189.88 28.8217 190.975 28.8217C191.655 28.8217 192.255 28.9693 192.776 29.2644C193.297 29.5595 193.708 29.9888 194.008 30.5522C194.308 31.1067 194.458 31.7909 194.458 32.6047ZM189.465 32.6047C189.465 33.3291 189.58 33.8791 189.81 34.2547C190.048 34.6214 190.432 34.8048 190.962 34.8048C191.483 34.8048 191.858 34.6214 192.088 34.2547C192.326 33.8791 192.445 33.3291 192.445 32.6047C192.445 31.8803 192.326 31.3392 192.088 30.9815C191.858 30.6148 191.479 30.4315 190.949 30.4315C190.428 30.4315 190.048 30.6148 189.81 30.9815C189.58 31.3392 189.465 31.8803 189.465 32.6047Z" fill="#565656"/>
<path d="M200.195 28.8217C200.972 28.8217 201.594 29.0363 202.062 29.4656C202.53 29.8859 202.764 30.5656 202.764 31.5047V36.2804H200.791V32.001C200.791 31.4734 200.698 31.0799 200.513 30.8205C200.327 30.5522 200.031 30.4181 199.625 30.4181C199.025 30.4181 198.614 30.6282 198.394 31.0486C198.173 31.46 198.062 32.0547 198.062 32.8328V36.2804H196.089V28.9558H197.599L197.864 29.8949H197.97C198.199 29.5193 198.513 29.2465 198.91 29.0766C199.316 28.9066 199.744 28.8217 200.195 28.8217Z" fill="#565656"/>
<path d="M214.485 33.6242C214.485 34.4739 214.181 35.1535 213.572 35.6633C212.971 36.1641 212.115 36.4146 211.002 36.4146C210.005 36.4146 209.113 36.2223 208.327 35.8377V33.9462C208.777 34.143 209.241 34.3263 209.718 34.4962C210.203 34.6572 210.684 34.7377 211.161 34.7377C211.656 34.7377 212.004 34.6438 212.208 34.456C212.419 34.2592 212.525 34.0133 212.525 33.7181C212.525 33.4767 212.441 33.271 212.274 33.1011C212.115 32.9311 211.898 32.7746 211.625 32.6315C211.351 32.4795 211.038 32.3185 210.684 32.1486C210.464 32.0413 210.225 31.9161 209.969 31.773C209.713 31.6209 209.466 31.4376 209.228 31.223C208.998 30.9994 208.808 30.7311 208.658 30.4181C208.508 30.105 208.433 29.7294 208.433 29.2912C208.433 28.4326 208.72 27.7664 209.294 27.2924C209.868 26.8094 210.649 26.568 211.638 26.568C212.132 26.568 212.6 26.6261 213.042 26.7424C213.492 26.8586 213.96 27.0241 214.446 27.2387L213.797 28.8217C213.364 28.6428 212.976 28.5042 212.631 28.4058C212.287 28.3074 211.934 28.2583 211.572 28.2583C211.192 28.2583 210.901 28.3477 210.698 28.5266C210.495 28.7054 210.393 28.9379 210.393 29.2241C210.393 29.564 210.543 29.8323 210.843 30.029C211.144 30.2258 211.589 30.4673 212.181 30.7534C212.667 30.986 213.077 31.2274 213.413 31.4778C213.757 31.7283 214.022 32.0234 214.207 32.3632C214.393 32.7031 214.485 33.1234 214.485 33.6242Z" fill="#565656"/>
<path d="M215.012 28.9558H217.171L218.535 33.0742C218.606 33.271 218.659 33.4767 218.694 33.6913C218.729 33.897 218.756 34.1161 218.773 34.3487H218.813C218.84 34.1161 218.875 33.897 218.919 33.6913C218.972 33.4767 219.03 33.271 219.091 33.0742L220.429 28.9558H222.548L219.489 37.2195C219.215 37.9796 218.813 38.5475 218.283 38.9232C217.763 39.3077 217.158 39.5 216.469 39.5C216.248 39.5 216.054 39.4866 215.886 39.4598C215.727 39.4419 215.586 39.4195 215.463 39.3927V37.8097C215.56 37.8276 215.674 37.8455 215.807 37.8634C215.948 37.8813 216.094 37.8902 216.244 37.8902C216.659 37.8902 216.986 37.7605 217.224 37.5012C217.471 37.2508 217.652 36.9467 217.767 36.589L217.886 36.2267L215.012 28.9558Z" fill="#565656"/>
<path d="M228.631 34.1072C228.631 34.8495 228.371 35.4218 227.85 35.8243C227.338 36.2178 226.57 36.4146 225.545 36.4146C225.042 36.4146 224.61 36.3788 224.248 36.3072C223.886 36.2446 223.524 36.1373 223.162 35.9853V34.3352C223.55 34.5141 223.969 34.6617 224.42 34.7779C224.87 34.8942 225.267 34.9523 225.612 34.9523C226 34.9523 226.274 34.8942 226.433 34.7779C226.601 34.6617 226.684 34.5096 226.684 34.3218C226.684 34.1966 226.649 34.0848 226.578 33.9865C226.517 33.8881 226.375 33.7763 226.155 33.6511C225.934 33.5259 225.59 33.3649 225.122 33.1681C224.671 32.9714 224.301 32.7791 224.009 32.5913C223.718 32.3945 223.502 32.162 223.36 31.8937C223.219 31.6165 223.148 31.2722 223.148 30.8608C223.148 30.1811 223.409 29.6713 223.93 29.3315C224.451 28.9916 225.144 28.8217 226.009 28.8217C226.459 28.8217 226.887 28.8664 227.294 28.9558C227.7 29.0453 228.119 29.1928 228.552 29.3985L227.956 30.8339C227.603 30.6819 227.267 30.5567 226.949 30.4583C226.631 30.351 226.309 30.2973 225.982 30.2973C225.4 30.2973 225.108 30.4583 225.108 30.7803C225.108 30.8965 225.144 31.0039 225.214 31.1022C225.294 31.1917 225.44 31.29 225.651 31.3974C225.872 31.5047 226.194 31.6478 226.618 31.8266C227.033 31.9966 227.391 32.1754 227.691 32.3632C227.991 32.5421 228.221 32.7702 228.38 33.0474C228.547 33.3157 228.631 33.669 228.631 34.1072Z" fill="#565656"/>
<path d="M233.214 34.8182C233.435 34.8182 233.647 34.7958 233.85 34.7511C234.053 34.7064 234.256 34.6527 234.459 34.5901V36.0792C234.248 36.1686 233.983 36.2446 233.665 36.3072C233.356 36.3788 233.016 36.4146 232.645 36.4146C232.212 36.4146 231.824 36.343 231.48 36.1999C231.144 36.0568 230.875 35.8109 230.672 35.4621C230.477 35.1044 230.38 34.6125 230.38 33.9865V30.4583H229.44V29.6132L230.526 28.9424L231.096 27.3997H232.354V28.9558H234.38V30.4583H232.354V33.9865C232.354 34.2637 232.433 34.4739 232.592 34.617C232.751 34.7511 232.958 34.8182 233.214 34.8182Z" fill="#565656"/>
<path d="M238.891 28.8217C239.888 28.8217 240.679 29.1123 241.261 29.6937C241.844 30.266 242.135 31.0843 242.135 32.1486V33.1145H237.474C237.491 33.6779 237.655 34.1206 237.964 34.4426C238.281 34.7645 238.719 34.9255 239.275 34.9255C239.743 34.9255 240.166 34.8808 240.546 34.7913C240.926 34.693 241.319 34.5454 241.725 34.3487V35.8914C241.372 36.0702 240.996 36.1999 240.599 36.2804C240.211 36.3698 239.738 36.4146 239.182 36.4146C238.458 36.4146 237.818 36.2804 237.262 36.0121C236.705 35.7349 236.268 35.319 235.951 34.7645C235.633 34.21 235.474 33.5125 235.474 32.6718C235.474 31.8132 235.615 31.1022 235.898 30.5388C236.189 29.9664 236.591 29.5371 237.103 29.251C237.615 28.9648 238.211 28.8217 238.891 28.8217ZM238.904 30.2437C238.524 30.2437 238.206 30.3689 237.95 30.6193C237.703 30.8697 237.557 31.2587 237.513 31.7864H240.281C240.272 31.3392 240.158 30.9726 239.937 30.6864C239.716 30.3912 239.372 30.2437 238.904 30.2437Z" fill="#565656"/>
<path d="M252.225 28.8217C253.046 28.8217 253.664 29.0363 254.079 29.4656C254.503 29.8859 254.715 30.5656 254.715 31.5047V36.2804H252.741V32.001C252.741 30.9457 252.379 30.4181 251.655 30.4181C251.134 30.4181 250.763 30.6059 250.543 30.9815C250.322 31.3571 250.212 31.8982 250.212 32.6047V36.2804H248.238V32.001C248.238 30.9457 247.876 30.4181 247.152 30.4181C246.605 30.4181 246.225 30.6282 246.013 31.0486C245.81 31.46 245.709 32.0547 245.709 32.8328V36.2804H243.735V28.9558H245.245L245.51 29.8949H245.616C245.837 29.5193 246.137 29.2465 246.517 29.0766C246.905 28.9066 247.307 28.8217 247.722 28.8217C248.252 28.8217 248.702 28.9111 249.073 29.09C249.444 29.2599 249.726 29.5282 249.92 29.8949H250.092C250.313 29.5193 250.618 29.2465 251.006 29.0766C251.404 28.9066 251.81 28.8217 252.225 28.8217Z" fill="#565656"/>
</svg>
