<svg width="49" height="63" viewBox="0 0 49 63" fill="none" xmlns="http://www.w3.org/2000/svg">
<g filter="url(#filter0_d)">
<path d="M24.129 0C21.4856 0 18.8681 0.52065 16.426 1.53223C13.9838 2.5438 11.7648 4.02651 9.89563 5.89566C8.02648 7.76481 6.5438 9.9838 5.53223 12.426C4.52065 14.8681 4 17.4856 4 20.129C4 32.015 24.129 54.971 24.129 54.971C24.129 54.971 44.258 32.898 44.258 20.129C44.258 17.4856 43.7373 14.8681 42.7258 12.426C41.7142 9.9838 40.2315 7.76481 38.3623 5.89566C36.4932 4.02651 34.2742 2.5438 31.832 1.53223C29.3899 0.52065 26.7724 0 24.129 0ZM24.129 28.016C22.4061 28.0162 20.7218 27.5055 19.2892 26.5484C17.8565 25.5913 16.7398 24.231 16.0804 22.6393C15.4209 21.0475 15.2483 19.296 15.5843 17.6062C15.9203 15.9163 16.7498 14.3641 17.968 13.1458C19.1862 11.9274 20.7384 11.0976 22.4282 10.7614C24.118 10.4252 25.8695 10.5977 27.4613 11.257C29.0531 11.9163 30.4136 13.0328 31.3708 14.4653C32.3281 15.8979 32.839 17.5821 32.839 19.305C32.839 21.615 31.9213 23.8305 30.2879 25.4639C28.6545 27.0973 26.439 28.015 24.129 28.015V28.016Z" fill="#ED5959"/>
</g>
<circle cx="23.6152" cy="19.5" r="8.5" fill="white"/>
<defs>
<filter id="filter0_d" x="0" y="0" width="48.258" height="62.971" filterUnits="userSpaceOnUse" color-interpolation-filters="sRGB">
<feFlood flood-opacity="0" result="BackgroundImageFix"/>
<feColorMatrix in="SourceAlpha" type="matrix" values="0 0 0 0 0 0 0 0 0 0 0 0 0 0 0 0 0 0 127 0"/>
<feOffset dy="4"/>
<feGaussianBlur stdDeviation="2"/>
<feColorMatrix type="matrix" values="0 0 0 0 0 0 0 0 0 0 0 0 0 0 0 0 0 0 0.25 0"/>
<feBlend mode="normal" in2="BackgroundImageFix" result="effect1_dropShadow"/>
<feBlend mode="normal" in="SourceGraphic" in2="effect1_dropShadow" result="shape"/>
</filter>
</defs>
</svg>
